Cause-Black.ufo
<glyph name="exclam" format="2">
  <advance width="304"/>
  <unicode hex="0021"/>
  <outline>
    <contour>
      <point x="229.551" y="265.374" type="curve" smooth="yes"/>
      <point x="223.89" y="319.706"/>
      <point x="221.054" y="373.176"/>
      <point x="221.054" y="426.87" type="curve" smooth="yes"/>
      <point x="221.054" y="492.566"/>
      <point x="225.3" y="558.6"/>
      <point x="233.816" y="626.962" type="curve" smooth="yes"/>
      <point x="240.141" y="677.739"/>
      <point x="195.554" y="706.207"/>
      <point x="152.056" y="706.207" type="curve" smooth="yes"/>
      <point x="116.747" y="706.207"/>
      <point x="82.1551" y="687.45"/>
      <point x="76.0905" y="646.642" type="curve" smooth="yes"/>
      <point x="66.0941" y="579.377"/>
      <point x="60.98" y="499.011"/>
      <point x="60.98" y="422.339" type="curve" smooth="yes"/>
      <point x="60.98" y="361.683"/>
      <point x="64.1806" y="303.339"/>
      <point x="70.6965" y="255.62" type="curve" smooth="yes"/>
      <point x="76.5367" y="212.848"/>
      <point x="113.17" y="193.334"/>
      <point x="149.826" y="193.334" type="curve" smooth="yes"/>
      <point x="192.075" y="193.334"/>
      <point x="234.355" y="219.258"/>
    </contour>
    <contour>
      <point x="162.503" y="-9.89513" type="curve" smooth="yes"/>
      <point x="221.502" y="-9.89513"/>
      <point x="258.801" y="19.3889"/>
      <point x="258.801" y="65.7096" type="curve" smooth="yes"/>
      <point x="258.801" y="111.348"/>
      <point x="221.961" y="139.625"/>
      <point x="162.503" y="139.625" type="curve" smooth="yes"/>
      <point x="104.52" y="139.625"/>
      <point x="68.1122" y="111.115"/>
      <point x="68.1122" y="65.7096" type="curve" smooth="yes"/>
      <point x="68.1122" y="19.7022"/>
      <point x="105.064" y="-9.89513"/>
    </contour>
  </outline>
  <guideline angle="0" x="0" y="706"/>
</glyph>
<glyph name="quotedbl" format="1">
  <advance width="441"/>
  <unicode hex="0022"/>
  <outline>
    <contour>
      <point x="191" y="537" type="curve" smooth="yes"/>
      <point x="196" y="578"/>
      <point x="197" y="613"/>
      <point x="195" y="657" type="curve" smooth="yes"/>
      <point x="192" y="692"/>
      <point x="159" y="716"/>
      <point x="114" y="716" type="curve" smooth="yes"/>
      <point x="64" y="716"/>
      <point x="31" y="686"/>
      <point x="36" y="644" type="curve" smooth="yes"/>
      <point x="39" y="614"/>
      <point x="40" y="591"/>
      <point x="38" y="544" type="curve" smooth="yes"/>
      <point x="37" y="509"/>
      <point x="69" y="483"/>
      <point x="114" y="483" type="curve" smooth="yes"/>
      <point x="156" y="483"/>
      <point x="187" y="505"/>
    </contour>
    <contour>
      <point x="396" y="537" type="curve" smooth="yes"/>
      <point x="401" y="578"/>
      <point x="402" y="613"/>
      <point x="399" y="657" type="curve" smooth="yes"/>
      <point x="397" y="692"/>
      <point x="364" y="716"/>
      <point x="319" y="716" type="curve" smooth="yes"/>
      <point x="269" y="716"/>
      <point x="235" y="686"/>
      <point x="240" y="644" type="curve" smooth="yes"/>
      <point x="244" y="614"/>
      <point x="244" y="591"/>
      <point x="243" y="544" type="curve" smooth="yes"/>
      <point x="242" y="509"/>
      <point x="274" y="483"/>
      <point x="319" y="483" type="curve" smooth="yes"/>
      <point x="360" y="483"/>
      <point x="392" y="505"/>
    </contour>
  </outline>
</glyph>
<glyph name="numbersign" format="1">
  <advance width="682"/>
  <unicode hex="0023"/>
  <outline>
    <contour>
      <point x="265.8" y="47.2" type="curve" smooth="yes"/>
      <point x="272.1" y="84.9"/>
      <point x="277.9" y="119.8"/>
      <point x="283.1" y="152.7" type="curve"/>
      <point x="311.2" y="152.3"/>
      <point x="338.8" y="152.5"/>
      <point x="366.1" y="153.1" type="curve"/>
      <point x="361.8" y="126"/>
      <point x="357.2" y="97.1"/>
      <point x="352.2" y="66.2" type="curve" smooth="yes"/>
      <point x="345.2" y="22.7"/>
      <point x="379.5" y="-10.8"/>
      <point x="431.1" y="-10.8" type="curve" smooth="yes"/>
      <point x="473" y="-10.8"/>
      <point x="505" y="12.4"/>
      <point x="510.9" y="47.2" type="curve" smooth="yes"/>
      <point x="517.8" y="88.4"/>
      <point x="524.1" y="126.3"/>
      <point x="529.7" y="162" type="curve"/>
      <point x="552.1" y="163.9"/>
      <point x="574" y="166.1"/>
      <point x="595.6" y="168.7" type="curve" smooth="yes"/>
      <point x="628.4" y="172.6"/>
      <point x="651.1" y="199.1"/>
      <point x="651.1" y="233.4" type="curve" smooth="yes"/>
      <point x="651.1" y="274.7"/>
      <point x="619.3" y="301.6"/>
      <point x="575.9" y="296.9" type="curve" smooth="yes"/>
      <point x="567" y="296"/>
      <point x="558.1" y="295.1"/>
      <point x="549.2" y="294.3" type="curve"/>
      <point x="553.1" y="323.6"/>
      <point x="556.7" y="352.3"/>
      <point x="560" y="381.2" type="curve"/>
      <point x="578.8" y="383"/>
      <point x="597.4" y="384.9"/>
      <point x="615.6" y="387.2" type="curve" smooth="yes"/>
      <point x="648.5" y="391.2"/>
      <point x="671.1" y="417.5"/>
      <point x="671.1" y="451.9" type="curve" smooth="yes"/>
      <point x="671.1" y="493.2"/>
      <point x="639.2" y="520.1"/>
      <point x="595.9" y="515.4" type="curve" smooth="yes"/>
      <point x="588.4" y="514.6"/>
      <point x="580.9" y="513.8"/>
      <point x="573.4" y="513" type="curve"/>
      <point x="576.6" y="549"/>
      <point x="579.7" y="586.9"/>
      <point x="582.8" y="628.2" type="curve" smooth="yes"/>
      <point x="586.2" y="673"/>
      <point x="550.9" y="706.7"/>
      <point x="500.5" y="706.7" type="curve" smooth="yes"/>
      <point x="457.6" y="706.7"/>
      <point x="426.5" y="681.3"/>
      <point x="423.8" y="644.1" type="curve" smooth="yes"/>
      <point x="420.1" y="593"/>
      <point x="416.3" y="547.2"/>
      <point x="412" y="502.6" type="curve"/>
      <point x="384.1" y="501.7"/>
      <point x="355.9" y="501.2"/>
      <point x="327.2" y="501.2" type="curve"/>
      <point x="330.8" y="540.6"/>
      <point x="334.2" y="582.4"/>
      <point x="337.7" y="628.2" type="curve" smooth="yes"/>
      <point x="341.1" y="673"/>
      <point x="305.8" y="706.7"/>
      <point x="255.5" y="706.7" type="curve" smooth="yes"/>
      <point x="212.6" y="706.7"/>
      <point x="181.4" y="681.3"/>
      <point x="178.7" y="644.1" type="curve" smooth="yes"/>
      <point x="175.1" y="594.1"/>
      <point x="171.4" y="549.1"/>
      <point x="167.2" y="505.5" type="curve"/>
      <point x="147.4" y="506.5"/>
      <point x="127.3" y="507.7"/>
      <point x="106.9" y="509.2" type="curve" smooth="yes"/>
      <point x="69.4" y="511.8"/>
      <point x="40.2" y="482.8"/>
      <point x="40.2" y="443.1" type="curve" smooth="yes"/>
      <point x="40.2" y="407.3"/>
      <point x="64.6" y="381.1"/>
      <point x="100.2" y="378.8" type="curve" smooth="yes"/>
      <point x="117.9" y="377.6"/>
      <point x="135.5" y="376.6"/>
      <point x="152.9" y="375.7" type="curve"/>
      <point x="149.4" y="347.7"/>
      <point x="145.6" y="318.7"/>
      <point x="141.2" y="287.9" type="curve"/>
      <point x="123.5" y="288.6"/>
      <point x="105.4" y="289.6"/>
      <point x="86.9" y="290.7" type="curve" smooth="yes"/>
      <point x="49.3" y="292.9"/>
      <point x="20.2" y="264.1"/>
      <point x="20.2" y="224.6" type="curve" smooth="yes"/>
      <point x="20.2" y="188.9"/>
      <point x="44.6" y="162.7"/>
      <point x="80.2" y="160.3" type="curve" smooth="yes"/>
      <point x="94.1" y="159.3"/>
      <point x="108" y="158.5"/>
      <point x="121.7" y="157.7" type="curve"/>
      <point x="117.3" y="129.1"/>
      <point x="112.4" y="98.7"/>
      <point x="107.1" y="66.2" type="curve" smooth="yes"/>
      <point x="100.1" y="22.7"/>
      <point x="134.4" y="-10.8"/>
      <point x="186" y="-10.8" type="curve" smooth="yes"/>
      <point x="227.9" y="-10.8"/>
      <point x="259.8" y="12.4"/>
    </contour>
    <contour>
      <point x="302.6" y="283.5" type="curve"/>
      <point x="306.7" y="313.1"/>
      <point x="310.3" y="342"/>
      <point x="313.7" y="371" type="curve"/>
      <point x="342.2" y="370.9"/>
      <point x="370.1" y="371.2"/>
      <point x="397.5" y="371.9" type="curve"/>
      <point x="394" y="344"/>
      <point x="390.1" y="315.2"/>
      <point x="385.8" y="284.5" type="curve"/>
      <point x="358.7" y="283.7"/>
      <point x="331" y="283.4"/>
    </contour>
  </outline>
</glyph>
<glyph name="dollar" format="1">
  <advance width="515"/>
  <unicode hex="0024"/>
  <outline>
    <contour>
      <point x="325.9" y="-42.5" type="curve" smooth="yes"/>
      <point x="322.4" y="29.9" type="line"/>
      <point x="420.3" y="53.3"/>
      <point x="479.4" y="124.7"/>
      <point x="479.4" y="219.6" type="curve" smooth="yes"/>
      <point x="479.4" y="425.6"/>
      <point x="202.8" y="392.8"/>
      <point x="202.8" y="493" type="curve" smooth="yes"/>
      <point x="202.8" y="523.8"/>
      <point x="228.7" y="544"/>
      <point x="268.2" y="544" type="curve" smooth="yes"/>
      <point x="295.6" y="544"/>
      <point x="317.1" y="533.1"/>
      <point x="363.8" y="510.1" type="curve" smooth="yes"/>
      <point x="374.55" y="504.838"/>
      <point x="385.414" y="502.4"/>
      <point x="395.786" y="502.4" type="curve" smooth="yes"/>
      <point x="431.147" y="502.4"/>
      <point x="460.8" y="530.734"/>
      <point x="460.8" y="572.1" type="curve" smooth="yes"/>
      <point x="460.8" y="595.7"/>
      <point x="449.2" y="615.8"/>
      <point x="428.6" y="627.5" type="curve" smooth="yes"/>
      <point x="389.1" y="650"/>
      <point x="351.1" y="663.9"/>
      <point x="312.4" y="670" type="curve"/>
      <point x="315.8" y="741.8" type="line" smooth="yes"/>
      <point x="317.2" y="770.5"/>
      <point x="294.2" y="791.3"/>
      <point x="261.1" y="791.3" type="curve" smooth="yes"/>
      <point x="228" y="791.3"/>
      <point x="205" y="770.6"/>
      <point x="206.4" y="741.8" type="curve" smooth="yes"/>
      <point x="209.9" y="669.1" type="line"/>
      <point x="107" y="651.3"/>
      <point x="42.9" y="583.7"/>
      <point x="42.9" y="492.8" type="curve" smooth="yes"/>
      <point x="42.9" y="299.1"/>
      <point x="333.5" y="333.4"/>
      <point x="333.5" y="221.7" type="curve" smooth="yes"/>
      <point x="333.5" y="181.7"/>
      <point x="297.4" y="151.7"/>
      <point x="249.5" y="151.7" type="curve" smooth="yes"/>
      <point x="203.7" y="151.7"/>
      <point x="188.1" y="181"/>
      <point x="128.7" y="209.4" type="curve" smooth="yes"/>
      <point x="118.886" y="214.063"/>
      <point x="108.793" y="216.215"/>
      <point x="98.9805" y="216.215" type="curve" smooth="yes"/>
      <point x="62.5019" y="216.215"/>
      <point x="29.9" y="186.477"/>
      <point x="29.9" y="145.5" type="curve" smooth="yes"/>
      <point x="29.9" y="69.318"/>
      <point x="160.708" y="28.0803"/>
      <point x="219.6" y="22.9" type="curve"/>
      <point x="216.4" y="-42.5" type="line" smooth="yes"/>
      <point x="215" y="-71.2"/>
      <point x="238" y="-92"/>
      <point x="271.1" y="-92" type="curve" smooth="yes"/>
      <point x="304.2" y="-92"/>
      <point x="327.2" y="-71.1"/>
    </contour>
  </outline>
</glyph>
<glyph name="percent" format="1">
  <advance width="994"/>
  <unicode hex="0025"/>
  <outline>
    <contour>
      <point x="232" y="314" type="curve" smooth="yes"/>
      <point x="347" y="314"/>
      <point x="431" y="398"/>
      <point x="431" y="515" type="curve" smooth="yes"/>
      <point x="431" y="631"/>
      <point x="350" y="710"/>
      <point x="232" y="710" type="curve" smooth="yes"/>
      <point x="115" y="710"/>
      <point x="35" y="632"/>
      <point x="35" y="516" type="curve" smooth="yes"/>
      <point x="35" y="398"/>
      <point x="117" y="314"/>
    </contour>
    <contour>
      <point x="349" y="22" type="curve" smooth="yes"/>
      <point x="502" y="225"/>
      <point x="585" y="351"/>
      <point x="730" y="606" type="curve" smooth="yes"/>
      <point x="757" y="654"/>
      <point x="729" y="704"/>
      <point x="675" y="704" type="curve" smooth="yes"/>
      <point x="650" y="704"/>
      <point x="628" y="691"/>
      <point x="615" y="667" type="curve" smooth="yes"/>
      <point x="519" y="490"/>
      <point x="391" y="293"/>
      <point x="246" y="101" type="curve" smooth="yes"/>
      <point x="211" y="56"/>
      <point x="241" y="-6"/>
      <point x="297" y="-6" type="curve" smooth="yes"/>
      <point x="317" y="-6"/>
      <point x="335" y="4"/>
    </contour>
    <contour>
      <point x="233" y="434" type="curve" smooth="yes"/>
      <point x="205" y="434"/>
      <point x="185" y="467"/>
      <point x="185" y="514" type="curve" smooth="yes"/>
      <point x="185" y="559"/>
      <point x="204" y="590"/>
      <point x="233" y="590" type="curve" smooth="yes"/>
      <point x="262" y="590"/>
      <point x="281" y="559"/>
      <point x="281" y="513" type="curve" smooth="yes"/>
      <point x="281" y="466"/>
      <point x="261" y="434"/>
    </contour>
    <contour>
      <point x="770" y="-7" type="curve" smooth="yes"/>
      <point x="885" y="-7"/>
      <point x="968" y="77"/>
      <point x="968" y="194" type="curve" smooth="yes"/>
      <point x="968" y="310"/>
      <point x="888" y="389"/>
      <point x="770" y="389" type="curve" smooth="yes"/>
      <point x="653" y="389"/>
      <point x="573" y="310"/>
      <point x="573" y="195" type="curve" smooth="yes"/>
      <point x="573" y="77"/>
      <point x="655" y="-7"/>
    </contour>
    <contour>
      <point x="770" y="113" type="curve" smooth="yes"/>
      <point x="742" y="113"/>
      <point x="723" y="146"/>
      <point x="723" y="192" type="curve" smooth="yes"/>
      <point x="723" y="238"/>
      <point x="742" y="268"/>
      <point x="770" y="268" type="curve" smooth="yes"/>
      <point x="800" y="268"/>
      <point x="819" y="238"/>
      <point x="819" y="192" type="curve" smooth="yes"/>
      <point x="819" y="145"/>
      <point x="799" y="113"/>
    </contour>
  </outline>
</glyph>
<glyph name="ampersand" format="1">
  <advance width="648"/>
  <unicode hex="0026"/>
  <outline>
    <contour>
      <point x="540.7" y="-5.6" type="curve" smooth="yes"/>
      <point x="583.388" y="-5.6"/>
      <point x="607.626" y="23.4323"/>
      <point x="607.626" y="55.3452" type="curve" smooth="yes"/>
      <point x="607.626" y="78.23"/>
      <point x="595.162" y="102.596"/>
      <point x="568.1" y="118.8" type="curve" smooth="yes"/>
      <point x="560.8" y="123.1"/>
      <point x="553.4" y="127.8"/>
      <point x="545.8" y="133" type="curve"/>
      <point x="565.093" y="158.52"/>
      <point x="602.617" y="213.635"/>
      <point x="602.617" y="247.169" type="curve" smooth="yes"/>
      <point x="602.617" y="282.539"/>
      <point x="576.266" y="313.9"/>
      <point x="539.3" y="313.9" type="curve" smooth="yes"/>
      <point x="512.1" y="313.9"/>
      <point x="487.7" y="296.9"/>
      <point x="470.5" y="266.1" type="curve" smooth="yes"/>
      <point x="461.6" y="250.2"/>
      <point x="452.4" y="235.4"/>
      <point x="442.9" y="221.6" type="curve"/>
      <point x="348.6" y="320.8"/>
      <point x="285" y="440.7"/>
      <point x="285" y="519.1" type="curve" smooth="yes"/>
      <point x="285" y="558.9"/>
      <point x="299.8" y="585.5"/>
      <point x="322.1" y="585.5" type="curve" smooth="yes"/>
      <point x="341" y="585.5"/>
      <point x="354.9" y="568"/>
      <point x="354.9" y="544.1" type="curve" smooth="yes"/>
      <point x="354.9" y="507.2"/>
      <point x="325" y="497.7"/>
      <point x="325" y="469.7" type="curve" smooth="yes"/>
      <point x="325" y="437.2"/>
      <point x="352.5" y="413.9"/>
      <point x="390.8" y="413.9" type="curve" smooth="yes"/>
      <point x="460.706" y="413.9"/>
      <point x="502.4" y="487.295"/>
      <point x="502.4" y="550.3" type="curve" smooth="yes"/>
      <point x="502.4" y="639.1"/>
      <point x="424.7" y="705.8"/>
      <point x="321.3" y="705.8" type="curve" smooth="yes"/>
      <point x="211.4" y="705.8"/>
      <point x="134" y="631.8"/>
      <point x="134" y="526.7" type="curve" smooth="yes"/>
      <point x="134" y="488"/>
      <point x="143.9" y="443.3"/>
      <point x="163" y="395" type="curve"/>
      <point x="73.4" y="328.4"/>
      <point x="35.4" y="269.2"/>
      <point x="35.4" y="195.9" type="curve" smooth="yes"/>
      <point x="35.4" y="78.4"/>
      <point x="136.5" y="-6.4"/>
      <point x="276.4" y="-6.4" type="curve" smooth="yes"/>
      <point x="336.5" y="-6.4"/>
      <point x="393.6" y="9.4"/>
      <point x="444.5" y="40.3" type="curve"/>
      <point x="462.1" y="27.6"/>
      <point x="479.8" y="16.2"/>
      <point x="497.4" y="6.1" type="curve" smooth="yes"/>
      <point x="511.1" y="-1.8"/>
      <point x="525.3" y="-5.6"/>
    </contour>
    <contour>
      <point x="343.5" y="127.3" type="curve"/>
      <point x="324.9" y="118.2"/>
      <point x="306.2" y="113.6"/>
      <point x="287.7" y="113.6" type="curve" smooth="yes"/>
      <point x="235" y="113.6"/>
      <point x="195.5" y="151.3"/>
      <point x="195.5" y="201.5" type="curve" smooth="yes"/>
      <point x="195.5" y="227"/>
      <point x="205.7" y="249.5"/>
      <point x="227.4" y="271.9" type="curve"/>
      <point x="260.5" y="220.7"/>
      <point x="300.2" y="171.2"/>
    </contour>
  </outline>
</glyph>
<glyph name="quotesingle" format="1">
  <advance width="242"/>
  <unicode hex="0027"/>
  <outline>
    <contour>
      <point x="196.3" y="537.4" type="curve" smooth="yes"/>
      <point x="201.4" y="578"/>
      <point x="202.3" y="612.6"/>
      <point x="199.5" y="656.7" type="curve" smooth="yes"/>
      <point x="197.3" y="691.6"/>
      <point x="164.1" y="716.2"/>
      <point x="119.4" y="716.2" type="curve" smooth="yes"/>
      <point x="69.1" y="716.2"/>
      <point x="35.9" y="685.7"/>
      <point x="40.8" y="644" type="curve" smooth="yes"/>
      <point x="44.4" y="613.9"/>
      <point x="44.9" y="590.8"/>
      <point x="43.3" y="544" type="curve" smooth="yes"/>
      <point x="42.1" y="508.9"/>
      <point x="74.2" y="483.3"/>
      <point x="119.4" y="483.3" type="curve" smooth="yes"/>
      <point x="161" y="483.3"/>
      <point x="192.3" y="505.3"/>
    </contour>
  </outline>
</glyph>
<glyph name="parenleft" format="1">
  <advance width="327"/>
  <unicode hex="0028"/>
  <outline>
    <contour>
      <point x="267.6" y="-31.4" type="curve" smooth="yes"/>
      <point x="206.2" y="51.5"/>
      <point x="170.7" y="176.2"/>
      <point x="170.7" y="308.7" type="curve" smooth="yes"/>
      <point x="170.7" y="441.1"/>
      <point x="206.2" y="561.9"/>
      <point x="267.6" y="638.1" type="curve" smooth="yes"/>
      <point x="280.493" y="654.109"/>
      <point x="286.401" y="671.378"/>
      <point x="286.401" y="687.357" type="curve" smooth="yes"/>
      <point x="286.401" y="720.084"/>
      <point x="261.616" y="747.4"/>
      <point x="221.3" y="747.4" type="curve" smooth="yes"/>
      <point x="200.8" y="747.4"/>
      <point x="182.1" y="738.3"/>
      <point x="168.6" y="721.9" type="curve" smooth="yes"/>
      <point x="87.9" y="624.1"/>
      <point x="40.5" y="468.4"/>
      <point x="40.5" y="300.8" type="curve" smooth="yes"/>
      <point x="40.5" y="137.1"/>
      <point x="82.5" y="-8.4"/>
      <point x="156.2" y="-100.5" type="curve" smooth="yes"/>
      <point x="171.1" y="-119"/>
      <point x="191.1" y="-129.1"/>
      <point x="212.9" y="-129.1" type="curve" smooth="yes"/>
      <point x="253.068" y="-129.1"/>
      <point x="280.297" y="-100.343"/>
      <point x="280.297" y="-68.2296" type="curve" smooth="yes"/>
      <point x="280.297" y="-55.9713"/>
      <point x="276.33" y="-43.2239"/>
    </contour>
  </outline>
</glyph>
<glyph name="parenright" format="1">
  <advance width="312"/>
  <unicode hex="0029"/>
  <outline>
    <contour>
      <point x="171" y="-100.5" type="curve" smooth="yes"/>
      <point x="244.8" y="-8.4"/>
      <point x="286.7" y="137.1"/>
      <point x="286.7" y="300.8" type="curve" smooth="yes"/>
      <point x="286.7" y="468.4"/>
      <point x="239.4" y="624.1"/>
      <point x="158.7" y="721.9" type="curve" smooth="yes"/>
      <point x="145.1" y="738.3"/>
      <point x="126.4" y="747.4"/>
      <point x="105.9" y="747.4" type="curve" smooth="yes"/>
      <point x="65.6084" y="747.4"/>
      <point x="40.8294" y="720.118"/>
      <point x="40.8294" y="687.417" type="curve" smooth="yes"/>
      <point x="40.8294" y="671.421"/>
      <point x="46.7581" y="654.13"/>
      <point x="59.7" y="638.1" type="curve" smooth="yes"/>
      <point x="121" y="561.9"/>
      <point x="156.5" y="441.1"/>
      <point x="156.5" y="308.7" type="curve" smooth="yes"/>
      <point x="156.5" y="176.2"/>
      <point x="121" y="51.5"/>
      <point x="59.7" y="-31.4" type="curve" smooth="yes"/>
      <point x="50.9289" y="-43.2423"/>
      <point x="46.9427" y="-56.011"/>
      <point x="46.9427" y="-68.2867" type="curve" smooth="yes"/>
      <point x="46.9427" y="-100.378"/>
      <point x="74.1839" y="-129.1"/>
      <point x="114.4" y="-129.1" type="curve" smooth="yes"/>
      <point x="136.2" y="-129.1"/>
      <point x="156.2" y="-119"/>
    </contour>
  </outline>
</glyph>
<glyph name="asterisk" format="1">
  <advance width="410"/>
  <unicode hex="002A"/>
  <outline>
    <contour>
      <point x="138" y="706" type="curve" smooth="yes"/>
      <point x="153" y="657" type="line"/>
      <point x="114" y="685" type="line" smooth="yes"/>
      <point x="103" y="693"/>
      <point x="91" y="697"/>
      <point x="80" y="697" type="curve" smooth="yes"/>
      <point x="48" y="697"/>
      <point x="20" y="666"/>
      <point x="20" y="621" type="curve" smooth="yes"/>
      <point x="20" y="589"/>
      <point x="40" y="568"/>
      <point x="72" y="568" type="curve" smooth="yes"/>
      <point x="124" y="568" type="line"/>
      <point x="88" y="542" type="line" smooth="yes"/>
      <point x="72" y="530"/>
      <point x="65" y="514"/>
      <point x="65" y="498" type="curve" smooth="yes"/>
      <point x="65" y="464"/>
      <point x="96" y="429"/>
      <point x="141" y="429" type="curve" smooth="yes"/>
      <point x="162" y="429"/>
      <point x="179" y="442"/>
      <point x="186" y="465" type="curve" smooth="yes"/>
      <point x="204" y="517" type="line"/>
      <point x="220" y="468" type="line" smooth="yes"/>
      <point x="228" y="443"/>
      <point x="246" y="429"/>
      <point x="269" y="429" type="curve" smooth="yes"/>
      <point x="305" y="429"/>
      <point x="346" y="464"/>
      <point x="346" y="498" type="curve" smooth="yes"/>
      <point x="346" y="512"/>
      <point x="339" y="526"/>
      <point x="323" y="538" type="curve" smooth="yes"/>
      <point x="276" y="572" type="line"/>
      <point x="329" y="573" type="line" smooth="yes"/>
      <point x="364" y="573"/>
      <point x="385" y="594"/>
      <point x="385" y="627" type="curve" smooth="yes"/>
      <point x="385" y="671"/>
      <point x="356" y="702"/>
      <point x="325" y="702" type="curve" smooth="yes"/>
      <point x="315" y="702"/>
      <point x="305" y="699"/>
      <point x="295" y="692" type="curve" smooth="yes"/>
      <point x="249" y="659" type="line"/>
      <point x="262" y="702" type="line" smooth="yes"/>
      <point x="264" y="709"/>
      <point x="266" y="716"/>
      <point x="266" y="723" type="curve" smooth="yes"/>
      <point x="266" y="754"/>
      <point x="240" y="776"/>
      <point x="200" y="776" type="curve" smooth="yes"/>
      <point x="161" y="776"/>
      <point x="135" y="754"/>
      <point x="135" y="725" type="curve" smooth="yes"/>
      <point x="135" y="719"/>
      <point x="136" y="712"/>
    </contour>
  </outline>
</glyph>
<glyph name="plus" format="1">
  <advance width="513"/>
  <unicode hex="002B"/>
  <outline>
    <contour>
      <point x="319" y="88" type="curve" smooth="yes"/>
      <point x="321" y="125"/>
      <point x="323" y="157"/>
      <point x="324" y="185" type="curve"/>
      <point x="350" y="186"/>
      <point x="379" y="188"/>
      <point x="416" y="191" type="curve" smooth="yes"/>
      <point x="449" y="194"/>
      <point x="472" y="219"/>
      <point x="472" y="252" type="curve" smooth="yes"/>
      <point x="472" y="289"/>
      <point x="445" y="314"/>
      <point x="407" y="311" type="curve" smooth="yes"/>
      <point x="373" y="308"/>
      <point x="347" y="306"/>
      <point x="324" y="305" type="curve"/>
      <point x="323" y="337"/>
      <point x="322" y="371"/>
      <point x="319" y="414" type="curve" smooth="yes"/>
      <point x="317" y="448"/>
      <point x="290" y="473"/>
      <point x="253" y="473" type="curve" smooth="yes"/>
      <point x="214" y="473"/>
      <point x="187" y="446"/>
      <point x="189" y="410" type="curve" smooth="yes"/>
      <point x="191" y="364"/>
      <point x="193" y="331"/>
      <point x="194" y="302" type="curve"/>
      <point x="168" y="302"/>
      <point x="140" y="303"/>
      <point x="105" y="304" type="curve" smooth="yes"/>
      <point x="67" y="305"/>
      <point x="40" y="281"/>
      <point x="40" y="245" type="curve" smooth="yes"/>
      <point x="40" y="211"/>
      <point x="64" y="186"/>
      <point x="98" y="184" type="curve" smooth="yes"/>
      <point x="133" y="183"/>
      <point x="164" y="182"/>
      <point x="193" y="182" type="curve"/>
      <point x="192" y="156"/>
      <point x="191" y="128"/>
      <point x="189" y="92" type="curve" smooth="yes"/>
      <point x="187" y="59"/>
      <point x="215" y="35"/>
      <point x="254" y="35" type="curve" smooth="yes"/>
      <point x="291" y="35"/>
      <point x="318" y="57"/>
    </contour>
  </outline>
</glyph>
<glyph name="comma" format="1">
  <advance width="249"/>
  <unicode hex="002C"/>
  <outline>
    <contour>
      <point x="170.9" y="-162.2" type="curve" smooth="yes"/>
      <point x="200.7" y="-119.2"/>
      <point x="215.9" y="-65"/>
      <point x="213.2" y="-11.5" type="curve" smooth="yes"/>
      <point x="211" y="31.3"/>
      <point x="178.1" y="60.7"/>
      <point x="132.6" y="60.7" type="curve" smooth="yes"/>
      <point x="86" y="60.7"/>
      <point x="53.1" y="30.2"/>
      <point x="55.7" y="-10.6" type="curve" smooth="yes"/>
      <point x="57.7" y="-42.4"/>
      <point x="52" y="-79"/>
      <point x="40.5" y="-108" type="curve" smooth="yes"/>
      <point x="36.9702" y="-116.863"/>
      <point x="35.3136" y="-125.633"/>
      <point x="35.3136" y="-134.011" type="curve" smooth="yes"/>
      <point x="35.3136" y="-168.832"/>
      <point x="63.9271" y="-196.9"/>
      <point x="105.6" y="-196.9" type="curve" smooth="yes"/>
      <point x="131.9" y="-196.9"/>
      <point x="155.6" y="-184.3"/>
    </contour>
  </outline>
</glyph>
<glyph name="hyphen" format="1">
  <advance width="486"/>
  <unicode hex="002D"/>
  <outline>
    <contour>
      <point x="385" y="201" type="curve" smooth="yes"/>
      <point x="421" y="204"/>
      <point x="446" y="230"/>
      <point x="446" y="264" type="curve" smooth="yes"/>
      <point x="446" y="301"/>
      <point x="418" y="324"/>
      <point x="379" y="321" type="curve" smooth="yes"/>
      <point x="270" y="312"/>
      <point x="208" y="310"/>
      <point x="99" y="310" type="curve" smooth="yes"/>
      <point x="65" y="311"/>
      <point x="40" y="285"/>
      <point x="40" y="251" type="curve" smooth="yes"/>
      <point x="40" y="215"/>
      <point x="67" y="191"/>
      <point x="105" y="190" type="curve" smooth="yes"/>
      <point x="215" y="190"/>
      <point x="276" y="192"/>
    </contour>
  </outline>
</glyph>
<glyph name="period" format="1">
  <advance width="271"/>
  <unicode hex="002E"/>
  <outline>
    <contour>
      <point x="135" y="-10" type="curve" smooth="yes"/>
      <point x="194" y="-10"/>
      <point x="231" y="18"/>
      <point x="231" y="64" type="curve" smooth="yes"/>
      <point x="231" y="110"/>
      <point x="194" y="139"/>
      <point x="135" y="139" type="curve" smooth="yes"/>
      <point x="77" y="139"/>
      <point x="40" y="110"/>
      <point x="40" y="64" type="curve" smooth="yes"/>
      <point x="40" y="18"/>
      <point x="77" y="-10"/>
    </contour>
  </outline>
</glyph>
<glyph name="slash" format="1">
  <advance width="488"/>
  <unicode hex="002F"/>
  <outline>
    <contour>
      <point x="161.9" y="-3.4" type="curve" smooth="yes"/>
      <point x="276.5" y="186.6"/>
      <point x="381" y="400.2"/>
      <point x="470.3" y="627.2" type="curve" smooth="yes"/>
      <point x="474.776" y="638.564"/>
      <point x="476.869" y="649.847"/>
      <point x="476.869" y="660.6" type="curve" smooth="yes"/>
      <point x="476.869" y="701.982"/>
      <point x="445.862" y="735.5"/>
      <point x="400.3" y="735.5" type="curve" smooth="yes"/>
      <point x="370.5" y="735.5"/>
      <point x="346.3" y="718.7"/>
      <point x="335.1" y="690.5" type="curve" smooth="yes"/>
      <point x="244.4" y="462.4"/>
      <point x="156.4" y="282.9"/>
      <point x="30.6" y="69.8" type="curve" smooth="yes"/>
      <point x="23.8524" y="58.3756"/>
      <point x="20.7645" y="46.3881"/>
      <point x="20.7645" y="34.7181" type="curve" smooth="yes"/>
      <point x="20.7645" y="-3.76729"/>
      <point x="54.3467" y="-38.8"/>
      <point x="101" y="-38.8" type="curve" smooth="yes"/>
      <point x="126.5" y="-38.8"/>
      <point x="148.2" y="-26.2"/>
    </contour>
  </outline>
</glyph>
<glyph name="zero" format="1">
  <advance width="583"/>
  <unicode hex="0030"/>
  <outline>
    <contour>
      <point x="294" y="-10" type="curve" smooth="yes"/>
      <point x="457" y="-10"/>
      <point x="557" y="137"/>
      <point x="557" y="375" type="curve" smooth="yes"/>
      <point x="557" y="594"/>
      <point x="468" y="710"/>
      <point x="300" y="710" type="curve" smooth="yes"/>
      <point x="124" y="710"/>
      <point x="25" y="584"/>
      <point x="25" y="362" type="curve" smooth="yes"/>
      <point x="25" y="134"/>
      <point x="130" y="-10"/>
    </contour>
    <contour>
      <point x="292" y="120" type="curve" smooth="yes"/>
      <point x="235" y="120"/>
      <point x="187" y="230"/>
      <point x="187" y="362" type="curve" smooth="yes"/>
      <point x="187" y="496"/>
      <point x="230" y="580"/>
      <point x="297" y="580" type="curve" smooth="yes"/>
      <point x="360" y="580"/>
      <point x="395" y="505"/>
      <point x="395" y="372" type="curve" smooth="yes"/>
      <point x="395" y="232"/>
      <point x="349" y="120"/>
    </contour>
  </outline>
</glyph>
<glyph name="one" format="1">
  <advance width="420"/>
  <unicode hex="0031"/>
  <outline>
    <contour>
      <point x="349.3" y="70.2" type="curve" smooth="yes"/>
      <point x="342.802" y="158.917"/>
      <point x="339.592" y="245.038"/>
      <point x="339.592" y="344.949" type="curve" smooth="yes"/>
      <point x="339.592" y="431.084"/>
      <point x="341.978" y="527.468"/>
      <point x="346.7" y="644.6" type="curve" smooth="yes"/>
      <point x="348.265" y="683.4"/>
      <point x="314.582" y="710.818"/>
      <point x="274.469" y="710.818" type="curve" smooth="yes"/>
      <point x="263.303" y="710.818"/>
      <point x="251.64" y="708.694"/>
      <point x="240.1" y="704.1" type="curve" smooth="yes"/>
      <point x="190.1" y="684.2"/>
      <point x="136.1" y="666"/>
      <point x="65.9" y="645.6" type="curve" smooth="yes"/>
      <point x="40.7" y="638.3"/>
      <point x="25.6" y="617.8"/>
      <point x="25.6" y="590.8" type="curve" smooth="yes"/>
      <point x="25.6" y="544.8"/>
      <point x="64.3" y="512"/>
      <point x="106" y="522.6" type="curve" smooth="yes"/>
      <point x="129.7" y="528.6"/>
      <point x="160.2" y="538.1"/>
      <point x="183.7" y="546.8" type="curve"/>
      <point x="179.666" y="461.838"/>
      <point x="177.638" y="385.524"/>
      <point x="177.638" y="315.944" type="curve" smooth="yes"/>
      <point x="177.638" y="218.21"/>
      <point x="181.639" y="133.763"/>
      <point x="189.7" y="57.3" type="curve" smooth="yes"/>
      <point x="193.7" y="19.9"/>
      <point x="225.5" y="-5.5"/>
      <point x="268.5" y="-5.5" type="curve" smooth="yes"/>
      <point x="317.9" y="-5.5"/>
      <point x="352.5" y="26.9"/>
    </contour>
  </outline>
</glyph>
<glyph name="two" format="2">
  <advance width="542"/>
  <unicode hex="0032"/>
  <outline>
    <contour>
      <point x="441.2" y="6.35" type="curve" smooth="yes"/>
      <point x="483.986" y="6.35"/>
      <point x="516.15" y="34.8877"/>
      <point x="516.15" y="72.85" type="curve" smooth="yes"/>
      <point x="516.15" y="106.216"/>
      <point x="490.431" y="130.798"/>
      <point x="451.4" y="134.75" type="curve" smooth="yes"/>
      <point x="416.227" y="138.311"/>
      <point x="311.29" y="133.78"/>
      <point x="249.65" y="122.765" type="curve"/>
      <point x="436.051" y="299.719"/>
      <point x="494.45" y="388.175"/>
      <point x="494.45" y="490.543" type="curve" smooth="yes"/>
      <point x="494.45" y="623.057"/>
      <point x="403.088" y="709.85"/>
      <point x="263.6" y="709.85" type="curve" smooth="yes"/>
      <point x="180.888" y="709.85"/>
      <point x="103.165" y="672.672"/>
      <point x="49.25" y="607.4" type="curve" smooth="yes"/>
      <point x="8.91002" y="558.562"/>
      <point x="37.535" y="488.75"/>
      <point x="97.9" y="488.75" type="curve" smooth="yes"/>
      <point x="116.301" y="488.75"/>
      <point x="134.141" y="496.561"/>
      <point x="149.5" y="511.3" type="curve" smooth="yes"/>
      <point x="176.75" y="537.45"/>
      <point x="190.6" y="580.1"/>
      <point x="249.65" y="580.1" type="curve" smooth="yes"/>
      <point x="302.157" y="580.1"/>
      <point x="332.4" y="546.842"/>
      <point x="332.4" y="489.1" type="curve" smooth="yes"/>
      <point x="332.4" y="391.521"/>
      <point x="247.003" y="274.021"/>
      <point x="60.95" y="115.7" type="curve" smooth="yes"/>
      <point x="42.4869" y="99.9888"/>
      <point x="32.15" y="78.8844"/>
      <point x="32.15" y="56.9" type="curve" smooth="yes"/>
      <point x="32.15" y="17.1168"/>
      <point x="63.936" y="-10.6784"/>
      <point x="104.2" y="-6.04998" type="curve" smooth="yes"/>
      <point x="166.231" y="1.08059"/>
      <point x="309.441" y="6.35002"/>
    </contour>
  </outline>
  <guideline angle="0" x="0" y="710"/>
</glyph>
<glyph name="three" format="1">
  <advance width="597"/>
  <unicode hex="0033"/>
  <outline>
    <contour>
      <point x="40.8" y="106.1" type="curve" smooth="yes"/>
      <point x="78.3" y="37.9"/>
      <point x="182.6" y="-10.1"/>
      <point x="293.4" y="-10.1" type="curve" smooth="yes"/>
      <point x="454.2" y="-10.1"/>
      <point x="576.2" y="95.8"/>
      <point x="576.2" y="235.4" type="curve" smooth="yes"/>
      <point x="576.2" y="365.2"/>
      <point x="485.5" y="458.5"/>
      <point x="359.3" y="458.5" type="curve" smooth="yes"/>
      <point x="355.9" y="458.5"/>
      <point x="352.4" y="458.4"/>
      <point x="348.8" y="458.3" type="curve"/>
      <point x="406.6" y="507.3"/>
      <point x="461.6" y="552.4"/>
      <point x="486.9" y="571.5" type="curve" smooth="yes"/>
      <point x="510.3" y="589.2"/>
      <point x="523.6" y="613.3"/>
      <point x="523.6" y="637.8" type="curve" smooth="yes"/>
      <point x="523.6" y="675.6"/>
      <point x="493.3" y="701.6"/>
      <point x="451.4" y="700" type="curve" smooth="yes"/>
      <point x="389.677" y="697.712"/>
      <point x="332.866" y="696.562"/>
      <point x="280.111" y="696.562" type="curve" smooth="yes"/>
      <point x="229.106" y="696.562"/>
      <point x="181.892" y="697.637"/>
      <point x="137.7" y="699.8" type="curve" smooth="yes"/>
      <point x="97.3" y="701.7"/>
      <point x="66.7" y="673.5"/>
      <point x="66.7" y="634.3" type="curve" smooth="yes"/>
      <point x="66.7" y="598.6"/>
      <point x="92.7" y="572.8"/>
      <point x="131.3" y="570.4" type="curve" smooth="yes"/>
      <point x="177.2" y="567.4"/>
      <point x="234.8" y="567.2"/>
      <point x="302.8" y="569.6" type="curve"/>
      <point x="249.4" y="517.7"/>
      <point x="188.7" y="463.2"/>
      <point x="154.7" y="436.9" type="curve" smooth="yes"/>
      <point x="136" y="422.4"/>
      <point x="126" y="403.6"/>
      <point x="126" y="383.3" type="curve" smooth="yes"/>
      <point x="126" y="341.465"/>
      <point x="163.445" y="310.871"/>
      <point x="205.65" y="310.871" type="curve" smooth="yes"/>
      <point x="216.107" y="310.871"/>
      <point x="226.856" y="312.749"/>
      <point x="237.4" y="316.8" type="curve" smooth="yes"/>
      <point x="264.2" y="327.1"/>
      <point x="290.6" y="339.2"/>
      <point x="319.9" y="339.2" type="curve" smooth="yes"/>
      <point x="374.2" y="339.2"/>
      <point x="413.7" y="296.7"/>
      <point x="413.7" y="238.3" type="curve" smooth="yes"/>
      <point x="413.7" y="170.1"/>
      <point x="362.4" y="119.6"/>
      <point x="293" y="119.6" type="curve" smooth="yes"/>
      <point x="246.1" y="119.6"/>
      <point x="208.4" y="142.1"/>
      <point x="168.6" y="194" type="curve" smooth="yes"/>
      <point x="153.8" y="213.1"/>
      <point x="133.3" y="223.6"/>
      <point x="110.3" y="223.6" type="curve" smooth="yes"/>
      <point x="63.1986" y="223.6"/>
      <point x="30.3527" y="187.125"/>
      <point x="30.3527" y="145.786" type="curve" smooth="yes"/>
      <point x="30.3527" y="132.711"/>
      <point x="33.639" y="119.148"/>
    </contour>
  </outline>
</glyph>
<glyph name="four" format="1">
  <advance width="651"/>
  <unicode hex="0034"/>
  <outline>
    <contour>
      <point x="528.8" y="70.6" type="curve" smooth="yes"/>
      <point x="527.7" y="104.4"/>
      <point x="526.9" y="135.6"/>
      <point x="526.3" y="165.1" type="curve"/>
      <point x="538" y="166.1"/>
      <point x="549.9" y="167.2"/>
      <point x="562" y="168.4" type="curve" smooth="yes"/>
      <point x="599.8" y="171.8"/>
      <point x="625.9" y="198.6"/>
      <point x="625.9" y="234" type="curve" smooth="yes"/>
      <point x="625.9" y="274.4"/>
      <point x="592.7" y="301.3"/>
      <point x="547.7" y="297.3" type="curve" smooth="yes"/>
      <point x="540.4" y="296.6"/>
      <point x="532.7" y="296"/>
      <point x="524.7" y="295.3" type="curve"/>
      <point x="524" y="403.9"/>
      <point x="525.4" y="513.7"/>
      <point x="529" y="629.1" type="curve" smooth="yes"/>
      <point x="530.4" y="672.6"/>
      <point x="494.8" y="705.6"/>
      <point x="446.5" y="705.6" type="curve" smooth="yes"/>
      <point x="414.5" y="705.6"/>
      <point x="385.6" y="690.3"/>
      <point x="368.1" y="664.1" type="curve" smooth="yes"/>
      <point x="260.1" y="502"/>
      <point x="138.8" y="349.9"/>
      <point x="56.2" y="272.5" type="curve" smooth="yes"/>
      <point x="39.8" y="257.1"/>
      <point x="30.9" y="237.5"/>
      <point x="30.9" y="217" type="curve" smooth="yes"/>
      <point x="30.9" y="177.3"/>
      <point x="62.9" y="146.9"/>
      <point x="104.8" y="146.7" type="curve" smooth="yes"/>
      <point x="196.2" y="146.5"/>
      <point x="279.4" y="148.6"/>
      <point x="365.2" y="153.4" type="curve"/>
      <point x="366.4" y="114.5"/>
      <point x="368" y="82.9"/>
      <point x="370" y="60.5" type="curve" smooth="yes"/>
      <point x="373.6" y="21"/>
      <point x="404.3" y="-5.4"/>
      <point x="446.8" y="-5.4" type="curve" smooth="yes"/>
      <point x="494.9" y="-5.4"/>
      <point x="530.2" y="27.3"/>
    </contour>
    <contour>
      <point x="363.4" y="284.3" type="curve"/>
      <point x="317.4" y="281.7"/>
      <point x="276.7" y="279.9"/>
      <point x="241.2" y="278.7" type="curve"/>
      <point x="280.9" y="323.8"/>
      <point x="323.7" y="378.5"/>
      <point x="365.3" y="437.7" type="curve"/>
      <point x="364" y="391.8"/>
      <point x="363.3" y="338.4"/>
    </contour>
  </outline>
</glyph>
<glyph name="five" format="2">
  <advance width="586"/>
  <unicode hex="0035"/>
  <outline>
    <contour>
      <point x="276.2" y="-10.05" type="curve" smooth="yes"/>
      <point x="434.101" y="-10.05"/>
      <point x="546" y="93.7171"/>
      <point x="546" y="240.144" type="curve" smooth="yes"/>
      <point x="546" y="377.201"/>
      <point x="452.391" y="466.3"/>
      <point x="308.397" y="466.3" type="curve" smooth="yes"/>
      <point x="286.84" y="466.3"/>
      <point x="262.664" y="464.422"/>
      <point x="237.529" y="460.795" type="curve"/>
      <point x="242.089" y="498.364"/>
      <point x="245.565" y="536.803"/>
      <point x="247.55" y="569.95" type="curve"/>
      <point x="424" y="569.95" type="line" smooth="yes"/>
      <point x="471.097" y="569.95"/>
      <point x="504.75" y="596.977"/>
      <point x="504.75" y="634.8" type="curve" smooth="yes"/>
      <point x="504.75" y="672.648"/>
      <point x="471.128" y="699.65"/>
      <point x="424" y="699.65" type="curve" smooth="yes"/>
      <point x="178" y="699.65" type="line" smooth="yes"/>
      <point x="127.847" y="699.65"/>
      <point x="95.2389" y="675.086"/>
      <point x="92.2499" y="635.029" type="curve" smooth="yes"/>
      <point x="85.5499" y="545.238"/>
      <point x="80.3999" y="463.55"/>
      <point x="65" y="386.55" type="curve" smooth="yes"/>
      <point x="55.8762" y="340.931"/>
      <point x="89.0642" y="302.9"/>
      <point x="138.05" y="302.9" type="curve" smooth="yes"/>
      <point x="184.1" y="302.9"/>
      <point x="210" y="338"/>
      <point x="274.45" y="338" type="curve" smooth="yes"/>
      <point x="343.202" y="338"/>
      <point x="383.95" y="299.034"/>
      <point x="383.95" y="233.288" type="curve" smooth="yes"/>
      <point x="383.95" y="165.745"/>
      <point x="341.331" y="119.6"/>
      <point x="278.95" y="119.6" type="curve" smooth="yes"/>
      <point x="216.2" y="119.6"/>
      <point x="196.25" y="166.85"/>
      <point x="155.5" y="192.95" type="curve" smooth="yes"/>
      <point x="142.02" y="201.584"/>
      <point x="127.265" y="206.1"/>
      <point x="112.25" y="206.1" type="curve" smooth="yes"/>
      <point x="42.0321" y="206.1"/>
      <point x="16.7869" y="128.433"/>
      <point x="67.95" y="69.85" type="curve" smooth="yes"/>
      <point x="110.704" y="20.8949"/>
      <point x="191.359" y="-10.05"/>
    </contour>
  </outline>
</glyph>
<glyph name="six" format="1">
  <advance width="587"/>
  <unicode hex="0036"/>
  <outline>
    <contour>
      <point x="305" y="-10" type="curve" smooth="yes"/>
      <point x="457" y="-10"/>
      <point x="566" y="87"/>
      <point x="566" y="222" type="curve" smooth="yes"/>
      <point x="566" y="358"/>
      <point x="475" y="454"/>
      <point x="345" y="454" type="curve" smooth="yes"/>
      <point x="310" y="454"/>
      <point x="277" y="447"/>
      <point x="249" y="433" type="curve"/>
      <point x="278" y="480"/>
      <point x="323" y="525"/>
      <point x="392" y="575" type="curve" smooth="yes"/>
      <point x="415" y="592"/>
      <point x="427" y="613"/>
      <point x="427" y="636" type="curve" smooth="yes"/>
      <point x="427" y="678"/>
      <point x="390" y="706"/>
      <point x="349" y="706" type="curve" smooth="yes"/>
      <point x="332" y="706"/>
      <point x="314" y="701"/>
      <point x="297" y="690" type="curve" smooth="yes"/>
      <point x="148" y="593"/>
      <point x="50" y="421"/>
      <point x="50" y="258" type="curve" smooth="yes"/>
      <point x="50" y="94"/>
      <point x="149" y="-10"/>
    </contour>
    <contour>
      <point x="310" y="121" type="curve" smooth="yes"/>
      <point x="254" y="121"/>
      <point x="213" y="165"/>
      <point x="213" y="224" type="curve" smooth="yes"/>
      <point x="213" y="283"/>
      <point x="252" y="323"/>
      <point x="310" y="323" type="curve" smooth="yes"/>
      <point x="366" y="323"/>
      <point x="404" y="283"/>
      <point x="404" y="224" type="curve" smooth="yes"/>
      <point x="404" y="163"/>
      <point x="366" y="121"/>
    </contour>
  </outline>
</glyph>
<glyph name="seven" format="1">
  <advance width="564"/>
  <unicode hex="0037"/>
  <outline>
    <contour>
      <point x="307" y="48" type="curve" smooth="yes"/>
      <point x="351" y="194"/>
      <point x="433" y="389"/>
      <point x="531" y="581" type="curve" smooth="yes"/>
      <point x="540" y="599"/>
      <point x="544" y="615"/>
      <point x="544" y="631" type="curve" smooth="yes"/>
      <point x="544" y="673"/>
      <point x="512" y="702"/>
      <point x="461" y="700" type="curve" smooth="yes"/>
      <point x="402" y="698"/>
      <point x="343" y="696"/>
      <point x="282" y="696" type="curve" smooth="yes"/>
      <point x="220" y="696"/>
      <point x="157" y="698"/>
      <point x="88" y="700" type="curve" smooth="yes"/>
      <point x="46" y="701"/>
      <point x="16" y="674"/>
      <point x="16" y="635" type="curve" smooth="yes"/>
      <point x="16" y="599"/>
      <point x="44" y="572"/>
      <point x="84" y="570" type="curve" smooth="yes"/>
      <point x="161" y="566"/>
      <point x="256" y="565"/>
      <point x="346" y="567" type="curve"/>
      <point x="270" y="415"/>
      <point x="189" y="217"/>
      <point x="154" y="94" type="curve" smooth="yes"/>
      <point x="152" y="86"/>
      <point x="151" y="78"/>
      <point x="151" y="70" type="curve" smooth="yes"/>
      <point x="151" y="27"/>
      <point x="185" y="-8"/>
      <point x="233" y="-8" type="curve" smooth="yes"/>
      <point x="268" y="-8"/>
      <point x="296" y="13"/>
    </contour>
  </outline>
</glyph>
<glyph name="eight" format="1">
  <advance width="622"/>
  <unicode hex="0038"/>
  <outline>
    <contour>
      <point x="311" y="-10" type="curve" smooth="yes"/>
      <point x="461" y="-10"/>
      <point x="561" y="73"/>
      <point x="561" y="199" type="curve" smooth="yes"/>
      <point x="561" y="280"/>
      <point x="518" y="340"/>
      <point x="424" y="390" type="curve"/>
      <point x="499" y="435"/>
      <point x="533" y="481"/>
      <point x="533" y="541" type="curve" smooth="yes"/>
      <point x="533" y="639"/>
      <point x="440" y="710"/>
      <point x="311" y="710" type="curve" smooth="yes"/>
      <point x="181" y="710"/>
      <point x="90" y="635"/>
      <point x="90" y="530" type="curve" smooth="yes"/>
      <point x="90" y="466"/>
      <point x="125" y="417"/>
      <point x="203" y="371" type="curve"/>
      <point x="103" y="318"/>
      <point x="61" y="263"/>
      <point x="61" y="188" type="curve" smooth="yes"/>
      <point x="61" y="73"/>
      <point x="165" y="-10"/>
    </contour>
    <contour>
      <point x="324" y="439" type="curve"/>
      <point x="272" y="466"/>
      <point x="250" y="491"/>
      <point x="250" y="523" type="curve" smooth="yes"/>
      <point x="250" y="556"/>
      <point x="275" y="580"/>
      <point x="310" y="580" type="curve" smooth="yes"/>
      <point x="347" y="580"/>
      <point x="373" y="554"/>
      <point x="373" y="517" type="curve" smooth="yes"/>
      <point x="373" y="488"/>
      <point x="357" y="463"/>
    </contour>
    <contour>
      <point x="313" y="120" type="curve" smooth="yes"/>
      <point x="261" y="120"/>
      <point x="223" y="158"/>
      <point x="223" y="210" type="curve" smooth="yes"/>
      <point x="223" y="252"/>
      <point x="247" y="286"/>
      <point x="299" y="320" type="curve"/>
      <point x="370" y="282"/>
      <point x="399" y="247"/>
      <point x="399" y="203" type="curve" smooth="yes"/>
      <point x="399" y="155"/>
      <point x="364" y="120"/>
    </contour>
  </outline>
</glyph>
<glyph name="nine" format="1">
  <advance width="567"/>
  <unicode hex="0039"/>
  <outline>
    <contour>
      <point x="290" y="10.9" type="curve" smooth="yes"/>
      <point x="438.3" y="107.7"/>
      <point x="536.2" y="279.1"/>
      <point x="536.2" y="442.1" type="curve" smooth="yes"/>
      <point x="536.2" y="606.3"/>
      <point x="437.3" y="710.4"/>
      <point x="281.5" y="710.4" type="curve" smooth="yes"/>
      <point x="129.6" y="710.4"/>
      <point x="20.4" y="613.4"/>
      <point x="20.4" y="478.6" type="curve" smooth="yes"/>
      <point x="20.4" y="342.1"/>
      <point x="111.2" y="246.9"/>
      <point x="241.5" y="246.9" type="curve" smooth="yes"/>
      <point x="276.3" y="246.9"/>
      <point x="309" y="253.8"/>
      <point x="338" y="267.2" type="curve"/>
      <point x="309" y="220.9"/>
      <point x="263.1" y="175.6"/>
      <point x="194.7" y="125.7" type="curve" smooth="yes"/>
      <point x="170.91" y="108.333"/>
      <point x="160.118" y="85.1447"/>
      <point x="160.118" y="63.0687" type="curve" smooth="yes"/>
      <point x="160.118" y="27.0549"/>
      <point x="188.839" y="-6"/>
      <point x="236.7" y="-6" type="curve" smooth="yes"/>
      <point x="254.7" y="-6"/>
      <point x="272.9" y="-0.2"/>
    </contour>
    <contour>
      <point x="276.8" y="377.6" type="curve" smooth="yes"/>
      <point x="220.3" y="377.6"/>
      <point x="182.4" y="417.3"/>
      <point x="182.4" y="476.5" type="curve" smooth="yes"/>
      <point x="182.4" y="537.3"/>
      <point x="221" y="579.8"/>
      <point x="276.3" y="579.8" type="curve" smooth="yes"/>
      <point x="332.6" y="579.8"/>
      <point x="373.6" y="535.9"/>
      <point x="373.6" y="476" type="curve" smooth="yes"/>
      <point x="373.6" y="417.1"/>
      <point x="334.8" y="377.6"/>
    </contour>
  </outline>
</glyph>
<glyph name="colon" format="1">
  <advance width="256"/>
  <unicode hex="003A"/>
  <outline>
    <contour>
      <point x="134.5" y="290.5" type="curve" smooth="yes"/>
      <point x="194" y="290.5"/>
      <point x="230.8" y="318.8"/>
      <point x="230.8" y="364.4" type="curve" smooth="yes"/>
      <point x="230.8" y="410.7"/>
      <point x="193.5" y="440"/>
      <point x="134.5" y="440" type="curve" smooth="yes"/>
      <point x="77.1" y="440"/>
      <point x="40.1" y="410.4"/>
      <point x="40.1" y="364.4" type="curve" smooth="yes"/>
      <point x="40.1" y="319"/>
      <point x="76.5" y="290.5"/>
    </contour>
    <contour>
      <point x="134.5" y="-10.2" type="curve" smooth="yes"/>
      <point x="194" y="-10.2"/>
      <point x="230.8" y="18.1"/>
      <point x="230.8" y="63.7" type="curve" smooth="yes"/>
      <point x="230.8" y="110.1"/>
      <point x="193.5" y="139.4"/>
      <point x="134.5" y="139.4" type="curve" smooth="yes"/>
      <point x="77.1" y="139.4"/>
      <point x="40.1" y="109.8"/>
      <point x="40.1" y="63.7" type="curve" smooth="yes"/>
      <point x="40.1" y="18.3"/>
      <point x="76.5" y="-10.2"/>
    </contour>
  </outline>
</glyph>
<glyph name="semicolon" format="1">
  <advance width="258"/>
  <unicode hex="003B"/>
  <outline>
    <contour>
      <point x="136" y="290.5" type="curve" smooth="yes"/>
      <point x="195.4" y="290.5"/>
      <point x="232.3" y="318.8"/>
      <point x="232.3" y="364.4" type="curve" smooth="yes"/>
      <point x="232.3" y="410.7"/>
      <point x="195" y="440"/>
      <point x="136" y="440" type="curve" smooth="yes"/>
      <point x="78.5" y="440"/>
      <point x="41.6" y="410.4"/>
      <point x="41.6" y="364.4" type="curve" smooth="yes"/>
      <point x="41.6" y="319"/>
      <point x="78" y="290.5"/>
    </contour>
    <contour>
      <point x="174.9" y="-152.2" type="curve" smooth="yes"/>
      <point x="202" y="-110.4"/>
      <point x="217.9" y="-56.3"/>
      <point x="217.3" y="-8.6" type="curve" smooth="yes"/>
      <point x="216.6" y="38.3"/>
      <point x="183.6" y="70.5"/>
      <point x="136.3" y="70.5" type="curve" smooth="yes"/>
      <point x="92.3" y="70.5"/>
      <point x="59.7" y="42.4"/>
      <point x="59.7" y="4.4" type="curve" smooth="yes"/>
      <point x="59.7" y="-31.5"/>
      <point x="54.3" y="-68.3"/>
      <point x="44.5" y="-98" type="curve" smooth="yes"/>
      <point x="41.8577" y="-106.03"/>
      <point x="40.6108" y="-113.951"/>
      <point x="40.6108" y="-121.564" type="curve" smooth="yes"/>
      <point x="40.6108" y="-158.321"/>
      <point x="69.6788" y="-187.9"/>
      <point x="111.1" y="-187.9" type="curve" smooth="yes"/>
      <point x="137" y="-187.9"/>
      <point x="160.2" y="-175"/>
    </contour>
  </outline>
</glyph>
<glyph name="less" format="1">
  <advance width="492"/>
  <unicode hex="003C"/>
  <outline>
    <contour>
      <point x="325" y="43" type="line" smooth="yes"/>
      <point x="344" y="32"/>
      <point x="362" y="26"/>
      <point x="379" y="26" type="curve" smooth="yes"/>
      <point x="443" y="26"/>
      <point x="470" y="110"/>
      <point x="399" y="150" type="curve" smooth="yes"/>
      <point x="204" y="262" type="line"/>
      <point x="279" y="301"/>
      <point x="327" y="328"/>
      <point x="398" y="374" type="curve" smooth="yes"/>
      <point x="474" y="422"/>
      <point x="439" y="501"/>
      <point x="379" y="501" type="curve" smooth="yes"/>
      <point x="363" y="501"/>
      <point x="346" y="496"/>
      <point x="331" y="485" type="curve" smooth="yes"/>
      <point x="237" y="420"/>
      <point x="179" y="383"/>
      <point x="66" y="318" type="curve" smooth="yes"/>
      <point x="44" y="305"/>
      <point x="31" y="285"/>
      <point x="31" y="263" type="curve" smooth="yes"/>
      <point x="31" y="240"/>
      <point x="44" y="220"/>
      <point x="66" y="206" type="curve" smooth="yes"/>
    </contour>
  </outline>
</glyph>
<glyph name="equal" format="1">
  <advance width="485"/>
  <unicode hex="003D"/>
  <outline>
    <contour>
      <point x="394" y="284" type="curve" smooth="yes"/>
      <point x="430" y="288"/>
      <point x="455" y="314"/>
      <point x="455" y="348" type="curve" smooth="yes"/>
      <point x="455" y="389"/>
      <point x="422" y="417"/>
      <point x="379" y="413" type="curve" smooth="yes"/>
      <point x="272" y="402"/>
      <point x="199" y="399"/>
      <point x="114" y="402" type="curve" smooth="yes"/>
      <point x="71" y="403"/>
      <point x="41" y="375"/>
      <point x="41" y="337" type="curve" smooth="yes"/>
      <point x="41" y="300"/>
      <point x="69" y="273"/>
      <point x="111" y="272" type="curve" smooth="yes"/>
      <point x="203" y="269"/>
      <point x="302" y="273"/>
    </contour>
    <contour>
      <point x="394" y="82" type="curve" smooth="yes"/>
      <point x="430" y="86"/>
      <point x="455" y="112"/>
      <point x="455" y="146" type="curve" smooth="yes"/>
      <point x="455" y="187"/>
      <point x="422" y="215"/>
      <point x="379" y="210" type="curve" smooth="yes"/>
      <point x="272" y="200"/>
      <point x="199" y="197"/>
      <point x="114" y="199" type="curve" smooth="yes"/>
      <point x="71" y="201"/>
      <point x="41" y="173"/>
      <point x="41" y="134" type="curve" smooth="yes"/>
      <point x="41" y="97"/>
      <point x="69" y="70"/>
      <point x="111" y="69" type="curve" smooth="yes"/>
      <point x="203" y="67"/>
      <point x="302" y="71"/>
    </contour>
  </outline>
</glyph>
<glyph name="greater" format="1">
  <advance width="492"/>
  <unicode hex="003E"/>
  <outline>
    <contour>
      <point x="166.9" y="43.2" type="curve" smooth="yes"/>
      <point x="426.2" y="205.6" type="line" smooth="yes"/>
      <point x="448.5" y="219.6"/>
      <point x="461.5" y="240.5"/>
      <point x="461.5" y="262.5" type="curve" smooth="yes"/>
      <point x="461.5" y="284.6"/>
      <point x="448.6" y="304.8"/>
      <point x="426.1" y="317.7" type="curve" smooth="yes"/>
      <point x="313.2" y="382.6"/>
      <point x="254.9" y="419.4"/>
      <point x="161.4" y="484.7" type="curve" smooth="yes"/>
      <point x="145.7" y="495.6"/>
      <point x="129.3" y="501.3"/>
      <point x="113.3" y="501.3" type="curve" smooth="yes"/>
      <point x="77.8105" y="501.3"/>
      <point x="51.0081" y="473.289"/>
      <point x="51.0081" y="440.47" type="curve" smooth="yes"/>
      <point x="51.0081" y="418.174"/>
      <point x="63.3787" y="393.658"/>
      <point x="93.8" y="374.2" type="curve" smooth="yes"/>
      <point x="165.2" y="328.5"/>
      <point x="213.2" y="300.7"/>
      <point x="287.6" y="261.7" type="curve"/>
      <point x="92.7" y="150.4" type="line" smooth="yes"/>
      <point x="63.4685" y="133.684"/>
      <point x="50.9736" y="109.292"/>
      <point x="50.9736" y="86.4973" type="curve" smooth="yes"/>
      <point x="50.9736" y="54.472"/>
      <point x="75.6367" y="25.6"/>
      <point x="113.2" y="25.6" type="curve" smooth="yes"/>
      <point x="130.2" y="25.6"/>
      <point x="148.5" y="31.6"/>
    </contour>
  </outline>
</glyph>
<glyph name="question" format="1">
  <advance width="474"/>
  <unicode hex="003F"/>
  <outline>
    <contour>
      <point x="297.1" y="242.7" type="curve" smooth="yes"/>
      <point x="297.1" y="381.8"/>
      <point x="443.5" y="418.5"/>
      <point x="443.5" y="543.6" type="curve" smooth="yes"/>
      <point x="443.5" y="638"/>
      <point x="353.6" y="709.8"/>
      <point x="235.6" y="709.8" type="curve" smooth="yes"/>
      <point x="160.3" y="709.8"/>
      <point x="93.6" y="680.6"/>
      <point x="50" y="628.3" type="curve" smooth="yes"/>
      <point x="36.8822" y="612.657"/>
      <point x="30.9424" y="595.175"/>
      <point x="30.9424" y="578.469" type="curve" smooth="yes"/>
      <point x="30.9424" y="540.923"/>
      <point x="60.9464" y="507.3"/>
      <point x="106.9" y="507.3" type="curve" smooth="yes"/>
      <point x="128.6" y="507.3"/>
      <point x="148" y="516.8"/>
      <point x="162.4" y="534.4" type="curve" smooth="yes"/>
      <point x="189.2" y="567.1"/>
      <point x="208.6" y="580"/>
      <point x="230.7" y="580" type="curve" smooth="yes"/>
      <point x="260.4" y="580"/>
      <point x="281.4" y="555.9"/>
      <point x="281.4" y="521.8" type="curve" smooth="yes"/>
      <point x="281.4" y="434.3"/>
      <point x="136" y="380.4"/>
      <point x="136" y="242.7" type="curve" smooth="yes"/>
      <point x="136" y="198.6"/>
      <point x="169.3" y="167.4"/>
      <point x="216.1" y="167.4" type="curve" smooth="yes"/>
      <point x="263.2" y="167.4"/>
      <point x="297.1" y="198.9"/>
    </contour>
    <contour>
      <point x="215.9" y="-10.5" type="curve" smooth="yes"/>
      <point x="275.3" y="-10.5"/>
      <point x="312.2" y="17.8"/>
      <point x="312.2" y="63.4" type="curve" smooth="yes"/>
      <point x="312.2" y="109.8"/>
      <point x="274.9" y="139"/>
      <point x="215.9" y="139" type="curve" smooth="yes"/>
      <point x="158.4" y="139"/>
      <point x="121.5" y="109.4"/>
      <point x="121.5" y="63.4" type="curve" smooth="yes"/>
      <point x="121.5" y="18"/>
      <point x="157.9" y="-10.5"/>
    </contour>
  </outline>
</glyph>
<glyph name="at" format="1">
  <advance width="876"/>
  <unicode hex="0040"/>
  <outline>
    <contour>
      <point x="622" y="-115" type="curve" smooth="yes"/>
      <point x="645" y="-99"/>
      <point x="657" y="-82"/>
      <point x="657" y="-64" type="curve" smooth="yes"/>
      <point x="657" y="-24"/>
      <point x="615" y="-1"/>
      <point x="577" y="-21" type="curve" smooth="yes"/>
      <point x="532" y="-43"/>
      <point x="481" y="-55"/>
      <point x="423" y="-55" type="curve" smooth="yes"/>
      <point x="262" y="-55"/>
      <point x="152" y="56"/>
      <point x="152" y="218" type="curve" smooth="yes"/>
      <point x="152" y="392"/>
      <point x="294" y="531"/>
      <point x="473" y="531" type="curve" smooth="yes"/>
      <point x="622" y="531"/>
      <point x="720" y="433"/>
      <point x="720" y="284" type="curve" smooth="yes"/>
      <point x="720" y="202"/>
      <point x="690" y="120"/>
      <point x="660" y="120" type="curve" smooth="yes"/>
      <point x="622" y="120"/>
      <point x="621" y="244"/>
      <point x="644" y="358" type="curve" smooth="yes"/>
      <point x="655" y="409"/>
      <point x="637" y="442"/>
      <point x="594" y="453" type="curve" smooth="yes"/>
      <point x="561" y="460"/>
      <point x="526" y="465"/>
      <point x="496" y="465" type="curve" smooth="yes"/>
      <point x="340" y="465"/>
      <point x="221" y="359"/>
      <point x="221" y="221" type="curve" smooth="yes"/>
      <point x="221" y="106"/>
      <point x="309" y="14"/>
      <point x="419" y="14" type="curve" smooth="yes"/>
      <point x="463" y="14"/>
      <point x="504" y="28"/>
      <point x="549" y="57" type="curve"/>
      <point x="572" y="29"/>
      <point x="604" y="14"/>
      <point x="643" y="14" type="curve" smooth="yes"/>
      <point x="757" y="14"/>
      <point x="846" y="135"/>
      <point x="846" y="290" type="curve" smooth="yes"/>
      <point x="846" y="498"/>
      <point x="695" y="637"/>
      <point x="470" y="637" type="curve" smooth="yes"/>
      <point x="212" y="637"/>
      <point x="26" y="461"/>
      <point x="26" y="218" type="curve" smooth="yes"/>
      <point x="26" y="-6"/>
      <point x="188" y="-160"/>
      <point x="424" y="-160" type="curve" smooth="yes"/>
      <point x="505" y="-160"/>
      <point x="579" y="-143"/>
    </contour>
    <contour>
      <point x="511" y="138" type="curve"/>
      <point x="492" y="123"/>
      <point x="470" y="115"/>
      <point x="447" y="115" type="curve" smooth="yes"/>
      <point x="390" y="115"/>
      <point x="347" y="162"/>
      <point x="347" y="224" type="curve" smooth="yes"/>
      <point x="347" y="304"/>
      <point x="403" y="361"/>
      <point x="483" y="361" type="curve" smooth="yes"/>
      <point x="494" y="361"/>
      <point x="505" y="360"/>
      <point x="517" y="358" type="curve"/>
      <point x="500" y="272"/>
      <point x="498" y="197"/>
    </contour>
  </outline>
</glyph>
<glyph name="A" format="1">
  <advance width="699"/>
  <unicode hex="0041"/>
  <outline>
    <contour>
      <point x="690" y="107.4" type="curve" smooth="yes"/>
      <point x="584.7" y="328.7"/>
      <point x="533.2" y="447.8"/>
      <point x="457.4" y="646.5" type="curve" smooth="yes"/>
      <point x="441.2" y="689"/>
      <point x="402.9" y="715.8"/>
      <point x="358.8" y="715.8" type="curve" smooth="yes"/>
      <point x="312.5" y="715.8"/>
      <point x="274.8" y="686.5"/>
      <point x="263" y="641.3" type="curve" smooth="yes"/>
      <point x="228.5" y="509.3"/>
      <point x="195.5" y="403"/>
      <point x="152.5" y="285.5" type="curve"/>
      <point x="135.9" y="286.1"/>
      <point x="119.3" y="286.8"/>
      <point x="102.7" y="287.8" type="curve" smooth="yes"/>
      <point x="60.9" y="290.1"/>
      <point x="30.8" y="262.9"/>
      <point x="30.8" y="222.8" type="curve" smooth="yes"/>
      <point x="30.8" y="178.474"/>
      <point x="61.7773" y="156.56"/>
      <point x="102.7" y="154.7" type="curve"/>
      <point x="95.1" y="135.2"/>
      <point x="86.6" y="113.4"/>
      <point x="75.4" y="85.1" type="curve" smooth="yes"/>
      <point x="71.0026" y="73.9865"/>
      <point x="68.9424" y="62.9848"/>
      <point x="68.9424" y="52.4943" type="curve" smooth="yes"/>
      <point x="68.9424" y="10.5018"/>
      <point x="101.953" y="-23.3"/>
      <point x="150.2" y="-23.3" type="curve" smooth="yes"/>
      <point x="184.7" y="-23.3"/>
      <point x="212.9" y="-3.2"/>
      <point x="225.9" y="30.7" type="curve" smooth="yes"/>
      <point x="243.1" y="75.7"/>
      <point x="257.6" y="115.4"/>
      <point x="270.5" y="152.7" type="curve"/>
      <point x="346.9" y="154.3"/>
      <point x="419.6" y="159.5"/>
      <point x="489.6" y="168.4" type="curve"/>
      <point x="502.5" y="136.7"/>
      <point x="517.1" y="101.4"/>
      <point x="541.7" y="41.8" type="curve" smooth="yes"/>
      <point x="554.3" y="11.3"/>
      <point x="581" y="-6.5"/>
      <point x="613.9" y="-6.5" type="curve" smooth="yes"/>
      <point x="664.315" y="-6.5"/>
      <point x="698.7" y="28.2904"/>
      <point x="698.7" y="70.4312" type="curve" smooth="yes"/>
      <point x="698.7" y="82.372"/>
      <point x="695.939" y="94.9031"/>
    </contour>
    <contour>
      <point x="440.3" y="293" type="curve"/>
      <point x="396.7" y="289.3"/>
      <point x="354.3" y="286.7"/>
      <point x="312.7" y="285.3" type="curve"/>
      <point x="330" y="345.2"/>
      <point x="346.4" y="409.8"/>
      <point x="366.6" y="497.5" type="curve"/>
      <point x="392.4" y="421.9"/>
      <point x="415.4" y="357.9"/>
    </contour>
    <contour>
      <point x="360" y="730" type="move" name="top"/>
    </contour>
  </outline>
</glyph>
<glyph name="B" format="1">
  <advance width="601"/>
  <unicode hex="0042"/>
  <outline>
    <contour>
      <point x="217" y="-6" type="curve" smooth="yes"/>
      <point x="431" y="-6"/>
      <point x="570" y="77"/>
      <point x="570" y="206" type="curve" smooth="yes"/>
      <point x="570" y="284"/>
      <point x="510" y="352"/>
      <point x="424" y="371" type="curve"/>
      <point x="493" y="400"/>
      <point x="535" y="457"/>
      <point x="535" y="521" type="curve" smooth="yes"/>
      <point x="535" y="641"/>
      <point x="415" y="706"/>
      <point x="194" y="706" type="curve" smooth="yes"/>
      <point x="107" y="706"/>
      <point x="58" y="665"/>
      <point x="62" y="595" type="curve" smooth="yes"/>
      <point x="68" y="474"/>
      <point x="68" y="288"/>
      <point x="61" y="108" type="curve" smooth="yes"/>
      <point x="58" y="30"/>
      <point x="108" y="-7"/>
    </contour>
    <contour>
      <point x="226" y="421" type="curve"/>
      <point x="225" y="473"/>
      <point x="224" y="525"/>
      <point x="221" y="576" type="curve"/>
      <point x="307" y="585"/>
      <point x="374" y="556"/>
      <point x="374" y="509" type="curve" smooth="yes"/>
      <point x="374" y="454"/>
      <point x="316" y="419"/>
    </contour>
    <contour>
      <point x="221" y="124" type="curve"/>
      <point x="224" y="182"/>
      <point x="225" y="238"/>
      <point x="226" y="294" type="curve"/>
      <point x="332" y="301"/>
      <point x="408" y="267"/>
      <point x="408" y="212" type="curve" smooth="yes"/>
      <point x="408" y="159"/>
      <point x="337" y="126"/>
    </contour>
  </outline>
</glyph>
<glyph name="C" format="1">
  <advance width="619"/>
  <unicode hex="0043"/>
  <outline>
    <contour>
      <point x="348.5" y="-10.1" type="curve" smooth="yes"/>
      <point x="462.5" y="-10.1"/>
      <point x="555.6" y="40.7"/>
      <point x="582.7" y="117.8" type="curve" smooth="yes"/>
      <point x="586.937" y="129.9"/>
      <point x="588.939" y="141.635"/>
      <point x="588.939" y="152.623" type="curve" smooth="yes"/>
      <point x="588.939" y="193.756"/>
      <point x="560.88" y="224.4"/>
      <point x="517" y="224.4" type="curve" smooth="yes"/>
      <point x="493" y="224.4"/>
      <point x="469.9" y="213.9"/>
      <point x="453.1" y="195.3" type="curve" smooth="yes"/>
      <point x="425.4" y="164.6"/>
      <point x="420.8" y="119.6"/>
      <point x="352.5" y="119.6" type="curve" smooth="yes"/>
      <point x="257.3" y="119.6"/>
      <point x="192.4" y="216.9"/>
      <point x="192.4" y="359.8" type="curve" smooth="yes"/>
      <point x="192.4" y="490.7"/>
      <point x="252.5" y="580"/>
      <point x="340.4" y="580" type="curve" smooth="yes"/>
      <point x="379.6" y="580"/>
      <point x="414.6" y="562.7"/>
      <point x="436.2" y="532.5" type="curve" smooth="yes"/>
      <point x="454.2" y="507.3"/>
      <point x="480.2" y="493"/>
      <point x="508.1" y="493" type="curve" smooth="yes"/>
      <point x="552.482" y="493"/>
      <point x="579.461" y="522.601"/>
      <point x="579.461" y="559.922" type="curve" smooth="yes"/>
      <point x="579.461" y="577.091"/>
      <point x="573.751" y="595.893"/>
      <point x="561.4" y="614.2" type="curve" smooth="yes"/>
      <point x="521.8" y="672.9"/>
      <point x="436.6" y="709.7"/>
      <point x="340.5" y="709.7" type="curve" smooth="yes"/>
      <point x="156.1" y="709.7"/>
      <point x="30.3" y="564.8"/>
      <point x="30.3" y="352.3" type="curve" smooth="yes"/>
      <point x="30.3" y="137.3"/>
      <point x="159.7" y="-10.1"/>
    </contour>
    <contour>
      <point x="335" y="0" type="move" name="bottom"/>
    </contour>
    <contour>
      <point x="341" y="730" type="move" name="top"/>
    </contour>
  </outline>
</glyph>
<glyph name="D" format="1">
  <advance width="612"/>
  <unicode hex="0044"/>
  <outline>
    <contour>
      <point x="165.2" y="-6.1" type="curve" smooth="yes"/>
      <point x="402.7" y="-6.1"/>
      <point x="581.4" y="150.2"/>
      <point x="581.4" y="357.9" type="curve" smooth="yes"/>
      <point x="581.4" y="561.9"/>
      <point x="407.4" y="705.7"/>
      <point x="160.4" y="705.7" type="curve" smooth="yes"/>
      <point x="93.9" y="705.7"/>
      <point x="56.6" y="669.3"/>
      <point x="60.4" y="608.2" type="curve" smooth="yes"/>
      <point x="65.85" y="519.45"/>
      <point x="68.575" y="429.025"/>
      <point x="68.575" y="340.263" type="curve" smooth="yes"/>
      <point x="68.575" y="251.5"/>
      <point x="65.85" y="164.4"/>
      <point x="60.4" y="82.3" type="curve" smooth="yes"/>
      <point x="57.1" y="33.2"/>
      <point x="103.6" y="-6.1"/>
    </contour>
    <contour>
      <point x="223.7" y="127.7" type="curve"/>
      <point x="227.138" y="199.292"/>
      <point x="228.863" y="271.752"/>
      <point x="228.863" y="345.279" type="curve" smooth="yes"/>
      <point x="228.863" y="419.336"/>
      <point x="227.113" y="494.476"/>
      <point x="223.6" y="570.9" type="curve"/>
      <point x="343.6" y="549.4"/>
      <point x="419.3" y="466.7"/>
      <point x="419.3" y="357" type="curve" smooth="yes"/>
      <point x="419.3" y="246.1"/>
      <point x="340.5" y="153.7"/>
    </contour>
    <contour>
      <point x="145" y="350" type="move" name="left"/>
    </contour>
    <contour>
      <point x="280" y="730" type="move" name="top"/>
    </contour>
  </outline>
</glyph>
<glyph name="E" format="1">
  <advance width="543"/>
  <unicode hex="0045"/>
  <outline>
    <contour>
      <point x="433.2" y="575.5" type="curve" smooth="yes"/>
      <point x="473.2" y="579.8"/>
      <point x="499.6" y="605.8"/>
      <point x="499.6" y="641" type="curve" smooth="yes"/>
      <point x="499.6" y="680.5"/>
      <point x="467.3" y="708.5"/>
      <point x="425.7" y="705" type="curve" smooth="yes"/>
      <point x="344.5" y="698.3"/>
      <point x="250.8" y="696.6"/>
      <point x="137.2" y="699.7" type="curve" smooth="yes"/>
      <point x="136.197" y="699.729"/>
      <point x="135.202" y="699.743"/>
      <point x="134.214" y="699.743" type="curve" smooth="yes"/>
      <point x="90.0236" y="699.743"/>
      <point x="60.7423" y="671.072"/>
      <point x="60.7423" y="628.727" type="curve" smooth="yes"/>
      <point x="60.7423" y="626.038"/>
      <point x="60.8603" y="623.295"/>
      <point x="61.1" y="620.5" type="curve" smooth="yes"/>
      <point x="70.1816" y="517.148"/>
      <point x="74.7311" y="413.454"/>
      <point x="74.7311" y="312.843" type="curve" smooth="yes"/>
      <point x="74.7311" y="232.874"/>
      <point x="71.857" y="154.853"/>
      <point x="66.1" y="80.5" type="curve" smooth="yes"/>
      <point x="62.4" y="31.9"/>
      <point x="89.9" y="2.5"/>
      <point x="142.3" y="-0.8" type="curve" smooth="yes"/>
      <point x="249.2" y="-7.3"/>
      <point x="352.6" y="-3"/>
      <point x="437.5" y="11.6" type="curve" smooth="yes"/>
      <point x="476.9" y="18.4"/>
      <point x="502.1" y="44.2"/>
      <point x="502.1" y="77.6" type="curve" smooth="yes"/>
      <point x="502.1" y="118.6"/>
      <point x="466" y="146.4"/>
      <point x="421.5" y="139.5" type="curve" smooth="yes"/>
      <point x="359.5" y="129.9"/>
      <point x="295.4" y="125.3"/>
      <point x="229.3" y="125.7" type="curve"/>
      <point x="232.3" y="178.2"/>
      <point x="233.9" y="232"/>
      <point x="234.2" y="287.3" type="curve"/>
      <point x="300.7" y="288.5"/>
      <point x="362.6" y="293.2"/>
      <point x="408.7" y="300.3" type="curve" smooth="yes"/>
      <point x="446" y="306.1"/>
      <point x="470.5" y="332.4"/>
      <point x="470.5" y="366.6" type="curve" smooth="yes"/>
      <point x="470.5" y="407.6"/>
      <point x="437" y="434.9"/>
      <point x="394.2" y="428.9" type="curve" smooth="yes"/>
      <point x="345.4" y="422.1"/>
      <point x="290.8" y="418.2"/>
      <point x="232.6" y="417.5" type="curve"/>
      <point x="231" y="467.5"/>
      <point x="228.6" y="519.3"/>
      <point x="225.3" y="569.3" type="curve"/>
      <point x="312.8" y="567.9"/>
      <point x="380.2" y="570"/>
    </contour>
    <contour>
      <point x="291" y="730" type="move" name="top"/>
    </contour>
  </outline>
</glyph>
<glyph name="F" format="1">
  <advance width="534"/>
  <unicode hex="0046"/>
  <outline>
    <contour>
      <point x="426.5" y="575" type="curve" smooth="yes"/>
      <point x="466.3" y="579.1"/>
      <point x="493.6" y="606.4"/>
      <point x="493.6" y="641.9" type="curve" smooth="yes"/>
      <point x="493.6" y="681.5"/>
      <point x="460.6" y="708"/>
      <point x="416" y="704.4" type="curve" smooth="yes"/>
      <point x="333.2" y="697.5"/>
      <point x="248.1" y="696.1"/>
      <point x="139.4" y="699.7" type="curve" smooth="yes"/>
      <point x="138.237" y="699.74"/>
      <point x="137.084" y="699.76"/>
      <point x="135.939" y="699.76" type="curve" smooth="yes"/>
      <point x="90.9715" y="699.76"/>
      <point x="60.03" y="669.3"/>
      <point x="60.03" y="625.918" type="curve" smooth="yes"/>
      <point x="60.03" y="623.195"/>
      <point x="60.152" y="620.421"/>
      <point x="60.4" y="617.6" type="curve" smooth="yes"/>
      <point x="69.2438" y="516.583"/>
      <point x="73.6822" y="413.907"/>
      <point x="73.6822" y="313.482" type="curve" smooth="yes"/>
      <point x="73.6822" y="231.085"/>
      <point x="70.6943" y="150.204"/>
      <point x="64.7" y="73" type="curve" smooth="yes"/>
      <point x="61.5" y="30.8"/>
      <point x="95.9" y="-1"/>
      <point x="144.8" y="-1" type="curve" smooth="yes"/>
      <point x="189.1" y="-1"/>
      <point x="221.3" y="25.9"/>
      <point x="224.4" y="65.4" type="curve" smooth="yes"/>
      <point x="229.6" y="129.8"/>
      <point x="232.7" y="207.2"/>
      <point x="233.2" y="284" type="curve"/>
      <point x="298.8" y="284.9"/>
      <point x="362.4" y="290.9"/>
      <point x="412.7" y="301.1" type="curve" smooth="yes"/>
      <point x="447" y="308"/>
      <point x="469.4" y="333.9"/>
      <point x="469.4" y="366.5" type="curve" smooth="yes"/>
      <point x="469.4" y="408.7"/>
      <point x="433.9" y="435.7"/>
      <point x="388.4" y="428.3" type="curve" smooth="yes"/>
      <point x="338.8" y="420.1"/>
      <point x="285.3" y="415.1"/>
      <point x="231.7" y="413.5" type="curve"/>
      <point x="230.2" y="463.8"/>
      <point x="227.7" y="516"/>
      <point x="224.3" y="568.3" type="curve"/>
      <point x="303.1" y="567"/>
      <point x="373.1" y="569.3"/>
    </contour>
  </outline>
</glyph>
<glyph name="G" format="1">
  <advance width="638"/>
  <unicode hex="0047"/>
  <outline>
    <contour>
      <point x="595.9" y="74.9" type="curve" smooth="yes"/>
      <point x="584.3" y="137.5"/>
      <point x="579.5" y="207.3"/>
      <point x="579.5" y="315.1" type="curve" smooth="yes"/>
      <point x="579.5" y="360.5"/>
      <point x="543.6" y="383.2"/>
      <point x="507.7" y="383.2" type="curve" smooth="yes"/>
      <point x="471.9" y="383.2"/>
      <point x="436.1" y="360.6"/>
      <point x="436.1" y="315.5" type="curve" smooth="yes"/>
      <point x="436.1" y="201.6"/>
      <point x="386" y="120.2"/>
      <point x="316" y="120.2" type="curve" smooth="yes"/>
      <point x="242.3" y="120.2"/>
      <point x="192.4" y="212.8"/>
      <point x="192.4" y="349.4" type="curve" smooth="yes"/>
      <point x="192.4" y="488.9"/>
      <point x="244" y="580.4"/>
      <point x="322.8" y="580.4" type="curve" smooth="yes"/>
      <point x="361.2" y="580.4"/>
      <point x="397.9" y="558.2"/>
      <point x="429.8" y="515.7" type="curve" smooth="yes"/>
      <point x="446.6" y="493.2"/>
      <point x="469.8" y="480.7"/>
      <point x="494.6" y="480.7" type="curve" smooth="yes"/>
      <point x="536.048" y="480.7"/>
      <point x="563.737" y="511.35"/>
      <point x="563.737" y="548.591" type="curve" smooth="yes"/>
      <point x="563.737" y="560.228"/>
      <point x="561.033" y="572.51"/>
      <point x="555.2" y="584.7" type="curve" smooth="yes"/>
      <point x="519.6" y="658.8"/>
      <point x="424" y="709.7"/>
      <point x="320.4" y="709.7" type="curve" smooth="yes"/>
      <point x="145.9" y="709.7"/>
      <point x="30.3" y="565.4"/>
      <point x="30.3" y="347.8" type="curve" smooth="yes"/>
      <point x="30.3" y="134.7"/>
      <point x="137" y="-10.1"/>
      <point x="294.1" y="-10.1" type="curve" smooth="yes"/>
      <point x="363.2" y="-10.1"/>
      <point x="414.3" y="18"/>
      <point x="449.7" y="75.1" type="curve"/>
      <point x="457.241" y="28.9123"/>
      <point x="468.355" y="-6.3"/>
      <point x="525.7" y="-6.3" type="curve" smooth="yes"/>
      <point x="573" y="-6.3"/>
      <point x="604.3" y="29.9"/>
    </contour>
    <contour>
      <point x="298" y="0" type="move" name="bottom"/>
    </contour>
    <contour>
      <point x="322" y="730" type="move" name="top"/>
    </contour>
  </outline>
</glyph>
<glyph name="H" format="1">
  <advance width="758"/>
  <unicode hex="0048"/>
  <outline>
    <contour>
      <point x="697.7" y="64.7" type="curve" smooth="yes"/>
      <point x="693.001" y="176.767"/>
      <point x="690.672" y="289.576"/>
      <point x="690.672" y="401.908" type="curve" smooth="yes"/>
      <point x="690.672" y="478.422"/>
      <point x="691.753" y="554.715"/>
      <point x="693.9" y="630.4" type="curve" smooth="yes"/>
      <point x="695.2" y="677.6"/>
      <point x="661.5" y="711.8"/>
      <point x="613.5" y="711.8" type="curve" smooth="yes"/>
      <point x="566.2" y="711.8"/>
      <point x="532.5" y="678.5"/>
      <point x="532.5" y="631.7" type="curve" smooth="yes"/>
      <point x="532.5" y="562.8"/>
      <point x="532.9" y="489.5"/>
      <point x="533.8" y="388.8" type="curve"/>
      <point x="445.6" y="377.9"/>
      <point x="363.8" y="371.4"/>
      <point x="288.5" y="369.3" type="curve"/>
      <point x="287.1" y="459.9"/>
      <point x="281.8" y="550.8"/>
      <point x="272.8" y="640.2" type="curve" smooth="yes"/>
      <point x="268.6" y="681.7"/>
      <point x="235.9" y="710.6"/>
      <point x="193.1" y="710.6" type="curve" smooth="yes"/>
      <point x="141.5" y="710.6"/>
      <point x="107.8" y="670"/>
      <point x="113.4" y="614.7" type="curve" smooth="yes"/>
      <point x="122.3" y="526.6"/>
      <point x="127.3" y="448.5"/>
      <point x="128.9" y="373" type="curve"/>
      <point x="126.3" y="373.1"/>
      <point x="123.8" y="372.5"/>
      <point x="105.7" y="372.5" type="curve" smooth="yes"/>
      <point x="55.6" y="372.5"/>
      <point x="30.8" y="339"/>
      <point x="30.8" y="305.4" type="curve" smooth="yes"/>
      <point x="30.8" y="272.4"/>
      <point x="54.6" y="239.4"/>
      <point x="101.8" y="237.9" type="curve" smooth="yes"/>
      <point x="115.1" y="237.4"/>
      <point x="121.6" y="237.2"/>
      <point x="128.1" y="237.1" type="curve"/>
      <point x="126.2" y="182.8"/>
      <point x="122.5" y="128.4"/>
      <point x="116.9" y="72.7" type="curve" smooth="yes"/>
      <point x="112.3" y="28.1"/>
      <point x="148.6" y="-7.4"/>
      <point x="198.7" y="-7.4" type="curve" smooth="yes"/>
      <point x="242.6" y="-7.4"/>
      <point x="273.9" y="21"/>
      <point x="277.7" y="64.4" type="curve" smooth="yes"/>
      <point x="282.6" y="120.4"/>
      <point x="286" y="178.7"/>
      <point x="287.6" y="238.5" type="curve"/>
      <point x="365.9" y="241.7"/>
      <point x="448.4" y="248.5"/>
      <point x="534.8" y="258.9" type="curve"/>
      <point x="535.6" y="183.6"/>
      <point x="535.9" y="121.7"/>
      <point x="535.9" y="64.9" type="curve" smooth="yes"/>
      <point x="535.9" y="22.1"/>
      <point x="568.5" y="-7.5"/>
      <point x="615.7" y="-7.5" type="curve" smooth="yes"/>
      <point x="664.2" y="-7.5"/>
      <point x="699.4" y="23.4"/>
    </contour>
    <contour>
      <point x="400" y="730" type="move" name="top"/>
    </contour>
  </outline>
</glyph>
<glyph name="I" format="1">
  <advance width="456"/>
  <unicode hex="0049"/>
  <outline>
    <contour>
      <point x="329.6" y="578" type="curve"/>
      <point x="366.6" y="580.8"/>
      <point x="391.7" y="606.4"/>
      <point x="391.7" y="641.6" type="curve" smooth="yes"/>
      <point x="391.7" y="682.7"/>
      <point x="358.7" y="711.5"/>
      <point x="315.3" y="708.2" type="curve" smooth="yes"/>
      <point x="244.2" y="702.9"/>
      <point x="181.9" y="701.7"/>
      <point x="120.8" y="704.6" type="curve" smooth="yes"/>
      <point x="82.6" y="706.5"/>
      <point x="55.3" y="680.2"/>
      <point x="55.3" y="641.7" type="curve" smooth="yes"/>
      <point x="55.3" y="604.5"/>
      <point x="80.9" y="576.7"/>
      <point x="116.8" y="574.7" type="curve" smooth="yes"/>
      <point x="124.7" y="574.3"/>
      <point x="133.9" y="574"/>
      <point x="144.5" y="573.7" type="curve"/>
      <point x="149.876" y="493.905"/>
      <point x="152.555" y="412.856"/>
      <point x="152.555" y="329.781" type="curve" smooth="yes"/>
      <point x="152.555" y="264.497"/>
      <point x="150.9" y="197.962"/>
      <point x="147.6" y="129.8" type="curve"/>
      <point x="140.6" y="130"/>
      <point x="133.6" y="129.5"/>
      <point x="126.7" y="129.5" type="curve" smooth="yes"/>
      <point x="89.2" y="129.5"/>
      <point x="61.7" y="102.2"/>
      <point x="61.7" y="65.1" type="curve" smooth="yes"/>
      <point x="61.7" y="29.1"/>
      <point x="87.9" y="2.9"/>
      <point x="126.7" y="0.1" type="curve" smooth="yes"/>
      <point x="191.3" y="-4.5"/>
      <point x="264" y="-2.1"/>
      <point x="337.5" y="7.2" type="curve" smooth="yes"/>
      <point x="375.5" y="11.9"/>
      <point x="400.6" y="38.1"/>
      <point x="400.6" y="72.9" type="curve" smooth="yes"/>
      <point x="400.6" y="109.3"/>
      <point x="373.7" y="136.5"/>
      <point x="337.5" y="136.5" type="curve" smooth="yes"/>
      <point x="322.1" y="136.5"/>
      <point x="311.5" y="135.3"/>
      <point x="308.7" y="135" type="curve"/>
      <point x="311.444" y="192.666"/>
      <point x="312.813" y="251.322"/>
      <point x="312.813" y="311.084" type="curve" smooth="yes"/>
      <point x="312.813" y="397.24"/>
      <point x="309.968" y="485.695"/>
      <point x="304.3" y="576.8" type="curve"/>
      <point x="309.9" y="577.2"/>
      <point x="324.3" y="577.5"/>
    </contour>
    <contour>
      <point x="228" y="0" type="move" name="bottom"/>
    </contour>
    <contour>
      <point x="225" y="730" type="move" name="top"/>
    </contour>
  </outline>
</glyph>
<glyph name="J" format="1">
  <advance width="542"/>
  <unicode hex="004A"/>
  <outline>
    <contour>
      <point x="431" y="581" type="curve" smooth="yes"/>
      <point x="468" y="588"/>
      <point x="492" y="614"/>
      <point x="492" y="646" type="curve" smooth="yes"/>
      <point x="492" y="689"/>
      <point x="454" y="718"/>
      <point x="407" y="710" type="curve" smooth="yes"/>
      <point x="322" y="696"/>
      <point x="235" y="691"/>
      <point x="130" y="694" type="curve" smooth="yes"/>
      <point x="92" y="695"/>
      <point x="65" y="668"/>
      <point x="65" y="629" type="curve" smooth="yes"/>
      <point x="65" y="591"/>
      <point x="94" y="564"/>
      <point x="135" y="564" type="curve" smooth="yes"/>
      <point x="182" y="564"/>
      <point x="217" y="563"/>
      <point x="251" y="563" type="curve"/>
      <point x="266" y="500"/>
      <point x="276" y="420"/>
      <point x="276" y="352" type="curve" smooth="yes"/>
      <point x="276" y="235"/>
      <point x="245" y="120"/>
      <point x="214" y="120" type="curve" smooth="yes"/>
      <point x="195" y="120"/>
      <point x="180" y="155"/>
      <point x="166" y="169" type="curve" smooth="yes"/>
      <point x="152" y="185"/>
      <point x="132" y="194"/>
      <point x="110" y="194" type="curve" smooth="yes"/>
      <point x="63" y="194"/>
      <point x="31" y="160"/>
      <point x="31" y="118" type="curve" smooth="yes"/>
      <point x="31" y="29"/>
      <point x="144" y="-10"/>
      <point x="217" y="-10" type="curve" smooth="yes"/>
      <point x="362" y="-10"/>
      <point x="436" y="107"/>
      <point x="436" y="337" type="curve" smooth="yes"/>
      <point x="436" y="421"/>
      <point x="427" y="505"/>
      <point x="409" y="577" type="curve"/>
      <point x="416" y="578"/>
      <point x="424" y="579"/>
    </contour>
    <contour>
      <point x="262" y="730" type="move" name="top"/>
    </contour>
  </outline>
</glyph>
<glyph name="K" format="1">
  <advance width="597"/>
  <unicode hex="004B"/>
  <outline>
    <contour>
      <point x="563" y="130" type="curve" smooth="yes"/>
      <point x="492" y="205"/>
      <point x="425" y="283"/>
      <point x="367" y="359" type="curve"/>
      <point x="433" y="441"/>
      <point x="491" y="521"/>
      <point x="530" y="583" type="curve" smooth="yes"/>
      <point x="540" y="598"/>
      <point x="544" y="614"/>
      <point x="544" y="629" type="curve" smooth="yes"/>
      <point x="544" y="669"/>
      <point x="513" y="702"/>
      <point x="465" y="702" type="curve" smooth="yes"/>
      <point x="438" y="702"/>
      <point x="415" y="689"/>
      <point x="402" y="666" type="curve" smooth="yes"/>
      <point x="361" y="595"/>
      <point x="308" y="522"/>
      <point x="231" y="429" type="curve"/>
      <point x="229" y="521"/>
      <point x="225" y="597"/>
      <point x="220" y="641" type="curve" smooth="yes"/>
      <point x="216" y="681"/>
      <point x="184" y="707"/>
      <point x="142" y="707" type="curve" smooth="yes"/>
      <point x="92" y="707"/>
      <point x="57" y="672"/>
      <point x="61" y="625" type="curve" smooth="yes"/>
      <point x="69" y="542"/>
      <point x="73" y="451"/>
      <point x="73" y="352" type="curve" smooth="yes"/>
      <point x="73" y="265"/>
      <point x="70" y="172"/>
      <point x="64" y="72" type="curve" smooth="yes"/>
      <point x="61" y="28"/>
      <point x="96" y="-6"/>
      <point x="145" y="-6" type="curve" smooth="yes"/>
      <point x="189" y="-6"/>
      <point x="220" y="21"/>
      <point x="223" y="60" type="curve" smooth="yes"/>
      <point x="226" y="94"/>
      <point x="228" y="141"/>
      <point x="230" y="198" type="curve"/>
      <point x="241" y="210"/>
      <point x="252" y="223"/>
      <point x="263" y="235" type="curve"/>
      <point x="330" y="146"/>
      <point x="391" y="75"/>
      <point x="446" y="22" type="curve" smooth="yes"/>
      <point x="464" y="5"/>
      <point x="484" y="-4"/>
      <point x="506" y="-4" type="curve" smooth="yes"/>
      <point x="555" y="-4"/>
      <point x="586" y="33"/>
      <point x="586" y="73" type="curve" smooth="yes"/>
      <point x="586" y="93"/>
      <point x="579" y="113"/>
    </contour>
    <contour>
      <point x="310" y="0" type="move" name="bottom"/>
    </contour>
  </outline>
</glyph>
<glyph name="L" format="1">
  <advance width="509"/>
  <unicode hex="004C"/>
  <outline>
    <contour>
      <point x="446" y="12" type="curve" smooth="yes"/>
      <point x="484" y="18"/>
      <point x="509" y="44"/>
      <point x="509" y="78" type="curve" smooth="yes"/>
      <point x="509" y="120"/>
      <point x="474" y="147"/>
      <point x="429" y="141" type="curve" smooth="yes"/>
      <point x="362" y="132"/>
      <point x="291" y="127"/>
      <point x="225" y="128" type="curve"/>
      <point x="235" y="311"/>
      <point x="234" y="422"/>
      <point x="220" y="638" type="curve" smooth="yes"/>
      <point x="217" y="678"/>
      <point x="185" y="706"/>
      <point x="142" y="706" type="curve" smooth="yes"/>
      <point x="92" y="706"/>
      <point x="57" y="672"/>
      <point x="60" y="628" type="curve" smooth="yes"/>
      <point x="76" y="416"/>
      <point x="76" y="291"/>
      <point x="61" y="74" type="curve" smooth="yes"/>
      <point x="59" y="33"/>
      <point x="95" y="2"/>
      <point x="149" y="0" type="curve" smooth="yes"/>
      <point x="264" y="-5"/>
      <point x="360" y="-1"/>
    </contour>
    <contour>
      <point x="285" y="0" type="move" name="bottom"/>
    </contour>
    <contour>
      <point x="412" y="392" type="move" name="center"/>
    </contour>
    <contour>
      <point x="321" y="700" type="move" name="right"/>
    </contour>
    <contour>
      <point x="143" y="730" type="move" name="top"/>
    </contour>
  </outline>
</glyph>
<glyph name="M" format="1">
  <advance width="833"/>
  <unicode hex="004D"/>
  <outline>
    <contour>
      <point x="792" y="71" type="curve" smooth="yes"/>
      <point x="787" y="147"/>
      <point x="785" y="231"/>
      <point x="785" y="323" type="curve" smooth="yes"/>
      <point x="785" y="415"/>
      <point x="787" y="515"/>
      <point x="792" y="622" type="curve" smooth="yes"/>
      <point x="794" y="669"/>
      <point x="755" y="706"/>
      <point x="703" y="706" type="curve" smooth="yes"/>
      <point x="669" y="706"/>
      <point x="639" y="690"/>
      <point x="621" y="661" type="curve" smooth="yes"/>
      <point x="562" y="567"/>
      <point x="480" y="416"/>
      <point x="425" y="302" type="curve"/>
      <point x="347" y="477"/>
      <point x="281" y="604"/>
      <point x="235" y="664" type="curve" smooth="yes"/>
      <point x="216" y="689"/>
      <point x="188" y="703"/>
      <point x="156" y="703" type="curve" smooth="yes"/>
      <point x="100" y="703"/>
      <point x="58" y="662"/>
      <point x="62" y="610" type="curve" smooth="yes"/>
      <point x="68" y="539"/>
      <point x="71" y="465"/>
      <point x="71" y="379" type="curve" smooth="yes"/>
      <point x="71" y="291"/>
      <point x="68" y="191"/>
      <point x="61" y="71" type="curve" smooth="yes"/>
      <point x="58" y="27"/>
      <point x="93" y="-6"/>
      <point x="141" y="-6" type="curve" smooth="yes"/>
      <point x="185" y="-6"/>
      <point x="217" y="21"/>
      <point x="220" y="61" type="curve" smooth="yes"/>
      <point x="224" y="109"/>
      <point x="229" y="239"/>
      <point x="232" y="369" type="curve"/>
      <point x="275" y="268"/>
      <point x="320" y="160"/>
      <point x="338" y="109" type="curve" smooth="yes"/>
      <point x="350" y="77"/>
      <point x="379" y="57"/>
      <point x="413" y="57" type="curve" smooth="yes"/>
      <point x="445" y="57"/>
      <point x="473" y="75"/>
      <point x="486" y="104" type="curve" smooth="yes"/>
      <point x="510" y="154"/>
      <point x="568" y="268"/>
      <point x="624" y="371" type="curve"/>
      <point x="626" y="209"/>
      <point x="629" y="113"/>
      <point x="633" y="67" type="curve" smooth="yes"/>
      <point x="637" y="23"/>
      <point x="670" y="-7"/>
      <point x="715" y="-7" type="curve" smooth="yes"/>
      <point x="762" y="-7"/>
      <point x="795" y="26"/>
    </contour>
  </outline>
</glyph>
<glyph name="N" format="1">
  <advance width="694"/>
  <unicode hex="004E"/>
  <outline>
    <contour>
      <point x="632.1" y="70.2" type="curve" smooth="yes"/>
      <point x="625.424" y="190.907"/>
      <point x="622.122" y="293.469"/>
      <point x="622.122" y="382.004" type="curve" smooth="yes"/>
      <point x="622.122" y="473.829"/>
      <point x="625.674" y="550.563"/>
      <point x="632.7" y="616.8" type="curve" smooth="yes"/>
      <point x="638" y="667.1"/>
      <point x="602.4" y="705.9"/>
      <point x="550.9" y="705.9" type="curve" smooth="yes"/>
      <point x="508" y="705.9"/>
      <point x="476.8" y="677.8"/>
      <point x="473.3" y="636" type="curve" smooth="yes"/>
      <point x="463.9" y="526.1"/>
      <point x="460.9" y="420.2"/>
      <point x="463.6" y="299.1" type="curve"/>
      <point x="388.4" y="395.8"/>
      <point x="288.2" y="545.7"/>
      <point x="222.2" y="660.6" type="curve" smooth="yes"/>
      <point x="205.8" y="689.1"/>
      <point x="177.9" y="705.6"/>
      <point x="146" y="705.6" type="curve" smooth="yes"/>
      <point x="94.5" y="705.6"/>
      <point x="56.7" y="665.2"/>
      <point x="61" y="615.1" type="curve" smooth="yes"/>
      <point x="69.0516" y="523.585"/>
      <point x="73.143" y="418.86"/>
      <point x="73.143" y="318.88" type="curve" smooth="yes"/>
      <point x="73.143" y="228.875"/>
      <point x="69.8272" y="142.715"/>
      <point x="63.1" y="73.5" type="curve" smooth="yes"/>
      <point x="58.9" y="29.7"/>
      <point x="94.9" y="-5"/>
      <point x="144.7" y="-5" type="curve" smooth="yes"/>
      <point x="187.7" y="-5"/>
      <point x="218.8" y="22.1"/>
      <point x="223.4" y="63.4" type="curve" smooth="yes"/>
      <point x="230.4" y="126.6"/>
      <point x="234.2" y="245.2"/>
      <point x="232.6" y="354.5" type="curve"/>
      <point x="320.8" y="225.9"/>
      <point x="416.9" y="99.9"/>
      <point x="482.9" y="27.1" type="curve" smooth="yes"/>
      <point x="502.2" y="5.8"/>
      <point x="528.3" y="-6.1"/>
      <point x="555.4" y="-6.1" type="curve" smooth="yes"/>
      <point x="601.5" y="-6.1"/>
      <point x="634.5" y="26.7"/>
    </contour>
    <contour>
      <point x="341" y="0" type="move" name="bottom"/>
    </contour>
    <contour>
      <point x="342" y="730" type="move" name="top"/>
    </contour>
  </outline>
</glyph>
<glyph name="O" format="1">
  <advance width="688"/>
  <unicode hex="004F"/>
  <outline>
    <contour>
      <point x="340.5" y="-10.1" type="curve" smooth="yes"/>
      <point x="519.6" y="-10.1"/>
      <point x="657.7" y="151.3"/>
      <point x="657.7" y="360.7" type="curve" smooth="yes"/>
      <point x="657.7" y="562.4"/>
      <point x="525.2" y="709.7"/>
      <point x="343.7" y="709.7" type="curve" smooth="yes"/>
      <point x="161.3" y="709.7"/>
      <point x="30.3" y="560.8"/>
      <point x="30.3" y="353.4" type="curve" smooth="yes"/>
      <point x="30.3" y="146.2"/>
      <point x="163.7" y="-10.1"/>
    </contour>
    <contour>
      <point x="336.4" y="121.2" type="curve" smooth="yes"/>
      <point x="257" y="121.2"/>
      <point x="192.4" y="223.3"/>
      <point x="192.4" y="348.8" type="curve" smooth="yes"/>
      <point x="192.4" y="474.5"/>
      <point x="263" y="580.4"/>
      <point x="346.9" y="580.4" type="curve" smooth="yes"/>
      <point x="427.5" y="580.4"/>
      <point x="495.6" y="479.4"/>
      <point x="495.6" y="359.6" type="curve" smooth="yes"/>
      <point x="495.6" y="233.9"/>
      <point x="420.4" y="121.2"/>
    </contour>
    <contour>
      <point x="344" y="730" type="move" name="top"/>
    </contour>
  </outline>
</glyph>
<glyph name="P" format="1">
  <advance width="592"/>
  <unicode hex="0050"/>
  <outline>
    <contour>
      <point x="223.3" y="62" type="curve" smooth="yes"/>
      <point x="226.9" y="124.5"/>
      <point x="229.3" y="186.7"/>
      <point x="230.4" y="248.4" type="curve"/>
      <point x="433.4" y="254.4"/>
      <point x="571.4" y="348.9"/>
      <point x="571.4" y="481.8" type="curve" smooth="yes"/>
      <point x="571.4" y="622"/>
      <point x="417.6" y="706.1"/>
      <point x="161.2" y="706.1" type="curve" smooth="yes"/>
      <point x="104.5" y="706.1"/>
      <point x="59" y="666"/>
      <point x="60.7" y="617.6" type="curve" smooth="yes"/>
      <point x="64.3198" y="517.03"/>
      <point x="68.3036" y="416.642"/>
      <point x="68.3036" y="305.786" type="curve" smooth="yes"/>
      <point x="68.3036" y="232.893"/>
      <point x="66.5811" y="155.473"/>
      <point x="61.9" y="70.5" type="curve" smooth="yes"/>
      <point x="59.5" y="27.5"/>
      <point x="96.3" y="-5.9"/>
      <point x="146.1" y="-5.9" type="curve" smooth="yes"/>
      <point x="190.1" y="-5.9"/>
      <point x="220.9" y="21.2"/>
    </contour>
    <contour>
      <point x="231.1" y="378.7" type="curve"/>
      <point x="230.5" y="444.6"/>
      <point x="228.6" y="510.4"/>
      <point x="225.3" y="575.9" type="curve"/>
      <point x="341.5" y="568"/>
      <point x="409.3" y="532.9"/>
      <point x="409.3" y="480.8" type="curve" smooth="yes"/>
      <point x="409.3" y="425.4"/>
      <point x="336.4" y="383.7"/>
    </contour>
  </outline>
</glyph>
<glyph name="Q" format="1">
  <advance width="711"/>
  <unicode hex="0051"/>
  <outline>
    <contour>
      <point x="607.3" y="-92.1" type="curve" smooth="yes"/>
      <point x="648.8" y="-92.1"/>
      <point x="680.5" y="-63.8"/>
      <point x="680.5" y="-26.8" type="curve" smooth="yes"/>
      <point x="680.5" y="6.8"/>
      <point x="653.4" y="32.1"/>
      <point x="611.4" y="37.8" type="curve" smooth="yes"/>
      <point x="579.9" y="42.1"/>
      <point x="549.4" y="47.2"/>
      <point x="519.7" y="53.4" type="curve"/>
      <point x="606.7" y="121.6"/>
      <point x="657.7" y="236.1"/>
      <point x="657.7" y="363.2" type="curve" smooth="yes"/>
      <point x="657.7" y="565.8"/>
      <point x="525.2" y="713.7"/>
      <point x="343.7" y="713.7" type="curve" smooth="yes"/>
      <point x="161.3" y="713.7"/>
      <point x="30.3" y="564.1"/>
      <point x="30.3" y="356" type="curve" smooth="yes"/>
      <point x="30.3" y="152.4"/>
      <point x="158.3" y="-3.1"/>
      <point x="330.5" y="-8.9" type="curve"/>
      <point x="458.9" y="-59.2"/>
      <point x="568.2" y="-92.1"/>
    </contour>
    <contour>
      <point x="336.4" y="122.3" type="curve" smooth="yes"/>
      <point x="257" y="122.3"/>
      <point x="192.4" y="225"/>
      <point x="192.4" y="351.3" type="curve" smooth="yes"/>
      <point x="192.4" y="477.8"/>
      <point x="263" y="584.4"/>
      <point x="346.9" y="584.4" type="curve" smooth="yes"/>
      <point x="427.5" y="584.4"/>
      <point x="495.6" y="482.7"/>
      <point x="495.6" y="362.2" type="curve" smooth="yes"/>
      <point x="495.6" y="235.6"/>
      <point x="420.4" y="122.3"/>
    </contour>
  </outline>
</glyph>
<glyph name="R" format="1">
  <advance width="601"/>
  <unicode hex="0052"/>
  <outline>
    <contour>
      <point x="545.2" y="119.25" type="curve" smooth="yes"/>
      <point x="513.544" y="168.737"/>
      <point x="479.48" y="224.388"/>
      <point x="428.03" y="290.574" type="curve"/>
      <point x="519.28" y="332.481"/>
      <point x="570.35" y="401.101"/>
      <point x="570.35" y="481.8" type="curve" smooth="yes"/>
      <point x="570.35" y="622.039"/>
      <point x="416.62" y="706.1"/>
      <point x="160.15" y="706.1" type="curve" smooth="yes"/>
      <point x="100.646" y="706.1"/>
      <point x="58.0291" y="663.546"/>
      <point x="60.1001" y="606.15" type="curve" smooth="yes"/>
      <point x="65.7001" y="450.95"/>
      <point x="72.7001" y="284.75"/>
      <point x="60.8501" y="70.55" type="curve" smooth="yes"/>
      <point x="58.4696" y="27.5206"/>
      <point x="95.2896" y="-5.9052"/>
      <point x="145.063" y="-5.9052" type="curve" smooth="yes"/>
      <point x="189.053" y="-5.9052"/>
      <point x="219.856" y="21.1874"/>
      <point x="222.25" y="61.95" type="curve" smooth="yes"/>
      <point x="225.88" y="123.747"/>
      <point x="228.281" y="185.924"/>
      <point x="229.452" y="248.406" type="curve"/>
      <point x="242.191" y="248.785"/>
      <point x="254.575" y="249.495"/>
      <point x="266.55" y="250.531" type="curve"/>
      <point x="317.765" y="181.274"/>
      <point x="359.909" y="116.745"/>
      <point x="410.05" y="30.9499" type="curve" smooth="yes"/>
      <point x="424.266" y="6.62516"/>
      <point x="448.958" y="-7.27348"/>
      <point x="477.956" y="-7.27348" type="curve" smooth="yes"/>
      <point x="548.8" y="-7.27348"/>
      <point x="583.896" y="58.757"/>
    </contour>
    <contour>
      <point x="230.098" y="378.648" type="curve"/>
      <point x="229.515" y="443.772"/>
      <point x="227.581" y="508.892"/>
      <point x="224.3" y="573.9" type="curve"/>
      <point x="340.491" y="565.997"/>
      <point x="408.3" y="531.282"/>
      <point x="408.3" y="479.7" type="curve" smooth="yes"/>
      <point x="408.3" y="424.912"/>
      <point x="335.451" y="383.602"/>
    </contour>
    <contour>
      <point x="301" y="0" type="move" name="bottom"/>
    </contour>
    <contour>
      <point x="301" y="730" type="move" name="top"/>
    </contour>
  </outline>
</glyph>
<glyph name="S" format="1">
  <advance width="554"/>
  <unicode hex="0053"/>
  <outline>
    <contour>
      <point x="244" y="-10" type="curve" smooth="yes"/>
      <point x="410" y="-10"/>
      <point x="519" y="79"/>
      <point x="519" y="213" type="curve" smooth="yes"/>
      <point x="519" y="446"/>
      <point x="200" y="409"/>
      <point x="200" y="522" type="curve" smooth="yes"/>
      <point x="200" y="557"/>
      <point x="231" y="580"/>
      <point x="278" y="580" type="curve" smooth="yes"/>
      <point x="310" y="580"/>
      <point x="335" y="568"/>
      <point x="390" y="542" type="curve" smooth="yes"/>
      <point x="401" y="537"/>
      <point x="412" y="535"/>
      <point x="423" y="535" type="curve" smooth="yes"/>
      <point x="461" y="535"/>
      <point x="493" y="562"/>
      <point x="493" y="601" type="curve" smooth="yes"/>
      <point x="493" y="626"/>
      <point x="480" y="648"/>
      <point x="456" y="662" type="curve" smooth="yes"/>
      <point x="402" y="694"/>
      <point x="344" y="710"/>
      <point x="283" y="710" type="curve" smooth="yes"/>
      <point x="141" y="710"/>
      <point x="38" y="624"/>
      <point x="38" y="505" type="curve" smooth="yes"/>
      <point x="38" y="286"/>
      <point x="357" y="333"/>
      <point x="357" y="199" type="curve" smooth="yes"/>
      <point x="357" y="153"/>
      <point x="316" y="120"/>
      <point x="261" y="120" type="curve" smooth="yes"/>
      <point x="202" y="120"/>
      <point x="184" y="157"/>
      <point x="122" y="187" type="curve" smooth="yes"/>
      <point x="112" y="192"/>
      <point x="101" y="194"/>
      <point x="91" y="194" type="curve" smooth="yes"/>
      <point x="54" y="194"/>
      <point x="20" y="164"/>
      <point x="20" y="123" type="curve" smooth="yes"/>
      <point x="20" y="103"/>
      <point x="29" y="83"/>
      <point x="47" y="66" type="curve" smooth="yes"/>
      <point x="96" y="17"/>
      <point x="166" y="-10"/>
    </contour>
    <contour>
      <point x="255" y="0" type="move" name="bottom"/>
    </contour>
    <contour>
      <point x="283" y="730" type="move" name="top"/>
    </contour>
  </outline>
</glyph>
<glyph name="T" format="1">
  <advance width="587"/>
  <unicode hex="0054"/>
  <outline>
    <contour>
      <point x="380" y="68.3" type="curve" smooth="yes"/>
      <point x="385.544" y="180.11"/>
      <point x="388.22" y="267.271"/>
      <point x="388.22" y="356.059" type="curve" smooth="yes"/>
      <point x="388.22" y="421.007"/>
      <point x="386.788" y="486.826"/>
      <point x="384" y="563.8" type="curve"/>
      <point x="429.3" y="567.9"/>
      <point x="475.7" y="572.4"/>
      <point x="524.2" y="577.5" type="curve" smooth="yes"/>
      <point x="561.4" y="581.4"/>
      <point x="586.8" y="607.9"/>
      <point x="586.8" y="642.7" type="curve" smooth="yes"/>
      <point x="586.8" y="684.4"/>
      <point x="551.8" y="711.7"/>
      <point x="505.2" y="706.4" type="curve" smooth="yes"/>
      <point x="340.3" y="687.6"/>
      <point x="222.7" y="681"/>
      <point x="70.8" y="682.1" type="curve" smooth="yes"/>
      <point x="29.8" y="682.5"/>
      <point x="1" y="655.7"/>
      <point x="1" y="617.4" type="curve" smooth="yes"/>
      <point x="1" y="579.7"/>
      <point x="28.7" y="552.2"/>
      <point x="66.9" y="552" type="curve" smooth="yes"/>
      <point x="131.7" y="551.7"/>
      <point x="177.8" y="552.3"/>
      <point x="223.9" y="554" type="curve"/>
      <point x="227.048" y="492.64"/>
      <point x="228.634" y="429.16"/>
      <point x="228.634" y="361.644" type="curve" smooth="yes"/>
      <point x="228.634" y="272.584"/>
      <point x="225.874" y="176.503"/>
      <point x="220.3" y="69" type="curve" smooth="yes"/>
      <point x="218.1" y="26.5"/>
      <point x="252.5" y="-5.7"/>
      <point x="300.1" y="-5.7" type="curve" smooth="yes"/>
      <point x="345.5" y="-5.7"/>
      <point x="377.8" y="24.2"/>
    </contour>
    <contour>
      <point x="301" y="0" type="move" name="bottom"/>
    </contour>
    <contour>
      <point x="279" y="730" type="move" name="top"/>
    </contour>
  </outline>
</glyph>
<glyph name="U" format="1">
  <advance width="715"/>
  <unicode hex="0055"/>
  <outline>
    <contour>
      <point x="359.7" y="-10.1" type="curve" smooth="yes"/>
      <point x="558.3" y="-10.1"/>
      <point x="659.9" y="149.1"/>
      <point x="659.9" y="460" type="curve" smooth="yes"/>
      <point x="659.9" y="529.5"/>
      <point x="655.4" y="603.3"/>
      <point x="648.7" y="642.4" type="curve" smooth="yes"/>
      <point x="642.3" y="680.1"/>
      <point x="609.5" y="705.9"/>
      <point x="567.9" y="705.9" type="curve" smooth="yes"/>
      <point x="516.2" y="705.9"/>
      <point x="483.1" y="667.7"/>
      <point x="489.9" y="616.1" type="curve" smooth="yes"/>
      <point x="495.4" y="574.8"/>
      <point x="497.8" y="529.3"/>
      <point x="497.8" y="466.6" type="curve" smooth="yes"/>
      <point x="497.8" y="231.8"/>
      <point x="454.3" y="119.6"/>
      <point x="363.2" y="119.6" type="curve" smooth="yes"/>
      <point x="270.1" y="119.6"/>
      <point x="216.6" y="237.6"/>
      <point x="216.6" y="442.7" type="curve" smooth="yes"/>
      <point x="216.6" y="499.5"/>
      <point x="220.5" y="557"/>
      <point x="229.1" y="623.4" type="curve" smooth="yes"/>
      <point x="235.1" y="669.9"/>
      <point x="199.8" y="706.5"/>
      <point x="149.1" y="706.5" type="curve" smooth="yes"/>
      <point x="107.3" y="706.5"/>
      <point x="75.7" y="680.3"/>
      <point x="68.9" y="640.1" type="curve" smooth="yes"/>
      <point x="60.6" y="590.3"/>
      <point x="55.3" y="516.4"/>
      <point x="55.3" y="448.6" type="curve" smooth="yes"/>
      <point x="55.3" y="158.5"/>
      <point x="167.2" y="-10.1"/>
    </contour>
    <contour>
      <point x="360" y="0" type="move" name="bottom"/>
    </contour>
    <contour>
      <point x="358" y="730" type="move" name="top"/>
    </contour>
  </outline>
</glyph>
<glyph name="V" format="1">
  <advance width="625"/>
  <unicode hex="0056"/>
  <outline>
    <contour>
      <point x="359" y="36.9" type="curve" smooth="yes"/>
      <point x="440.7" y="164"/>
      <point x="536.6" y="390.8"/>
      <point x="594.7" y="594.9" type="curve" smooth="yes"/>
      <point x="597.635" y="605.231"/>
      <point x="599.03" y="615.295"/>
      <point x="599.03" y="624.884" type="curve" smooth="yes"/>
      <point x="599.03" y="671.822"/>
      <point x="565.604" y="707.4"/>
      <point x="515.7" y="707.4" type="curve" smooth="yes"/>
      <point x="479.8" y="707.4"/>
      <point x="452.2" y="686.4"/>
      <point x="444.9" y="653.5" type="curve" smooth="yes"/>
      <point x="424.7" y="561.9"/>
      <point x="366.8" y="394.3"/>
      <point x="305.4" y="248.9" type="curve"/>
      <point x="269.1" y="411"/>
      <point x="213.8" y="584.1"/>
      <point x="173.1" y="662.7" type="curve" smooth="yes"/>
      <point x="158.8" y="690.2"/>
      <point x="133.2" y="706"/>
      <point x="102.8" y="706" type="curve" smooth="yes"/>
      <point x="54.6487" y="706"/>
      <point x="20.132" y="671.752"/>
      <point x="20.132" y="631.721" type="curve" smooth="yes"/>
      <point x="20.132" y="621.954"/>
      <point x="22.1869" y="611.842"/>
      <point x="26.6" y="601.8" type="curve" smooth="yes"/>
      <point x="97.6" y="439.8"/>
      <point x="173.7" y="199.5"/>
      <point x="200.8" y="52" type="curve" smooth="yes"/>
      <point x="207.4" y="16.6"/>
      <point x="238.3" y="-7.1"/>
      <point x="278" y="-7.1" type="curve" smooth="yes"/>
      <point x="311" y="-7.1"/>
      <point x="341.4" y="9.5"/>
    </contour>
  </outline>
</glyph>
<glyph name="W" format="1">
  <advance width="908"/>
  <unicode hex="0057"/>
  <outline>
    <contour>
      <point x="715" y="53.5" type="curve" smooth="yes"/>
      <point x="745.5" y="219.5"/>
      <point x="803.4" y="430.2"/>
      <point x="867.1" y="605.3" type="curve" smooth="yes"/>
      <point x="870.655" y="615.066"/>
      <point x="872.332" y="624.647"/>
      <point x="872.332" y="633.783" type="curve" smooth="yes"/>
      <point x="872.332" y="674.511"/>
      <point x="838.988" y="706.4"/>
      <point x="789.9" y="706.4" type="curve" smooth="yes"/>
      <point x="757.2" y="706.4"/>
      <point x="730.4" y="690"/>
      <point x="718.5" y="663" type="curve" smooth="yes"/>
      <point x="693.5" y="605.5"/>
      <point x="654" y="465.5"/>
      <point x="616.5" y="300.7" type="curve"/>
      <point x="592.1" y="386.9"/>
      <point x="563.5" y="502.4"/>
      <point x="545.5" y="587.9" type="curve" smooth="yes"/>
      <point x="536.4" y="631.7"/>
      <point x="502.4" y="660.6"/>
      <point x="460.2" y="660.6" type="curve" smooth="yes"/>
      <point x="422.3" y="660.6"/>
      <point x="388.6" y="637.1"/>
      <point x="372.1" y="599.1" type="curve" smooth="yes"/>
      <point x="344.2" y="534.8"/>
      <point x="309.6" y="436.8"/>
      <point x="263.5" y="291.3" type="curve"/>
      <point x="244.1" y="377.2"/>
      <point x="217.1" y="513.8"/>
      <point x="195.4" y="637.3" type="curve" smooth="yes"/>
      <point x="188" y="679.3"/>
      <point x="157.8" y="705.9"/>
      <point x="117.3" y="705.9" type="curve" smooth="yes"/>
      <point x="66.3" y="705.9"/>
      <point x="29.5" y="666.2"/>
      <point x="36" y="618.1" type="curve" smooth="yes"/>
      <point x="59.9" y="442"/>
      <point x="130" y="148.4"/>
      <point x="171.6" y="51" type="curve" smooth="yes"/>
      <point x="186.6" y="15.9"/>
      <point x="221" y="-6.2"/>
      <point x="260.7" y="-6.2" type="curve" smooth="yes"/>
      <point x="304.5" y="-6.2"/>
      <point x="339.1" y="20.3"/>
      <point x="347" y="59.9" type="curve" smooth="yes"/>
      <point x="367.3" y="161.6"/>
      <point x="410.7" y="309.8"/>
      <point x="449.4" y="409.3" type="curve"/>
      <point x="497.4" y="210.2"/>
      <point x="530.6" y="102.7"/>
      <point x="562.9" y="41.8" type="curve" smooth="yes"/>
      <point x="578.6" y="12.1"/>
      <point x="609.4" y="-6.5"/>
      <point x="642.5" y="-6.5" type="curve" smooth="yes"/>
      <point x="679.9" y="-6.5"/>
      <point x="708.3" y="16.9"/>
    </contour>
    <contour>
      <point x="454" y="730" type="move" name="top"/>
    </contour>
  </outline>
</glyph>
<glyph name="X" format="1">
  <advance width="633"/>
  <unicode hex="0058"/>
  <outline>
    <contour>
      <point x="589" y="111" type="curve" smooth="yes"/>
      <point x="545" y="189"/>
      <point x="492" y="273"/>
      <point x="435" y="357" type="curve"/>
      <point x="495" y="437"/>
      <point x="551" y="516"/>
      <point x="597" y="586" type="curve" smooth="yes"/>
      <point x="634" y="643"/>
      <point x="600" y="705"/>
      <point x="533" y="705" type="curve" smooth="yes"/>
      <point x="506" y="705"/>
      <point x="483" y="693"/>
      <point x="468" y="672" type="curve" smooth="yes"/>
      <point x="427" y="612"/>
      <point x="384" y="553"/>
      <point x="338" y="492" type="curve"/>
      <point x="286" y="562"/>
      <point x="234" y="625"/>
      <point x="186" y="679" type="curve" smooth="yes"/>
      <point x="171" y="696"/>
      <point x="152" y="705"/>
      <point x="131" y="705" type="curve" smooth="yes"/>
      <point x="64" y="705"/>
      <point x="26" y="630"/>
      <point x="68" y="580" type="curve" smooth="yes"/>
      <point x="122" y="515"/>
      <point x="180" y="440"/>
      <point x="237" y="362" type="curve"/>
      <point x="186" y="298"/>
      <point x="132" y="232"/>
      <point x="39" y="122" type="curve" smooth="yes"/>
      <point x="-5" y="70"/>
      <point x="32" y="-5"/>
      <point x="102" y="-5" type="curve" smooth="yes"/>
      <point x="122" y="-5"/>
      <point x="141" y="3"/>
      <point x="156" y="19" type="curve" smooth="yes"/>
      <point x="208" y="74"/>
      <point x="269" y="145"/>
      <point x="333" y="225" type="curve"/>
      <point x="379" y="157"/>
      <point x="421" y="91"/>
      <point x="457" y="30" type="curve" smooth="yes"/>
      <point x="471" y="6"/>
      <point x="493" y="-7"/>
      <point x="519" y="-7" type="curve" smooth="yes"/>
      <point x="581" y="-7"/>
      <point x="619" y="57"/>
    </contour>
  </outline>
</glyph>
<glyph name="Y" format="1">
  <advance width="616"/>
  <unicode hex="0059"/>
  <outline>
    <contour>
      <point x="405" y="59" type="curve" smooth="yes"/>
      <point x="412" y="120"/>
      <point x="411" y="195"/>
      <point x="403" y="292" type="curve"/>
      <point x="464" y="374"/>
      <point x="546" y="507"/>
      <point x="586" y="590" type="curve" smooth="yes"/>
      <point x="614" y="646"/>
      <point x="575" y="706"/>
      <point x="511" y="706" type="curve" smooth="yes"/>
      <point x="479" y="706"/>
      <point x="454" y="688"/>
      <point x="442" y="658" type="curve" smooth="yes"/>
      <point x="420" y="604"/>
      <point x="378" y="521"/>
      <point x="334" y="449" type="curve"/>
      <point x="278" y="540"/>
      <point x="207" y="639"/>
      <point x="168" y="681" type="curve" smooth="yes"/>
      <point x="152" y="698"/>
      <point x="132" y="707"/>
      <point x="110" y="707" type="curve" smooth="yes"/>
      <point x="37" y="707"/>
      <point x="4" y="626"/>
      <point x="54" y="570" type="curve" smooth="yes"/>
      <point x="145" y="469"/>
      <point x="231" y="349"/>
      <point x="246" y="302" type="curve"/>
      <point x="254" y="245"/>
      <point x="253" y="162"/>
      <point x="243" y="70" type="curve" smooth="yes"/>
      <point x="239" y="27"/>
      <point x="275" y="-7"/>
      <point x="326" y="-7" type="curve" smooth="yes"/>
      <point x="369" y="-7"/>
      <point x="400" y="19"/>
    </contour>
    <contour>
      <point x="313" y="730" type="move" name="top"/>
    </contour>
  </outline>
</glyph>
<glyph name="Z" format="2">
  <advance width="601"/>
  <unicode hex="005A"/>
  <anchor x="291" y="730" name="top"/>
  <outline>
    <contour>
      <point x="504.9" y="-0.55" type="curve" smooth="yes"/>
      <point x="548.14" y="-5.1868"/>
      <point x="580.742" y="22.504"/>
      <point x="580.742" y="63.8676" type="curve" smooth="yes"/>
      <point x="580.742" y="96.6131"/>
      <point x="559.915" y="121.832"/>
      <point x="529.1" y="126.4" type="curve" smooth="yes"/>
      <point x="458.041" y="136.933"/>
      <point x="367.185" y="140.63"/>
      <point x="267.428" y="137.046" type="curve"/>
      <point x="360.535" y="266.204"/>
      <point x="457.689" y="419.694"/>
      <point x="555.15" y="591.65" type="curve" smooth="yes"/>
      <point x="588.247" y="650.044"/>
      <point x="553.708" y="703.886"/>
      <point x="486.4" y="698.85" type="curve" smooth="yes"/>
      <point x="382.081" y="691.045"/>
      <point x="222.328" y="691.702"/>
      <point x="107.15" y="700.3" type="curve" smooth="yes"/>
      <point x="66.3679" y="703.344"/>
      <point x="35.9789" y="675.878"/>
      <point x="35.9789" y="635.973" type="curve" smooth="yes"/>
      <point x="35.9789" y="599.496"/>
      <point x="61.988" y="572.509"/>
      <point x="99.85" y="569.65" type="curve" smooth="yes"/>
      <point x="181.506" y="563.484"/>
      <point x="273.198" y="561.964"/>
      <point x="355.081" y="565.419" type="curve"/>
      <point x="245.558" y="382.706"/>
      <point x="145.936" y="236.481"/>
      <point x="47.75" y="114.3" type="curve" smooth="yes"/>
      <point x="5.56271" y="61.8025"/>
      <point x="44.2106" y="-8.53492"/>
      <point x="111.9" y="-2.45" type="curve" smooth="yes"/>
      <point x="268.651" y="11.6411"/>
      <point x="385.925" y="12.2081"/>
    </contour>
  </outline>
</glyph>
<glyph name="bracketleft" format="1">
  <advance width="350"/>
  <unicode hex="005B"/>
  <outline>
    <contour>
      <point x="294" y="-70" type="curve" smooth="yes"/>
      <point x="330" y="-68"/>
      <point x="355" y="-43"/>
      <point x="355" y="-8" type="curve" smooth="yes"/>
      <point x="355" y="29"/>
      <point x="326" y="54"/>
      <point x="287" y="50" type="curve" smooth="yes"/>
      <point x="255" y="47"/>
      <point x="238" y="46"/>
      <point x="211" y="47" type="curve"/>
      <point x="222" y="242"/>
      <point x="222" y="451"/>
      <point x="210" y="638" type="curve"/>
      <point x="258" y="640"/>
      <point x="338" y="644"/>
      <point x="338" y="710" type="curve" smooth="yes"/>
      <point x="338" y="748"/>
      <point x="305" y="775"/>
      <point x="262" y="770" type="curve" smooth="yes"/>
      <point x="209" y="764"/>
      <point x="174" y="762"/>
      <point x="142" y="762" type="curve" smooth="yes"/>
      <point x="86" y="762"/>
      <point x="58" y="736"/>
      <point x="61" y="687" type="curve" smooth="yes"/>
      <point x="73" y="482"/>
      <point x="73" y="252"/>
      <point x="61" y="2" type="curve" smooth="yes"/>
      <point x="59" y="-35"/>
      <point x="86" y="-65"/>
      <point x="124" y="-68" type="curve" smooth="yes"/>
      <point x="193" y="-74"/>
      <point x="230" y="-74"/>
    </contour>
  </outline>
</glyph>
<glyph name="backslash" format="1">
  <advance width="488"/>
  <unicode hex="005C"/>
  <outline>
    <contour>
      <point x="467" y="69.8" type="curve" smooth="yes"/>
      <point x="341.2" y="282.9"/>
      <point x="253.2" y="462.4"/>
      <point x="162.5" y="690.5" type="curve" smooth="yes"/>
      <point x="151.3" y="718.7"/>
      <point x="127" y="735.5"/>
      <point x="97.3" y="735.5" type="curve" smooth="yes"/>
      <point x="51.7385" y="735.5"/>
      <point x="20.731" y="701.982"/>
      <point x="20.731" y="660.6" type="curve" smooth="yes"/>
      <point x="20.731" y="649.847"/>
      <point x="22.8245" y="638.564"/>
      <point x="27.3" y="627.2" type="curve" smooth="yes"/>
      <point x="116.6" y="400.2"/>
      <point x="221" y="186.6"/>
      <point x="335.7" y="-3.4" type="curve" smooth="yes"/>
      <point x="349.4" y="-26.2"/>
      <point x="371.1" y="-38.8"/>
      <point x="396.6" y="-38.8" type="curve" smooth="yes"/>
      <point x="443.253" y="-38.8"/>
      <point x="476.835" y="-3.76729"/>
      <point x="476.835" y="34.7181" type="curve" smooth="yes"/>
      <point x="476.835" y="46.3881"/>
      <point x="473.748" y="58.3756"/>
    </contour>
  </outline>
</glyph>
<glyph name="bracketright" format="1">
  <advance width="365"/>
  <unicode hex="005D"/>
  <outline>
    <contour>
      <point x="103.1" y="-69.8" type="curve" smooth="yes"/>
      <point x="156.5" y="-63.7"/>
      <point x="190.9" y="-61.2"/>
      <point x="223" y="-61.2" type="curve" smooth="yes"/>
      <point x="279.4" y="-61.2"/>
      <point x="307.7" y="-35.2"/>
      <point x="304.7" y="13.7" type="curve" smooth="yes"/>
      <point x="298.362" y="116.762"/>
      <point x="295.187" y="225.947"/>
      <point x="295.187" y="340.796" type="curve" smooth="yes"/>
      <point x="295.187" y="454.281"/>
      <point x="298.287" y="573.296"/>
      <point x="304.5" y="697.4" type="curve" smooth="yes"/>
      <point x="306.4" y="734.3"/>
      <point x="278.9" y="764.9"/>
      <point x="241.2" y="767.9" type="curve" smooth="yes"/>
      <point x="172.6" y="773.4"/>
      <point x="135.5" y="773.8"/>
      <point x="71" y="769.9" type="curve" smooth="yes"/>
      <point x="35.3" y="767.7"/>
      <point x="10.3" y="742.2"/>
      <point x="10.3" y="707.8" type="curve" smooth="yes"/>
      <point x="10.3" y="670.6"/>
      <point x="39.1" y="645.8"/>
      <point x="77.9" y="649.6" type="curve" smooth="yes"/>
      <point x="110.5" y="652.8"/>
      <point x="127.1" y="653.5"/>
      <point x="154.8" y="653" type="curve"/>
      <point x="148.862" y="555.305"/>
      <point x="145.887" y="454.597"/>
      <point x="145.887" y="354.989" type="curve" smooth="yes"/>
      <point x="145.887" y="254.963"/>
      <point x="148.887" y="156.046"/>
      <point x="154.9" y="62.4" type="curve"/>
      <point x="107.063" y="61.5419"/>
      <point x="27.3" y="55.4571"/>
      <point x="27.3" y="-8.9" type="curve" smooth="yes"/>
      <point x="27.3" y="-47.8"/>
      <point x="60.7" y="-74.7"/>
    </contour>
  </outline>
</glyph>
<glyph name="asciicircum" format="2">
  <advance width="400"/>
  <unicode hex="005E"/>
  <outline>
    <contour>
      <point x="364.35" y="532.1" type="curve" smooth="yes"/>
      <point x="284.05" y="664.7" type="line" smooth="yes"/>
      <point x="266.828" y="693.139"/>
      <point x="236.822" y="710.456"/>
      <point x="204.781" y="710.456" type="curve" smooth="yes"/>
      <point x="173.038" y="710.456"/>
      <point x="145.706" y="693.453"/>
      <point x="131.35" y="664.85" type="curve" smooth="yes"/>
      <point x="105.625" y="613.593"/>
      <point x="88.2032" y="584.796"/>
      <point x="51.9" y="533.5" type="curve" smooth="yes"/>
      <point x="22.8299" y="492.424"/>
      <point x="50.3837" y="443.479"/>
      <point x="102.578" y="443.479" type="curve" smooth="yes"/>
      <point x="124.349" y="443.479"/>
      <point x="143.037" y="454.063"/>
      <point x="154.45" y="472.9" type="curve" smooth="yes"/>
      <point x="175.827" y="508.184"/>
      <point x="190.817" y="535"/>
      <point x="208.326" y="569.278" type="curve"/>
      <point x="261.05" y="471.701" type="line" smooth="yes"/>
      <point x="271.51" y="452.342"/>
      <point x="289.428" y="441.407"/>
      <point x="310.812" y="441.407" type="curve" smooth="yes"/>
      <point x="360.977" y="441.407"/>
      <point x="389.743" y="490.169"/>
    </contour>
  </outline>
</glyph>
<glyph name="underscore" format="1">
  <advance width="574"/>
  <unicode hex="005F"/>
  <outline>
    <contour>
      <point x="488" y="0" type="curve" smooth="yes"/>
      <point x="520" y="-1.6"/>
      <point x="543.9" y="24.5"/>
      <point x="543.9" y="61.2" type="curve" smooth="yes"/>
      <point x="543.9" y="94.5"/>
      <point x="523.6" y="118.5"/>
      <point x="494" y="120" type="curve" smooth="yes"/>
      <point x="414.598" y="124.038"/>
      <point x="352.574" y="126.038"/>
      <point x="290.95" y="126.038" type="curve" smooth="yes"/>
      <point x="230.492" y="126.038"/>
      <point x="170.42" y="124.113"/>
      <point x="94.7" y="120.3" type="curve" smooth="yes"/>
      <point x="62.6" y="118.7"/>
      <point x="40.5" y="94"/>
      <point x="40.5" y="59.8" type="curve" smooth="yes"/>
      <point x="40.5" y="23.9"/>
      <point x="64.3" y="-1.6"/>
      <point x="96.1" y="0" type="curve" smooth="yes"/>
      <point x="175.1" y="4"/>
      <point x="233.575" y="6"/>
      <point x="292.05" y="6" type="curve" smooth="yes"/>
      <point x="350.525" y="6"/>
      <point x="409" y="4"/>
    </contour>
  </outline>
</glyph>
<glyph name="grave" format="1">
  <advance width="279"/>
  <unicode hex="0060"/>
  <outline>
    <contour>
      <point x="230.2" y="824.8" type="curve" smooth="yes"/>
      <point x="203.1" y="853"/>
      <point x="173.4" y="890.2"/>
      <point x="156.5" y="917.5" type="curve" smooth="yes"/>
      <point x="143.5" y="938.3"/>
      <point x="124.6" y="949.8"/>
      <point x="103.2" y="949.8" type="curve" smooth="yes"/>
      <point x="66.4147" y="949.8"/>
      <point x="40.9592" y="921.395"/>
      <point x="40.9592" y="890.317" type="curve" smooth="yes"/>
      <point x="40.9592" y="847.472"/>
      <point x="119.332" y="778.565"/>
      <point x="148.4" y="753" type="curve" smooth="yes"/>
      <point x="162.9" y="740.2"/>
      <point x="179.1" y="733.4"/>
      <point x="195.1" y="733.4" type="curve" smooth="yes"/>
      <point x="227.577" y="733.4"/>
      <point x="247.779" y="757.042"/>
      <point x="247.779" y="783.668" type="curve" smooth="yes"/>
      <point x="247.779" y="797.542"/>
      <point x="242.293" y="812.227"/>
    </contour>
    <contour>
      <point x="195" y="730" type="move" name="_top"/>
    </contour>
  </outline>
</glyph>
<glyph name="a" format="1">
  <advance width="597"/>
  <unicode hex="0061"/>
  <outline>
    <contour>
      <point x="544.8" y="73.6" type="curve" smooth="yes"/>
      <point x="530.4" y="157.2"/>
      <point x="526.6" y="250.1"/>
      <point x="532" y="387.3" type="curve" smooth="yes"/>
      <point x="533.8" y="430.8"/>
      <point x="507.4" y="465.8"/>
      <point x="460.9" y="487.2" type="curve" smooth="yes"/>
      <point x="428.4" y="502.1"/>
      <point x="386.3" y="510.4"/>
      <point x="337" y="510.4" type="curve" smooth="yes"/>
      <point x="160.7" y="510.4"/>
      <point x="35.5" y="396.5"/>
      <point x="35.5" y="236" type="curve" smooth="yes"/>
      <point x="35.5" y="97.4"/>
      <point x="125.3" y="-9.9"/>
      <point x="241.4" y="-9.9" type="curve" smooth="yes"/>
      <point x="299.5" y="-9.9"/>
      <point x="358.4" y="17.3"/>
      <point x="392.4" y="59.8" type="curve"/>
      <point x="393.2" y="55.4"/>
      <point x="394.1" y="50"/>
      <point x="395.3" y="43.4" type="curve" smooth="yes"/>
      <point x="401.3" y="11.2"/>
      <point x="430.4" y="-9.7"/>
      <point x="469.2" y="-9.7" type="curve" smooth="yes"/>
      <point x="520.8" y="-9.7"/>
      <point x="552.9" y="25.8"/>
    </contour>
    <contour>
      <point x="374.8" y="152.8" type="curve"/>
      <point x="349.4" y="138"/>
      <point x="322.8" y="129.6"/>
      <point x="298.4" y="129.6" type="curve" smooth="yes"/>
      <point x="239.1" y="129.6"/>
      <point x="198.2" y="176.3"/>
      <point x="198.2" y="243.9" type="curve" smooth="yes"/>
      <point x="198.2" y="322.8"/>
      <point x="252.6" y="378.5"/>
      <point x="329.4" y="378.5" type="curve" smooth="yes"/>
      <point x="342.9" y="378.5"/>
      <point x="356.8" y="376.6"/>
      <point x="370.9" y="372.9" type="curve"/>
      <point x="368.1" y="293.4"/>
      <point x="369.3" y="223.3"/>
    </contour>
    <contour>
      <point x="320" y="550" type="move" name="top"/>
    </contour>
  </outline>
</glyph>
<glyph name="b" format="1">
  <advance width="648"/>
  <unicode hex="0062"/>
  <outline>
    <contour>
      <point x="380" y="-11" type="curve" smooth="yes"/>
      <point x="513" y="-11"/>
      <point x="613" y="101"/>
      <point x="613" y="251" type="curve" smooth="yes"/>
      <point x="613" y="401"/>
      <point x="515" y="509"/>
      <point x="382" y="509" type="curve" smooth="yes"/>
      <point x="317" y="509"/>
      <point x="261" y="484"/>
      <point x="223" y="437" type="curve"/>
      <point x="220" y="485"/>
      <point x="217" y="535"/>
      <point x="210" y="632" type="curve" smooth="yes"/>
      <point x="207" y="676"/>
      <point x="175" y="706"/>
      <point x="131" y="706" type="curve" smooth="yes"/>
      <point x="81" y="706"/>
      <point x="46" y="670"/>
      <point x="51" y="621" type="curve" smooth="yes"/>
      <point x="61" y="517"/>
      <point x="66" y="414"/>
      <point x="66" y="313" type="curve" smooth="yes"/>
      <point x="66" y="232"/>
      <point x="63" y="152"/>
      <point x="56" y="73" type="curve" smooth="yes"/>
      <point x="52" y="27"/>
      <point x="86" y="-6"/>
      <point x="136" y="-6" type="curve" smooth="yes"/>
      <point x="179" y="-6"/>
      <point x="211" y="19"/>
      <point x="215" y="56" type="curve" smooth="yes"/>
      <point x="216" y="60"/>
      <point x="216" y="65"/>
      <point x="217" y="71" type="curve"/>
      <point x="255" y="18"/>
      <point x="312" y="-11"/>
    </contour>
    <contour>
      <point x="330" y="119" type="curve" smooth="yes"/>
      <point x="270" y="119"/>
      <point x="226" y="175"/>
      <point x="226" y="250" type="curve" smooth="yes"/>
      <point x="226" y="326"/>
      <point x="270" y="379"/>
      <point x="334" y="379" type="curve" smooth="yes"/>
      <point x="402" y="379"/>
      <point x="453" y="326"/>
      <point x="453" y="255" type="curve" smooth="yes"/>
      <point x="453" y="181"/>
      <point x="397" y="119"/>
    </contour>
  </outline>
</glyph>
<glyph name="c" format="1">
  <advance width="526"/>
  <unicode hex="0063"/>
  <outline>
    <contour>
      <point x="491.7" y="71.5" type="curve" smooth="yes"/>
      <point x="504.2" y="87.1"/>
      <point x="510.7" y="104"/>
      <point x="510.7" y="120.8" type="curve" smooth="yes"/>
      <point x="510.7" y="159.45"/>
      <point x="479.682" y="186.132"/>
      <point x="448.064" y="186.132" type="curve" smooth="yes"/>
      <point x="434.443" y="186.132"/>
      <point x="420.711" y="181.18"/>
      <point x="409.3" y="170.1" type="curve" smooth="yes"/>
      <point x="375.9" y="137.7"/>
      <point x="338.4" y="120"/>
      <point x="302.7" y="120" type="curve" smooth="yes"/>
      <point x="240.3" y="120"/>
      <point x="195.5" y="174.4"/>
      <point x="195.5" y="249.8" type="curve" smooth="yes"/>
      <point x="195.5" y="326"/>
      <point x="241.2" y="380"/>
      <point x="305.7" y="380" type="curve" smooth="yes"/>
      <point x="334.4" y="380"/>
      <point x="362.6" y="369.4"/>
      <point x="386.8" y="349.6" type="curve" smooth="yes"/>
      <point x="398.589" y="339.952"/>
      <point x="412.089" y="335.616"/>
      <point x="425.363" y="335.616" type="curve" smooth="yes"/>
      <point x="458.59" y="335.616"/>
      <point x="490.4" y="362.785"/>
      <point x="490.4" y="401.8" type="curve" smooth="yes"/>
      <point x="490.4" y="483.322"/>
      <point x="358.997" y="510.1"/>
      <point x="298.5" y="510.1" type="curve" smooth="yes"/>
      <point x="143.2" y="510.1"/>
      <point x="35.4" y="405.7"/>
      <point x="35.4" y="255.4" type="curve" smooth="yes"/>
      <point x="35.4" y="102.5"/>
      <point x="145.8" y="-10.1"/>
      <point x="295.7" y="-10.1" type="curve" smooth="yes"/>
      <point x="377.4" y="-10.1"/>
      <point x="450.8" y="20.5"/>
    </contour>
    <contour>
      <point x="292" y="0" type="move" name="bottom"/>
    </contour>
    <contour>
      <point x="273" y="550" type="move" name="top"/>
    </contour>
  </outline>
</glyph>
<glyph name="d" format="1">
  <advance width="649"/>
  <unicode hex="0064"/>
  <outline>
    <contour>
      <point x="268" y="-11" type="curve" smooth="yes"/>
      <point x="336" y="-11"/>
      <point x="393" y="18"/>
      <point x="432" y="72" type="curve"/>
      <point x="432" y="67"/>
      <point x="433" y="62"/>
      <point x="433" y="57" type="curve" smooth="yes"/>
      <point x="438" y="20"/>
      <point x="470" y="-6"/>
      <point x="513" y="-6" type="curve" smooth="yes"/>
      <point x="563" y="-6"/>
      <point x="597" y="28"/>
      <point x="593" y="74" type="curve" smooth="yes"/>
      <point x="579" y="243"/>
      <point x="581" y="441"/>
      <point x="598" y="622" type="curve" smooth="yes"/>
      <point x="603" y="670"/>
      <point x="568" y="706"/>
      <point x="518" y="706" type="curve" smooth="yes"/>
      <point x="474" y="706"/>
      <point x="442" y="677"/>
      <point x="439" y="633" type="curve" smooth="yes"/>
      <point x="433" y="555"/>
      <point x="429" y="492"/>
      <point x="427" y="435" type="curve"/>
      <point x="388" y="484"/>
      <point x="332" y="509"/>
      <point x="266" y="509" type="curve" smooth="yes"/>
      <point x="133" y="509"/>
      <point x="35" y="401"/>
      <point x="35" y="251" type="curve" smooth="yes"/>
      <point x="35" y="101"/>
      <point x="135" y="-11"/>
    </contour>
    <contour>
      <point x="319" y="119" type="curve" smooth="yes"/>
      <point x="251" y="119"/>
      <point x="195" y="181"/>
      <point x="195" y="255" type="curve" smooth="yes"/>
      <point x="195" y="326"/>
      <point x="246" y="379"/>
      <point x="314" y="379" type="curve" smooth="yes"/>
      <point x="379" y="379"/>
      <point x="422" y="328"/>
      <point x="422" y="251" type="curve" smooth="yes"/>
      <point x="422" y="172"/>
      <point x="381" y="119"/>
    </contour>
    <contour>
      <point x="640" y="700" type="move" name="right"/>
    </contour>
  </outline>
</glyph>
<glyph name="e" format="1">
  <advance width="579"/>
  <unicode hex="0065"/>
  <outline>
    <contour>
      <point x="308.2" y="-9.9" type="curve" smooth="yes"/>
      <point x="374.735" y="-9.9"/>
      <point x="526.06" y="25.7307"/>
      <point x="526.06" y="113.794" type="curve" smooth="yes"/>
      <point x="526.06" y="147.334"/>
      <point x="502.365" y="177"/>
      <point x="460.1" y="177" type="curve" smooth="yes"/>
      <point x="444.2" y="177"/>
      <point x="428.3" y="171.4"/>
      <point x="413.6" y="160.6" type="curve" smooth="yes"/>
      <point x="378.1" y="134.7"/>
      <point x="340.5" y="120.8"/>
      <point x="305.6" y="120.8" type="curve" smooth="yes"/>
      <point x="248.9" y="120.8"/>
      <point x="207.4" y="156.6"/>
      <point x="194.6" y="216.4" type="curve"/>
      <point x="479.9" y="216.4" type="line" smooth="yes"/>
      <point x="520.6" y="216.4"/>
      <point x="543.1" y="243.4"/>
      <point x="543.1" y="292.3" type="curve" smooth="yes"/>
      <point x="543.1" y="413.2"/>
      <point x="434.4" y="510.3"/>
      <point x="299.1" y="510.3" type="curve" smooth="yes"/>
      <point x="146.6" y="510.3"/>
      <point x="35.4" y="402.1"/>
      <point x="35.4" y="253.6" type="curve" smooth="yes"/>
      <point x="35.4" y="103.6"/>
      <point x="152.8" y="-9.9"/>
    </contour>
    <contour>
      <point x="404.5" y="292" type="curve"/>
      <point x="194.2" y="292" type="line"/>
      <point x="206.7" y="344.9"/>
      <point x="248.7" y="379.7"/>
      <point x="300.3" y="379.7" type="curve" smooth="yes"/>
      <point x="351.9" y="379.7"/>
      <point x="392.3" y="345.7"/>
    </contour>
    <contour>
      <point x="294" y="0" type="move" name="bottom"/>
    </contour>
    <contour>
      <point x="299" y="550" type="move" name="top"/>
    </contour>
  </outline>
</glyph>
<glyph name="f" format="1">
  <advance width="452"/>
  <unicode hex="0066"/>
  <outline>
    <contour>
      <point x="251" y="59" type="curve" smooth="yes"/>
      <point x="259" y="154"/>
      <point x="261" y="243"/>
      <point x="257" y="358" type="curve"/>
      <point x="314" y="362"/>
      <point x="350" y="366"/>
      <point x="375" y="370" type="curve" smooth="yes"/>
      <point x="417" y="376"/>
      <point x="444" y="401"/>
      <point x="444" y="435" type="curve" smooth="yes"/>
      <point x="444" y="476"/>
      <point x="407" y="505"/>
      <point x="363" y="500" type="curve" smooth="yes"/>
      <point x="325" y="495"/>
      <point x="290" y="491"/>
      <point x="254" y="489" type="curve"/>
      <point x="254" y="501"/>
      <point x="254" y="511"/>
      <point x="256" y="521" type="curve" smooth="yes"/>
      <point x="262" y="563"/>
      <point x="284" y="580"/>
      <point x="334" y="580" type="curve" smooth="yes"/>
      <point x="350" y="580"/>
      <point x="366" y="574"/>
      <point x="382" y="574" type="curve" smooth="yes"/>
      <point x="418" y="574"/>
      <point x="447" y="603"/>
      <point x="447" y="639" type="curve" smooth="yes"/>
      <point x="447" y="701"/>
      <point x="372" y="710"/>
      <point x="325" y="710" type="curve" smooth="yes"/>
      <point x="181" y="710"/>
      <point x="94" y="622"/>
      <point x="94" y="480" type="curve"/>
      <point x="75" y="478"/>
      <point x="66" y="478"/>
      <point x="50" y="476" type="curve" smooth="yes"/>
      <point x="22" y="474"/>
      <point x="0" y="447"/>
      <point x="0" y="413" type="curve" smooth="yes"/>
      <point x="0" y="374"/>
      <point x="29" y="347"/>
      <point x="71" y="347" type="curve" smooth="yes"/>
      <point x="84" y="347"/>
      <point x="93" y="348"/>
      <point x="99" y="349" type="curve"/>
      <point x="103" y="245"/>
      <point x="97" y="164"/>
      <point x="92" y="60" type="curve" smooth="yes"/>
      <point x="90" y="25"/>
      <point x="128" y="-6"/>
      <point x="173" y="-6" type="curve" smooth="yes"/>
      <point x="215" y="-6"/>
      <point x="248" y="21"/>
    </contour>
  </outline>
</glyph>
<glyph name="g" format="1">
  <advance width="635"/>
  <unicode hex="0067"/>
  <outline>
    <contour>
      <point x="307" y="-209.85" type="curve" smooth="yes"/>
      <point x="466.714" y="-209.85"/>
      <point x="594.83" y="-109.649"/>
      <point x="588.05" y="8.55" type="curve" smooth="yes"/>
      <point x="580.836" y="134.303"/>
      <point x="581.232" y="270.162"/>
      <point x="589.15" y="439.6" type="curve" smooth="yes"/>
      <point x="590.911" y="477.287"/>
      <point x="556.71" y="505.7"/>
      <point x="509.1" y="505.7" type="curve" smooth="yes"/>
      <point x="464.874" y="505.7"/>
      <point x="432.317" y="481.328"/>
      <point x="429.3" y="446" type="curve" smooth="yes"/>
      <point x="429.024" y="442.767"/>
      <point x="428.741" y="439.191"/>
      <point x="428.318" y="433.564" type="curve"/>
      <point x="390.062" y="483.493"/>
      <point x="334.331" y="510.2"/>
      <point x="268.4" y="510.2" type="curve" smooth="yes"/>
      <point x="134.733" y="510.2"/>
      <point x="35.3999" y="400.657"/>
      <point x="35.3999" y="253.25" type="curve" smooth="yes"/>
      <point x="35.3999" y="106.915"/>
      <point x="132.752" y="0.199947"/>
      <point x="266.25" y="0.199947" type="curve" smooth="yes"/>
      <point x="330.984" y="0.199947"/>
      <point x="386.461" y="24.9719"/>
      <point x="425.241" y="71.194" type="curve"/>
      <point x="426.029" y="52.565"/>
      <point x="426.94" y="34.7859"/>
      <point x="428" y="18.0499" type="curve" smooth="yes"/>
      <point x="431.7" y="-40.3439"/>
      <point x="380.658" y="-80"/>
      <point x="301.8" y="-80" type="curve" smooth="yes"/>
      <point x="258.432" y="-80"/>
      <point x="211.851" y="-68.3053"/>
      <point x="169.1" y="-46.8" type="curve" smooth="yes"/>
      <point x="117.127" y="-20.6557"/>
      <point x="60.1547" y="-47.0203"/>
      <point x="60.1547" y="-97.2158" type="curve" smooth="yes"/>
      <point x="60.1547" y="-122.988"/>
      <point x="77.5209" y="-146.557"/>
      <point x="108.1" y="-162.25" type="curve" smooth="yes"/>
      <point x="168.698" y="-193.349"/>
      <point x="237.648" y="-209.85"/>
    </contour>
    <contour>
      <point x="313.9" y="130.2" type="curve" smooth="yes"/>
      <point x="246.435" y="130.2"/>
      <point x="195.4" y="181.816"/>
      <point x="195.4" y="250.05" type="curve" smooth="yes"/>
      <point x="195.4" y="321.116"/>
      <point x="251.307" y="380.2"/>
      <point x="318.55" y="380.2" type="curve" smooth="yes"/>
      <point x="378.794" y="380.2"/>
      <point x="422.742" y="327.243"/>
      <point x="422.742" y="254.65" type="curve" smooth="yes"/>
      <point x="422.742" y="181.451"/>
      <point x="377.918" y="130.2"/>
    </contour>
  </outline>
</glyph>
<glyph name="h" format="1">
  <advance width="607"/>
  <unicode hex="0068"/>
  <outline>
    <contour>
      <point x="223.4" y="55.8" type="curve" smooth="yes"/>
      <point x="227" y="123.3"/>
      <point x="226.8" y="228.5"/>
      <point x="225.3" y="343.6" type="curve"/>
      <point x="245" y="365.6"/>
      <point x="272.1" y="380.2"/>
      <point x="299.7" y="380.2" type="curve" smooth="yes"/>
      <point x="367.552" y="380.2"/>
      <point x="406.854" y="304.299"/>
      <point x="406.854" y="187.741" type="curve" smooth="yes"/>
      <point x="406.854" y="151.757"/>
      <point x="403.108" y="111.898"/>
      <point x="395.3" y="69.2" type="curve" smooth="yes"/>
      <point x="385" y="13"/>
      <point x="431.3" y="-18.2"/>
      <point x="476.7" y="-18.2" type="curve" smooth="yes"/>
      <point x="512.6" y="-18.2"/>
      <point x="547.9" y="1.4"/>
      <point x="554.1" y="43.6" type="curve" smooth="yes"/>
      <point x="562.175" y="99.597"/>
      <point x="566.16" y="150.982"/>
      <point x="566.16" y="197.518" type="curve" smooth="yes"/>
      <point x="566.16" y="399.381"/>
      <point x="491.165" y="510"/>
      <point x="349.6" y="510" type="curve" smooth="yes"/>
      <point x="300.8" y="510"/>
      <point x="258.7" y="496.5"/>
      <point x="223.2" y="469.4" type="curve"/>
      <point x="222.1" y="524"/>
      <point x="221" y="578.7"/>
      <point x="219.9" y="630.7" type="curve" smooth="yes"/>
      <point x="218.8" y="686.5"/>
      <point x="177.2" y="712.5"/>
      <point x="135.5" y="712.5" type="curve" smooth="yes"/>
      <point x="91.1" y="712.5"/>
      <point x="46.7" y="683.1"/>
      <point x="50.4" y="628.7" type="curve" smooth="yes"/>
      <point x="57.6632" y="521.652"/>
      <point x="61.0245" y="403.21"/>
      <point x="61.0245" y="293.204" type="curve" smooth="yes"/>
      <point x="61.0245" y="206.316"/>
      <point x="58.9275" y="124.691"/>
      <point x="55" y="58.1" type="curve" smooth="yes"/>
      <point x="52.2" y="11.1"/>
      <point x="95" y="-13.4"/>
      <point x="138.1" y="-13.4" type="curve" smooth="yes"/>
      <point x="179.4" y="-13.4"/>
      <point x="221" y="9"/>
    </contour>
    <contour>
      <point x="138" y="730" type="move" name="top"/>
    </contour>
  </outline>
</glyph>
<glyph name="i" format="1">
  <advance width="284"/>
  <unicode hex="0069"/>
  <outline>
    <contour>
      <point x="152.5" y="560.2" type="curve" smooth="yes"/>
      <point x="212" y="560.2"/>
      <point x="248.8" y="588.5"/>
      <point x="248.8" y="634.1" type="curve" smooth="yes"/>
      <point x="248.8" y="680.4"/>
      <point x="211.5" y="709.7"/>
      <point x="152.5" y="709.7" type="curve" smooth="yes"/>
      <point x="95.1" y="709.7"/>
      <point x="58.1" y="680.1"/>
      <point x="58.1" y="634.1" type="curve" smooth="yes"/>
      <point x="58.1" y="588.7"/>
      <point x="94.5" y="560.2"/>
    </contour>
    <contour>
      <point x="223.8" y="72.9" type="curve" smooth="yes"/>
      <point x="215.291" y="141.081"/>
      <point x="211.062" y="206.941"/>
      <point x="211.062" y="272.482" type="curve" smooth="yes"/>
      <point x="211.062" y="326.333"/>
      <point x="213.917" y="379.969"/>
      <point x="219.6" y="434.5" type="curve" smooth="yes"/>
      <point x="223.8" y="475"/>
      <point x="188.9" y="506.5"/>
      <point x="139.8" y="506.5" type="curve" smooth="yes"/>
      <point x="97.2" y="506.5"/>
      <point x="65.8" y="481.8"/>
      <point x="60.7" y="444.2" type="curve" smooth="yes"/>
      <point x="54.1689" y="396.541"/>
      <point x="50.9678" y="338.268"/>
      <point x="50.9678" y="277.675" type="curve" smooth="yes"/>
      <point x="50.9678" y="200.96"/>
      <point x="56.0991" y="120.525"/>
      <point x="66.1" y="53.2" type="curve" smooth="yes"/>
      <point x="71.5" y="17.1"/>
      <point x="101.4" y="-6.4"/>
      <point x="142.1" y="-6.4" type="curve" smooth="yes"/>
      <point x="193.2" y="-6.4"/>
      <point x="229.3" y="28.7"/>
    </contour>
    <contour>
      <point x="143" y="0" type="move" name="bottom"/>
    </contour>
  </outline>
</glyph>
<glyph name="j" format="1">
  <advance width="281"/>
  <unicode hex="006A"/>
  <outline>
    <contour>
      <point x="150" y="560" type="curve" smooth="yes"/>
      <point x="209" y="560"/>
      <point x="246" y="589"/>
      <point x="246" y="634" type="curve" smooth="yes"/>
      <point x="246" y="680"/>
      <point x="209" y="710"/>
      <point x="150" y="710" type="curve" smooth="yes"/>
      <point x="92" y="710"/>
      <point x="55" y="680"/>
      <point x="55" y="634" type="curve" smooth="yes"/>
      <point x="55" y="589"/>
      <point x="92" y="560"/>
    </contour>
    <contour>
      <point x="4" y="-210" type="curve" smooth="yes"/>
      <point x="146" y="-210"/>
      <point x="235" y="-132"/>
      <point x="229" y="-1" type="curve" smooth="yes"/>
      <point x="223" y="117"/>
      <point x="222" y="277"/>
      <point x="231" y="431" type="curve" smooth="yes"/>
      <point x="234" y="475"/>
      <point x="196" y="506"/>
      <point x="152" y="506" type="curve" smooth="yes"/>
      <point x="108" y="506"/>
      <point x="74" y="478"/>
      <point x="71" y="435" type="curve" smooth="yes"/>
      <point x="64" y="307"/>
      <point x="62" y="159"/>
      <point x="69" y="18" type="curve" smooth="yes"/>
      <point x="74" y="-69"/>
      <point x="7" y="-79"/>
      <point x="-46" y="-74" type="curve" smooth="yes"/>
      <point x="-94" y="-69"/>
      <point x="-124" y="-93"/>
      <point x="-124" y="-132" type="curve" smooth="yes"/>
      <point x="-124" y="-181"/>
      <point x="-76" y="-210"/>
    </contour>
    <contour>
      <point x="151" y="550" type="move" name="top"/>
    </contour>
  </outline>
</glyph>
<glyph name="k" format="1">
  <advance width="552"/>
  <unicode hex="006B"/>
  <outline>
    <contour>
      <point x="511.1" y="115.3" type="curve" smooth="yes"/>
      <point x="463.9" y="157.9"/>
      <point x="416" y="207.2"/>
      <point x="367.9" y="262.7" type="curve"/>
      <point x="413.6" y="305.6"/>
      <point x="449.2" y="343.4"/>
      <point x="471.5" y="372.9" type="curve" smooth="yes"/>
      <point x="485.686" y="391.653"/>
      <point x="492.163" y="412.072"/>
      <point x="492.163" y="431.145" type="curve" smooth="yes"/>
      <point x="492.163" y="471.366"/>
      <point x="463.359" y="505.6"/>
      <point x="417.3" y="505.6" type="curve" smooth="yes"/>
      <point x="394.9" y="505.6"/>
      <point x="374.5" y="495.2"/>
      <point x="359.6" y="476.1" type="curve" smooth="yes"/>
      <point x="321.7" y="427.6"/>
      <point x="278.7" y="380.5"/>
      <point x="225.2" y="328.7" type="curve"/>
      <point x="223.1" y="432.5"/>
      <point x="217.1" y="540.3"/>
      <point x="211.5" y="646.4" type="curve" smooth="yes"/>
      <point x="209.3" y="687.9"/>
      <point x="176.5" y="716.4"/>
      <point x="130.9" y="716.4" type="curve" smooth="yes"/>
      <point x="81" y="716.4"/>
      <point x="46.5" y="683.1"/>
      <point x="50.8" y="639.1" type="curve" smooth="yes"/>
      <point x="61.7642" y="527.547"/>
      <point x="67.2907" y="412.768"/>
      <point x="67.2907" y="302.445" type="curve" smooth="yes"/>
      <point x="67.2907" y="216.556"/>
      <point x="63.9411" y="133.366"/>
      <point x="57.2" y="56.5" type="curve" smooth="yes"/>
      <point x="53.8" y="17.6"/>
      <point x="87.2" y="-10.8"/>
      <point x="136.3" y="-10.8" type="curve" smooth="yes"/>
      <point x="180" y="-10.8"/>
      <point x="212.8" y="12.3"/>
      <point x="216.3" y="45.5" type="curve" smooth="yes"/>
      <point x="219.4" y="74.9"/>
      <point x="221.8" y="105.8"/>
      <point x="223.3" y="138.1" type="curve"/>
      <point x="234.7" y="147.2"/>
      <point x="246.5" y="156.8"/>
      <point x="259.1" y="167.3" type="curve"/>
      <point x="309.4" y="103.7"/>
      <point x="349.5" y="58.2"/>
      <point x="389.1" y="19.9" type="curve" smooth="yes"/>
      <point x="406.9" y="2.6"/>
      <point x="427.7" y="-6.5"/>
      <point x="449.3" y="-6.5" type="curve" smooth="yes"/>
      <point x="497.28" y="-6.5"/>
      <point x="531.425" y="32.5038"/>
      <point x="531.425" y="70.4081" type="curve" smooth="yes"/>
      <point x="531.425" y="86.6189"/>
      <point x="525.179" y="102.629"/>
    </contour>
    <contour>
      <point x="292" y="0" type="move" name="bottom"/>
    </contour>
  </outline>
</glyph>
<glyph name="l" format="1">
  <advance width="271"/>
  <unicode hex="006C"/>
  <outline>
    <contour>
      <point x="212.231" y="69.906" type="curve" smooth="yes"/>
      <point x="224.059" y="243.123"/>
      <point x="223.12" y="473.567"/>
      <point x="209.898" y="642.361" type="curve" smooth="yes"/>
      <point x="206.766" y="682.348"/>
      <point x="174.321" y="710.2"/>
      <point x="130.875" y="710.2" type="curve" smooth="yes"/>
      <point x="81.5167" y="710.2"/>
      <point x="47.7647" y="675.186"/>
      <point x="50.8929" y="627.226" type="curve" smooth="yes"/>
      <point x="63.4153" y="435.239"/>
      <point x="63.9417" y="221.181"/>
      <point x="52.2304" y="83.3459" type="curve" smooth="yes"/>
      <point x="47.7363" y="30.4538"/>
      <point x="80.0986" y="-7.61452"/>
      <point x="129.557" y="-7.61452" type="curve" smooth="yes"/>
      <point x="174.724" y="-7.61452"/>
      <point x="209.141" y="24.6571"/>
    </contour>
    <contour>
      <point x="133" y="0" type="move" name="bottom"/>
    </contour>
    <contour>
      <point x="370" y="370" type="move" name="center"/>
    </contour>
    <contour>
      <point x="250" y="700" type="move" name="right"/>
    </contour>
  </outline>
</glyph>
<glyph name="m" format="1">
  <advance width="905"/>
  <unicode hex="006D"/>
  <outline>
    <contour>
      <point x="850.7" y="59.9" type="curve" smooth="yes"/>
      <point x="860.7" y="109"/>
      <point x="864.9" y="155.3"/>
      <point x="864.9" y="216.8" type="curve" smooth="yes"/>
      <point x="864.9" y="398.2"/>
      <point x="780.6" y="510.3"/>
      <point x="643.9" y="510.3" type="curve" smooth="yes"/>
      <point x="579" y="510.3"/>
      <point x="524" y="485.6"/>
      <point x="483.9" y="438.4" type="curve"/>
      <point x="450.2" y="485.6"/>
      <point x="403.2" y="510.3"/>
      <point x="347.1" y="510.3" type="curve" smooth="yes"/>
      <point x="293.2" y="510.3"/>
      <point x="247.1" y="488.1"/>
      <point x="212.3" y="445.3" type="curve"/>
      <point x="212.3" y="484.645"/>
      <point x="173.683" y="502.5"/>
      <point x="138.7" y="502.5" type="curve" smooth="yes"/>
      <point x="86.4" y="502.5"/>
      <point x="49.7" y="468.9"/>
      <point x="52" y="422.9" type="curve" smooth="yes"/>
      <point x="55.2693" y="354.921"/>
      <point x="58.5068" y="292.439"/>
      <point x="58.5068" y="227.001" type="curve" smooth="yes"/>
      <point x="58.5068" y="176.346"/>
      <point x="56.5669" y="123.919"/>
      <point x="51.2" y="65.8" type="curve" smooth="yes"/>
      <point x="47.9" y="25.3"/>
      <point x="81.1" y="-6.2"/>
      <point x="127.1" y="-6.2" type="curve" smooth="yes"/>
      <point x="169" y="-6.2"/>
      <point x="200.1" y="20.7"/>
      <point x="205.7" y="61.7" type="curve" smooth="yes"/>
      <point x="213.6" y="119.9"/>
      <point x="218" y="218"/>
      <point x="217.1" y="321.6" type="curve"/>
      <point x="237.1" y="360.1"/>
      <point x="262.2" y="379.6"/>
      <point x="291.5" y="379.6" type="curve" smooth="yes"/>
      <point x="346.1" y="379.6"/>
      <point x="379.7" y="311.3"/>
      <point x="379.7" y="200.4" type="curve" smooth="yes"/>
      <point x="379.7" y="159.4"/>
      <point x="375.5" y="120.6"/>
      <point x="366.8" y="83.3" type="curve" smooth="yes"/>
      <point x="355.4" y="33.8"/>
      <point x="390.6" y="-7"/>
      <point x="444.7" y="-7" type="curve" smooth="yes"/>
      <point x="486.1" y="-7"/>
      <point x="517.9" y="18.7"/>
      <point x="526.1" y="58.8" type="curve" smooth="yes"/>
      <point x="536.1" y="107.4"/>
      <point x="540.3" y="154.6"/>
      <point x="540.3" y="216.8" type="curve" smooth="yes"/>
      <point x="540.3" y="248"/>
      <point x="538.2" y="277.4"/>
      <point x="533.8" y="304.8" type="curve"/>
      <point x="554.9" y="354.3"/>
      <point x="582.7" y="379.6"/>
      <point x="616.1" y="379.6" type="curve" smooth="yes"/>
      <point x="670.7" y="379.6"/>
      <point x="704.3" y="311.3"/>
      <point x="704.3" y="200.4" type="curve" smooth="yes"/>
      <point x="704.3" y="159.8"/>
      <point x="700.1" y="122"/>
      <point x="691.4" y="84.4" type="curve" smooth="yes"/>
      <point x="680" y="34.9"/>
      <point x="715.2" y="-5.9"/>
      <point x="769.3" y="-5.9" type="curve" smooth="yes"/>
      <point x="810.6" y="-5.9"/>
      <point x="842.5" y="19.8"/>
    </contour>
  </outline>
</glyph>
<glyph name="n" format="1">
  <advance width="605"/>
  <unicode hex="006E"/>
  <outline>
    <contour>
      <point x="216" y="61" type="curve" smooth="yes"/>
      <point x="225" y="124"/>
      <point x="228" y="222"/>
      <point x="222" y="320" type="curve"/>
      <point x="244" y="360"/>
      <point x="272" y="380"/>
      <point x="305" y="380" type="curve" smooth="yes"/>
      <point x="363" y="380"/>
      <point x="403" y="304"/>
      <point x="403" y="195" type="curve" smooth="yes"/>
      <point x="403" y="159"/>
      <point x="399" y="121"/>
      <point x="390" y="84" type="curve" smooth="yes"/>
      <point x="379" y="35"/>
      <point x="414" y="-6"/>
      <point x="468" y="-6" type="curve" smooth="yes"/>
      <point x="509" y="-6"/>
      <point x="541" y="20"/>
      <point x="549" y="60" type="curve" smooth="yes"/>
      <point x="560" y="110"/>
      <point x="565" y="158"/>
      <point x="565" y="205" type="curve" smooth="yes"/>
      <point x="565" y="389"/>
      <point x="484" y="510"/>
      <point x="360" y="510" type="curve" smooth="yes"/>
      <point x="300" y="510"/>
      <point x="249" y="485"/>
      <point x="212" y="437" type="curve"/>
      <point x="211" y="440"/>
      <point x="211" y="443"/>
      <point x="210" y="447" type="curve" smooth="yes"/>
      <point x="205" y="482"/>
      <point x="174" y="506"/>
      <point x="133" y="506" type="curve" smooth="yes"/>
      <point x="81" y="506"/>
      <point x="45" y="471"/>
      <point x="51" y="427" type="curve" smooth="yes"/>
      <point x="66" y="319"/>
      <point x="69" y="184"/>
      <point x="58" y="75" type="curve" smooth="yes"/>
      <point x="53" y="30"/>
      <point x="89" y="-6"/>
      <point x="139" y="-6" type="curve" smooth="yes"/>
      <point x="180" y="-6"/>
      <point x="211" y="20"/>
    </contour>
    <contour>
      <point x="303" y="0" type="move" name="bottom"/>
    </contour>
    <contour>
      <point x="-130" y="700" type="move" name="right"/>
    </contour>
    <contour>
      <point x="316" y="530" type="move" name="top"/>
    </contour>
  </outline>
</glyph>
<glyph name="o" format="1">
  <advance width="591"/>
  <unicode hex="006F"/>
  <outline>
    <contour>
      <point x="291.77" y="-10.0689" type="curve" smooth="yes"/>
      <point x="443.361" y="-10.0689"/>
      <point x="555.723" y="102.994"/>
      <point x="555.723" y="255.529" type="curve" smooth="yes"/>
      <point x="555.723" y="401.458"/>
      <point x="445.876" y="510.346"/>
      <point x="298.661" y="510.346" type="curve" smooth="yes"/>
      <point x="144.372" y="510.346"/>
      <point x="35.3277" y="404.048"/>
      <point x="35.3277" y="253.644" type="curve" smooth="yes"/>
      <point x="35.3277" y="100.997"/>
      <point x="143.331" y="-10.0689"/>
    </contour>
    <contour>
      <point x="290.593" y="119.617" type="curve" smooth="yes"/>
      <point x="238.413" y="119.617"/>
      <point x="195.414" y="179.791"/>
      <point x="195.414" y="252.813" type="curve" smooth="yes"/>
      <point x="195.414" y="326.702"/>
      <point x="238.695" y="379.66"/>
      <point x="299.083" y="379.66" type="curve" smooth="yes"/>
      <point x="355.645" y="379.66"/>
      <point x="395.637" y="329.006"/>
      <point x="395.637" y="257.364" type="curve" smooth="yes"/>
      <point x="395.637" y="182.066"/>
      <point x="348.015" y="119.617"/>
    </contour>
    <contour>
      <point x="299" y="530" type="move" name="top"/>
    </contour>
  </outline>
</glyph>
<glyph name="p" format="1">
  <advance width="648"/>
  <unicode hex="0070"/>
  <outline>
    <contour>
      <point x="371.5" y="-9.8" type="curve" smooth="yes"/>
      <point x="510.3" y="-9.8"/>
      <point x="612.7" y="98.2"/>
      <point x="612.7" y="248.2" type="curve" smooth="yes"/>
      <point x="612.7" y="398.2"/>
      <point x="509.1" y="510.2"/>
      <point x="369.3" y="510.2" type="curve" smooth="yes"/>
      <point x="307.2" y="510.2"/>
      <point x="255.1" y="488.2"/>
      <point x="216.8" y="448.8" type="curve"/>
      <point x="213.072" y="488.567"/>
      <point x="182.309" y="507.1"/>
      <point x="143.7" y="507.1" type="curve" smooth="yes"/>
      <point x="99.7" y="507.1"/>
      <point x="53" y="478.9"/>
      <point x="58.4" y="417.4" type="curve" smooth="yes"/>
      <point x="64.6558" y="346.051"/>
      <point x="67.5513" y="270.673"/>
      <point x="67.5513" y="193.925" type="curve" smooth="yes"/>
      <point x="67.5513" y="82.9686"/>
      <point x="61.4993" y="-30.8514"/>
      <point x="50.8" y="-139.5" type="curve" smooth="yes"/>
      <point x="45.8" y="-190"/>
      <point x="88.4" y="-216.8"/>
      <point x="130.9" y="-216.8" type="curve" smooth="yes"/>
      <point x="169.9" y="-216.8"/>
      <point x="209" y="-194.3"/>
      <point x="211.5" y="-146.8" type="curve" smooth="yes"/>
      <point x="214.9" y="-82.7"/>
      <point x="218.4" y="-18"/>
      <point x="221.1" y="46.2" type="curve"/>
      <point x="259.6" y="10.3"/>
      <point x="311.1" y="-9.8"/>
    </contour>
    <contour>
      <point x="334.1" y="120.2" type="curve" smooth="yes"/>
      <point x="260.9" y="120.2"/>
      <point x="225.3" y="185.3"/>
      <point x="225.3" y="250.3" type="curve" smooth="yes"/>
      <point x="225.3" y="315.3"/>
      <point x="260.8" y="380.2"/>
      <point x="329.5" y="380.2" type="curve" smooth="yes"/>
      <point x="396.9" y="380.2"/>
      <point x="452.7" y="318.5"/>
      <point x="452.7" y="244.8" type="curve" smooth="yes"/>
      <point x="452.7" y="173.8"/>
      <point x="401.5" y="120.2"/>
    </contour>
  </outline>
</glyph>
<glyph name="q" format="1">
  <advance width="648"/>
  <unicode hex="0071"/>
  <outline>
    <contour>
      <point x="276.6" y="-9.8" type="curve" smooth="yes"/>
      <point x="335.9" y="-9.8"/>
      <point x="388" y="9.7"/>
      <point x="427.4" y="46.6" type="curve"/>
      <point x="429.4" y="-9"/>
      <point x="432.4" y="-70.8"/>
      <point x="436.6" y="-146.8" type="curve" smooth="yes"/>
      <point x="438.9" y="-188.3"/>
      <point x="471.8" y="-216.8"/>
      <point x="517.4" y="-216.8" type="curve" smooth="yes"/>
      <point x="567.4" y="-216.8"/>
      <point x="601.8" y="-183.5"/>
      <point x="597.3" y="-139.5" type="curve" smooth="yes"/>
      <point x="586.411" y="-34.3763"/>
      <point x="580.891" y="79.4464"/>
      <point x="580.891" y="192.158" type="curve" smooth="yes"/>
      <point x="580.891" y="267.829"/>
      <point x="583.379" y="342.999"/>
      <point x="588.4" y="414.7" type="curve" smooth="yes"/>
      <point x="592" y="466.9"/>
      <point x="558.1" y="505.6"/>
      <point x="508.6" y="505.6" type="curve" smooth="yes"/>
      <point x="472.01" y="505.6"/>
      <point x="441.418" y="482.965"/>
      <point x="432.2" y="447.8" type="curve"/>
      <point x="393" y="488.7"/>
      <point x="340.1" y="510.2"/>
      <point x="278.8" y="510.2" type="curve" smooth="yes"/>
      <point x="139.2" y="510.2"/>
      <point x="35.4" y="398.5"/>
      <point x="35.4" y="248.2" type="curve" smooth="yes"/>
      <point x="35.4" y="99"/>
      <point x="137.1" y="-9.8"/>
    </contour>
    <contour>
      <point x="313.9" y="120.2" type="curve" smooth="yes"/>
      <point x="246.5" y="120.2"/>
      <point x="195.4" y="173.9"/>
      <point x="195.4" y="244.9" type="curve" smooth="yes"/>
      <point x="195.4" y="318.7"/>
      <point x="251.3" y="380.2"/>
      <point x="318.5" y="380.2" type="curve" smooth="yes"/>
      <point x="380.6" y="380.2"/>
      <point x="422.4" y="327.3"/>
      <point x="422.4" y="248.9" type="curve" smooth="yes"/>
      <point x="422.4" y="171.4"/>
      <point x="379.2" y="120.2"/>
    </contour>
  </outline>
</glyph>
<glyph name="r" format="1">
  <advance width="444"/>
  <unicode hex="0072"/>
  <outline>
    <contour>
      <point x="210.2" y="57.3" type="curve" smooth="yes"/>
      <point x="215.4" y="133.7"/>
      <point x="217.7" y="187.2"/>
      <point x="217.7" y="238.1" type="curve" smooth="yes"/>
      <point x="217.7" y="330.4"/>
      <point x="247.9" y="379.7"/>
      <point x="304.6" y="379.7" type="curve" smooth="yes"/>
      <point x="337.2" y="379.7"/>
      <point x="347.7" y="364.1"/>
      <point x="377.6" y="364.1" type="curve" smooth="yes"/>
      <point x="415.8" y="364.1"/>
      <point x="444" y="391.9"/>
      <point x="444" y="429.6" type="curve" smooth="yes"/>
      <point x="444" y="486.111"/>
      <point x="388.287" y="510.3"/>
      <point x="338.8" y="510.3" type="curve" smooth="yes"/>
      <point x="282.2" y="510.3"/>
      <point x="239.9" y="485.4"/>
      <point x="209.9" y="434.3" type="curve"/>
      <point x="205.559" y="476.922"/>
      <point x="174.906" y="506.1"/>
      <point x="130.7" y="506.1" type="curve" smooth="yes"/>
      <point x="82.3" y="506.1"/>
      <point x="47.2" y="471.6"/>
      <point x="50.3" y="426.9" type="curve" smooth="yes"/>
      <point x="55.3" y="355"/>
      <point x="57.8" y="298.8"/>
      <point x="57.8" y="242.6" type="curve" smooth="yes"/>
      <point x="57.8" y="186.4"/>
      <point x="55.3" y="130.2"/>
      <point x="50.3" y="58.3" type="curve" smooth="yes"/>
      <point x="47.8" y="22.2"/>
      <point x="82.8" y="-5.6"/>
      <point x="130.7" y="-5.6" type="curve" smooth="yes"/>
      <point x="175.8" y="-5.6"/>
      <point x="207.6" y="19.6"/>
    </contour>
    <contour>
      <point x="131" y="0" type="move" name="bottom"/>
    </contour>
    <contour>
      <point x="247" y="530" type="move" name="top"/>
    </contour>
  </outline>
</glyph>
<glyph name="s" format="1">
  <advance width="456"/>
  <unicode hex="0073"/>
  <outline>
    <contour>
      <point x="221.9" y="-9.6" type="curve" smooth="yes"/>
      <point x="350.2" y="-9.6"/>
      <point x="430.6" y="51"/>
      <point x="430.6" y="147.4" type="curve" smooth="yes"/>
      <point x="430.6" y="309.3"/>
      <point x="203.7" y="291.6"/>
      <point x="203.7" y="349.5" type="curve" smooth="yes"/>
      <point x="203.7" y="367.9"/>
      <point x="221.6" y="379.6"/>
      <point x="249.8" y="379.6" type="curve" smooth="yes"/>
      <point x="293.8" y="379.6"/>
      <point x="317.9" y="349.7"/>
      <point x="352.9" y="349.3" type="curve" smooth="yes"/>
      <point x="390.7" y="348.9"/>
      <point x="420.4" y="377.4"/>
      <point x="420.4" y="413.9" type="curve" smooth="yes"/>
      <point x="420.4" y="432.5"/>
      <point x="412.1" y="449"/>
      <point x="397.4" y="460" type="curve" smooth="yes"/>
      <point x="353.2" y="492.8"/>
      <point x="297.6" y="510.7"/>
      <point x="239.9" y="510.7" type="curve" smooth="yes"/>
      <point x="127.1" y="510.7"/>
      <point x="41.6" y="445.4"/>
      <point x="41.6" y="359.2" type="curve" smooth="yes"/>
      <point x="41.6" y="202.6"/>
      <point x="268.5" y="218.6"/>
      <point x="268.5" y="150.4" type="curve" smooth="yes"/>
      <point x="268.5" y="131.5"/>
      <point x="249.6" y="119.9"/>
      <point x="218.9" y="119.9" type="curve" smooth="yes"/>
      <point x="158.8" y="119.9"/>
      <point x="146.9" y="163.8"/>
      <point x="91.3" y="163.8" type="curve" smooth="yes"/>
      <point x="51.9" y="163.8"/>
      <point x="25.5" y="138.6"/>
      <point x="25.5" y="101" type="curve" smooth="yes"/>
      <point x="25.5" y="14.1441"/>
      <point x="157.4" y="-9.6"/>
    </contour>
    <contour>
      <point x="220" y="0" type="move" name="bottom"/>
    </contour>
    <contour>
      <point x="229" y="530" type="move" name="top"/>
    </contour>
  </outline>
</glyph>
<glyph name="t" format="1">
  <advance width="439"/>
  <unicode hex="0074"/>
  <outline>
    <contour>
      <point x="337.9" y="373.5" type="curve" smooth="yes"/>
      <point x="378" y="381.3"/>
      <point x="403.8" y="407.6"/>
      <point x="403.8" y="440.6" type="curve" smooth="yes"/>
      <point x="403.8" y="483.7"/>
      <point x="362.8" y="510.8"/>
      <point x="312.3" y="501.3" type="curve" smooth="yes"/>
      <point x="294.4" y="497.9"/>
      <point x="276" y="495.2"/>
      <point x="256.3" y="493" type="curve"/>
      <point x="254.6" y="526.4"/>
      <point x="252.3" y="558.3"/>
      <point x="249.1" y="595.4" type="curve" smooth="yes"/>
      <point x="245.9" y="631.4"/>
      <point x="215.3" y="655.7"/>
      <point x="173.2" y="655.7" type="curve" smooth="yes"/>
      <point x="122" y="655.7"/>
      <point x="86.3" y="621.4"/>
      <point x="90.8" y="576.6" type="curve" smooth="yes"/>
      <point x="93.7" y="547.9"/>
      <point x="96.2" y="516.7"/>
      <point x="98" y="487" type="curve"/>
      <point x="88.4" y="487"/>
      <point x="78.6" y="487"/>
      <point x="68.8" y="487" type="curve" smooth="yes"/>
      <point x="31.8" y="487"/>
      <point x="5.4" y="460.5"/>
      <point x="5.4" y="423.5" type="curve" smooth="yes"/>
      <point x="5.4" y="387"/>
      <point x="31.1" y="359.8"/>
      <point x="67.9" y="357.3" type="curve" smooth="yes"/>
      <point x="79.3" y="356.5"/>
      <point x="90.7" y="355.9"/>
      <point x="102.1" y="355.5" type="curve"/>
      <point x="102.2" y="289.6"/>
      <point x="99.5" y="221.6"/>
      <point x="93.6" y="146.9" type="curve" smooth="yes"/>
      <point x="86.6" y="56.1"/>
      <point x="155.5" y="-9.9"/>
      <point x="257.4" y="-9.9" type="curve" smooth="yes"/>
      <point x="299.3" y="-9.9"/>
      <point x="341.3" y="0.7"/>
      <point x="386.9" y="22.5" type="curve" smooth="yes"/>
      <point x="413" y="35"/>
      <point x="428" y="57.6"/>
      <point x="428" y="84.8" type="curve" smooth="yes"/>
      <point x="428" y="124.014"/>
      <point x="400.163" y="150.753"/>
      <point x="367.355" y="150.753" type="curve" smooth="yes"/>
      <point x="356.993" y="150.753"/>
      <point x="346.134" y="148.085"/>
      <point x="335.5" y="142.3" type="curve" smooth="yes"/>
      <point x="320.2" y="134"/>
      <point x="305.4" y="129.6"/>
      <point x="292.5" y="129.6" type="curve" smooth="yes"/>
      <point x="268.5" y="129.6"/>
      <point x="254.3" y="143.5"/>
      <point x="255.5" y="165.8" type="curve" smooth="yes"/>
      <point x="259.2" y="230.6"/>
      <point x="260.7" y="296.2"/>
      <point x="260.2" y="361.5" type="curve"/>
      <point x="286.2" y="364.5"/>
      <point x="312.1" y="368.5"/>
    </contour>
    <contour>
      <point x="250" y="0" type="move" name="bottom"/>
    </contour>
    <contour>
      <point x="390" y="700" type="move" name="right"/>
    </contour>
  </outline>
</glyph>
<glyph name="u" format="1">
  <advance width="601"/>
  <unicode hex="0075"/>
  <outline>
    <contour>
      <point x="550.1" y="66.8" type="curve" smooth="yes"/>
      <point x="547.15" y="144.468"/>
      <point x="543.656" y="213.074"/>
      <point x="543.656" y="284.49" type="curve" smooth="yes"/>
      <point x="543.656" y="331.69"/>
      <point x="545.182" y="380.117"/>
      <point x="549.4" y="433.2" type="curve" smooth="yes"/>
      <point x="552.7" y="474.4"/>
      <point x="518.9" y="506.4"/>
      <point x="472" y="506.4" type="curve" smooth="yes"/>
      <point x="431.2" y="506.4"/>
      <point x="401" y="481.2"/>
      <point x="395.8" y="442.8" type="curve" smooth="yes"/>
      <point x="387.4" y="381.4"/>
      <point x="382.8" y="286.9"/>
      <point x="383.4" y="183.8" type="curve"/>
      <point x="361" y="141.9"/>
      <point x="332.2" y="120.4"/>
      <point x="298.3" y="120.4" type="curve" smooth="yes"/>
      <point x="238" y="120.4"/>
      <point x="200.9" y="188.8"/>
      <point x="200.9" y="299.8" type="curve" smooth="yes"/>
      <point x="200.9" y="338"/>
      <point x="205.3" y="375.4"/>
      <point x="214.6" y="415.6" type="curve" smooth="yes"/>
      <point x="226" y="465.1"/>
      <point x="190.8" y="505.9"/>
      <point x="136.7" y="505.9" type="curve" smooth="yes"/>
      <point x="95.3" y="505.9"/>
      <point x="63.5" y="480.2"/>
      <point x="55.3" y="440.1" type="curve" smooth="yes"/>
      <point x="44.8" y="389"/>
      <point x="40.3" y="341.7"/>
      <point x="40.3" y="283.3" type="curve" smooth="yes"/>
      <point x="40.3" y="101.9"/>
      <point x="117.8" y="-10.2"/>
      <point x="243.3" y="-10.2" type="curve" smooth="yes"/>
      <point x="303.1" y="-10.2"/>
      <point x="353.8" y="14.6"/>
      <point x="390.9" y="62.2" type="curve"/>
      <point x="400.757" y="23.1674"/>
      <point x="431.189" y="-5.1"/>
      <point x="473.1" y="-5.1" type="curve" smooth="yes"/>
      <point x="517.9" y="-5.1"/>
      <point x="551.6" y="26.4"/>
    </contour>
    <contour>
      <point x="456" y="0" type="move" name="bottom"/>
    </contour>
    <contour>
      <point x="298" y="530" type="move" name="top"/>
    </contour>
  </outline>
</glyph>
<glyph name="v" format="1">
  <advance width="536"/>
  <unicode hex="0076"/>
  <outline>
    <contour>
      <point x="505.1" y="385.4" type="curve" smooth="yes"/>
      <point x="515.378" y="403.082"/>
      <point x="520.16" y="420.655"/>
      <point x="520.16" y="436.691" type="curve" smooth="yes"/>
      <point x="520.16" y="475.885"/>
      <point x="491.595" y="505.9"/>
      <point x="444.9" y="505.9" type="curve" smooth="yes"/>
      <point x="415" y="505.9"/>
      <point x="389.9" y="490.8"/>
      <point x="377.5" y="465.5" type="curve" smooth="yes"/>
      <point x="340.5" y="389.7"/>
      <point x="291.7" y="277.1"/>
      <point x="266.4" y="208.7" type="curve"/>
      <point x="239.5" y="300.1"/>
      <point x="192" y="416.7"/>
      <point x="160.3" y="469" type="curve" smooth="yes"/>
      <point x="146.1" y="492.5"/>
      <point x="122" y="506"/>
      <point x="94.3" y="506" type="curve" smooth="yes"/>
      <point x="46.6925" y="506"/>
      <point x="15.6061" y="473.24"/>
      <point x="15.6061" y="432.615" type="curve" smooth="yes"/>
      <point x="15.6061" y="419.139"/>
      <point x="19.0269" y="404.798"/>
      <point x="26.4" y="390.5" type="curve" smooth="yes"/>
      <point x="80.2" y="285.9"/>
      <point x="129" y="196.9"/>
      <point x="177.9" y="49.3" type="curve" smooth="yes"/>
      <point x="189.2" y="15.2"/>
      <point x="220.4" y="-6.4"/>
      <point x="258.5" y="-6.4" type="curve" smooth="yes"/>
      <point x="295.9" y="-6.4"/>
      <point x="329.5" y="14.4"/>
      <point x="345.9" y="47.5" type="curve" smooth="yes"/>
      <point x="409.8" y="176.5"/>
      <point x="448.1" y="286.9"/>
    </contour>
  </outline>
</glyph>
<glyph name="w" format="1">
  <advance width="755"/>
  <unicode hex="0077"/>
  <outline>
    <contour>
      <point x="587" y="62" type="curve" smooth="yes"/>
      <point x="636" y="198"/>
      <point x="680" y="299"/>
      <point x="727" y="383" type="curve" smooth="yes"/>
      <point x="760" y="442"/>
      <point x="724" y="504"/>
      <point x="657" y="504" type="curve" smooth="yes"/>
      <point x="626" y="504"/>
      <point x="600" y="488"/>
      <point x="587" y="460" type="curve" smooth="yes"/>
      <point x="562" y="406"/>
      <point x="523" y="310"/>
      <point x="504" y="255" type="curve"/>
      <point x="485" y="317"/>
      <point x="463" y="374"/>
      <point x="447" y="422" type="curve" smooth="yes"/>
      <point x="433" y="462"/>
      <point x="404" y="487"/>
      <point x="371" y="487" type="curve" smooth="yes"/>
      <point x="343" y="487"/>
      <point x="318" y="469"/>
      <point x="303" y="439" type="curve" smooth="yes"/>
      <point x="275" y="383"/>
      <point x="248" y="320"/>
      <point x="227" y="259" type="curve"/>
      <point x="206" y="321"/>
      <point x="190" y="386"/>
      <point x="182" y="435" type="curve" smooth="yes"/>
      <point x="175" y="479"/>
      <point x="144" y="507"/>
      <point x="102" y="507" type="curve" smooth="yes"/>
      <point x="46" y="507"/>
      <point x="10" y="461"/>
      <point x="24" y="408" type="curve" smooth="yes"/>
      <point x="45" y="324"/>
      <point x="86" y="158"/>
      <point x="141" y="48" type="curve" smooth="yes"/>
      <point x="159" y="13"/>
      <point x="188" y="-7"/>
      <point x="221" y="-7" type="curve" smooth="yes"/>
      <point x="259" y="-7"/>
      <point x="290" y="20"/>
      <point x="301" y="63" type="curve" smooth="yes"/>
      <point x="311" y="102"/>
      <point x="335" y="169"/>
      <point x="365" y="240" type="curve"/>
      <point x="384" y="173"/>
      <point x="407" y="106"/>
      <point x="426" y="56" type="curve" smooth="yes"/>
      <point x="441" y="17"/>
      <point x="472" y="-7"/>
      <point x="505" y="-7" type="curve" smooth="yes"/>
      <point x="540" y="-7"/>
      <point x="571" y="19"/>
    </contour>
    <contour>
      <point x="371" y="530" type="move" name="top"/>
    </contour>
  </outline>
</glyph>
<glyph name="x" format="1">
  <advance width="500"/>
  <unicode hex="0078"/>
  <outline>
    <contour>
      <point x="141" y="16" type="curve" smooth="yes"/>
      <point x="185" y="56"/>
      <point x="226" y="96"/>
      <point x="266" y="138" type="curve"/>
      <point x="365" y="20" type="line" smooth="yes"/>
      <point x="381" y="1"/>
      <point x="402" y="-9"/>
      <point x="423" y="-9" type="curve" smooth="yes"/>
      <point x="469" y="-9"/>
      <point x="499" y="27"/>
      <point x="499" y="66" type="curve" smooth="yes"/>
      <point x="499" y="83"/>
      <point x="493" y="101"/>
      <point x="480" y="117" type="curve" smooth="yes"/>
      <point x="365" y="253" type="line"/>
      <point x="405" y="302"/>
      <point x="439" y="351"/>
      <point x="467" y="398" type="curve" smooth="yes"/>
      <point x="475" y="410"/>
      <point x="478" y="424"/>
      <point x="478" y="436" type="curve" smooth="yes"/>
      <point x="478" y="475"/>
      <point x="446" y="510"/>
      <point x="402" y="510" type="curve" smooth="yes"/>
      <point x="376" y="510"/>
      <point x="354" y="497"/>
      <point x="338" y="473" type="curve" smooth="yes"/>
      <point x="319" y="443"/>
      <point x="294" y="409"/>
      <point x="265" y="371" type="curve"/>
      <point x="174" y="478" type="line" smooth="yes"/>
      <point x="158" y="498"/>
      <point x="136" y="509"/>
      <point x="113" y="509" type="curve" smooth="yes"/>
      <point x="67" y="509"/>
      <point x="38" y="475"/>
      <point x="38" y="436" type="curve" smooth="yes"/>
      <point x="38" y="417"/>
      <point x="45" y="398"/>
      <point x="60" y="380" type="curve" smooth="yes"/>
      <point x="167" y="254" type="line"/>
      <point x="122" y="203"/>
      <point x="76" y="156"/>
      <point x="34" y="117" type="curve" smooth="yes"/>
      <point x="17" y="102"/>
      <point x="10" y="83"/>
      <point x="10" y="65" type="curve" smooth="yes"/>
      <point x="10" y="29"/>
      <point x="40" y="-5"/>
      <point x="87" y="-5" type="curve" smooth="yes"/>
      <point x="106" y="-5"/>
      <point x="125" y="2"/>
    </contour>
  </outline>
</glyph>
<glyph name="y" format="1">
  <advance width="525"/>
  <unicode hex="0079"/>
  <outline>
    <contour>
      <point x="244.5" y="-168.1" type="curve" smooth="yes"/>
      <point x="361.9" y="30"/>
      <point x="453.3" y="232.1"/>
      <point x="505.8" y="409.7" type="curve" smooth="yes"/>
      <point x="508.212" y="417.828"/>
      <point x="509.325" y="425.555"/>
      <point x="509.325" y="432.836" type="curve" smooth="yes"/>
      <point x="509.325" y="477.779"/>
      <point x="466.894" y="505.7"/>
      <point x="425.5" y="505.7" type="curve" smooth="yes"/>
      <point x="394.4" y="505.7"/>
      <point x="364" y="490"/>
      <point x="352.4" y="454.2" type="curve" smooth="yes"/>
      <point x="326.3" y="373.1"/>
      <point x="302.4" y="306.1"/>
      <point x="274.9" y="240.6" type="curve"/>
      <point x="234.9" y="339.6"/>
      <point x="187.1" y="434.3"/>
      <point x="158.1" y="475" type="curve" smooth="yes"/>
      <point x="143.8" y="495.1"/>
      <point x="122.4" y="506.3"/>
      <point x="98" y="506.3" type="curve" smooth="yes"/>
      <point x="56.9262" y="506.3"/>
      <point x="15.6158" y="474.471"/>
      <point x="15.6158" y="429.424" type="curve" smooth="yes"/>
      <point x="15.6158" y="415.905"/>
      <point x="19.3363" y="401.196"/>
      <point x="27.9" y="385.8" type="curve" smooth="yes"/>
      <point x="85.6" y="282.1"/>
      <point x="134.1" y="175.5"/>
      <point x="182.5" y="47.5" type="curve"/>
      <point x="159.8" y="4.6"/>
      <point x="134" y="-41.9"/>
      <point x="104.2" y="-94.2" type="curve" smooth="yes"/>
      <point x="95.6483" y="-109.195"/>
      <point x="91.9251" y="-123.357"/>
      <point x="91.9251" y="-136.267" type="curve" smooth="yes"/>
      <point x="91.9251" y="-179.062"/>
      <point x="132.838" y="-208.1"/>
      <point x="174.4" y="-208.1" type="curve" smooth="yes"/>
      <point x="201" y="-208.1"/>
      <point x="227.9" y="-196.1"/>
    </contour>
    <contour>
      <point x="262" y="530" type="move" name="top"/>
    </contour>
  </outline>
</glyph>
<glyph name="z" format="1">
  <advance width="557"/>
  <unicode hex="007A"/>
  <outline>
    <contour>
      <point x="469.2" y="-1.8" type="curve" smooth="yes"/>
      <point x="509.3" y="-5.5"/>
      <point x="541.7" y="25.1"/>
      <point x="541.7" y="66.5" type="curve" smooth="yes"/>
      <point x="541.7" y="98.6"/>
      <point x="520.9" y="122.1"/>
      <point x="488.3" y="126.8" type="curve" smooth="yes"/>
      <point x="425.5" y="135.7"/>
      <point x="368" y="139"/>
      <point x="288.1" y="137.7" type="curve"/>
      <point x="349" y="201.9"/>
      <point x="428.9" y="302"/>
      <point x="480.6" y="379.6" type="curve" smooth="yes"/>
      <point x="494.187" y="399.996"/>
      <point x="500.537" y="419.771"/>
      <point x="500.537" y="437.206" type="curve" smooth="yes"/>
      <point x="500.537" y="475.333"/>
      <point x="470.166" y="502.265"/>
      <point x="418.7" y="500" type="curve" smooth="yes"/>
      <point x="364.926" y="497.642"/>
      <point x="316.137" y="496.462"/>
      <point x="266.905" y="496.462" type="curve" smooth="yes"/>
      <point x="211.766" y="496.462"/>
      <point x="156.072" y="497.942"/>
      <point x="92.2" y="500.9" type="curve" smooth="yes"/>
      <point x="54.8" y="502.6"/>
      <point x="26.5" y="476.2"/>
      <point x="26.5" y="439.6" type="curve" smooth="yes"/>
      <point x="26.5" y="404.9"/>
      <point x="52.5" y="379.5"/>
      <point x="91.3" y="376.1" type="curve" smooth="yes"/>
      <point x="150" y="371"/>
      <point x="206.8" y="369.1"/>
      <point x="277.9" y="370" type="curve"/>
      <point x="208.3" y="278.2"/>
      <point x="132.6" y="194.2"/>
      <point x="63.3" y="131.9" type="curve" smooth="yes"/>
      <point x="37.2325" y="108.51"/>
      <point x="25.3112" y="83.9157"/>
      <point x="25.3112" y="62.345" type="curve" smooth="yes"/>
      <point x="25.3112" y="22.6812"/>
      <point x="65.6184" y="-6.76032"/>
      <point x="132.4" y="0.3" type="curve" smooth="yes"/>
      <point x="172.654" y="4.56161"/>
      <point x="223.786" y="6.67751"/>
      <point x="278.243" y="6.67751" type="curve" smooth="yes"/>
      <point x="341.349" y="6.67751"/>
      <point x="408.919" y="3.8362"/>
    </contour>
    <contour>
      <point x="278" y="530" type="move" name="top"/>
    </contour>
  </outline>
</glyph>
<glyph name="braceleft" format="1">
  <advance width="305"/>
  <unicode hex="007B"/>
  <outline>
    <contour>
      <point x="265.562" y="12.4712" type="curve" smooth="yes"/>
      <point x="243.735" y="29.2322"/>
      <point x="237.5" y="43.665"/>
      <point x="237.5" y="77.4255" type="curve" smooth="yes"/>
      <point x="237.5" y="120.818"/>
      <point x="267.5" y="166.323"/>
      <point x="267.5" y="220.092" type="curve" smooth="yes"/>
      <point x="267.5" y="275.844"/>
      <point x="236.41" y="323.899"/>
      <point x="184.5" y="348.382" type="curve"/>
      <point x="236.41" y="372.862"/>
      <point x="267.5" y="420.908"/>
      <point x="267.5" y="476.65" type="curve" smooth="yes"/>
      <point x="267.5" y="530.41"/>
      <point x="237.5" y="575.909"/>
      <point x="237.5" y="619.293" type="curve" smooth="yes"/>
      <point x="237.5" y="656.067"/>
      <point x="243.458" y="670.555"/>
      <point x="265.562" y="687.529" type="curve" smooth="yes"/>
      <point x="309.907" y="721.581"/>
      <point x="271.204" y="768.91"/>
      <point x="213.87" y="768.91" type="curve" smooth="yes"/>
      <point x="196.17" y="768.91"/>
      <point x="178.198" y="764.402"/>
      <point x="161.318" y="755.728" type="curve" smooth="yes"/>
      <point x="113.599" y="731.206"/>
      <point x="84.5" y="681.677"/>
      <point x="84.5" y="624.976" type="curve" smooth="yes"/>
      <point x="84.5" y="565.603"/>
      <point x="117.5" y="522.578"/>
      <point x="117.5" y="477.842" type="curve" smooth="yes"/>
      <point x="117.5" y="443.841"/>
      <point x="99.1216" y="414.179"/>
      <point x="57.9229" y="381.687" type="curve" smooth="yes"/>
      <point x="47.0462" y="373.109"/>
      <point x="40.8814" y="361.038"/>
      <point x="40.8814" y="348.318" type="curve" smooth="yes"/>
      <point x="40.8814" y="335.635"/>
      <point x="47.0048" y="323.709"/>
      <point x="57.9496" y="315.077" type="curve" smooth="yes"/>
      <point x="99.1255" y="282.603"/>
      <point x="117.5" y="252.941"/>
      <point x="117.5" y="218.943" type="curve" smooth="yes"/>
      <point x="117.5" y="174.207"/>
      <point x="84.5" y="131.182"/>
      <point x="84.5" y="75.0236" type="curve" smooth="yes"/>
      <point x="84.5" y="18.3233"/>
      <point x="113.599" y="-31.2059"/>
      <point x="161.318" y="-55.7278" type="curve" smooth="yes"/>
      <point x="178.198" y="-64.4022"/>
      <point x="196.17" y="-68.9103"/>
      <point x="213.87" y="-68.9103" type="curve" smooth="yes"/>
      <point x="271.204" y="-68.9103"/>
      <point x="309.907" y="-21.5813"/>
    </contour>
  </outline>
</glyph>
<glyph name="bar" format="1">
  <advance width="253"/>
  <unicode hex="007C"/>
  <outline>
    <contour>
      <point x="200.043" y="-1.0314" type="curve" smooth="yes"/>
      <point x="216.05" y="274.741"/>
      <point x="216.35" y="464.064"/>
      <point x="201.158" y="703.172" type="curve" smooth="yes"/>
      <point x="198.643" y="742.77"/>
      <point x="167.552" y="770.403"/>
      <point x="125.516" y="770.403" type="curve" smooth="yes"/>
      <point x="79.6586" y="770.403"/>
      <point x="48.1106" y="738.16"/>
      <point x="50.8378" y="694.08" type="curve" smooth="yes"/>
      <point x="65.7798" y="452.574"/>
      <point x="65.635" y="290.367"/>
      <point x="50.22" y="2.024" type="curve" smooth="yes"/>
      <point x="48.027" y="-38.9966"/>
      <point x="80.4032" y="-70.0466"/>
      <point x="125.369" y="-70.0466" type="curve" smooth="yes"/>
      <point x="167.494" y="-70.0466"/>
      <point x="197.655" y="-42.1712"/>
    </contour>
  </outline>
</glyph>
<glyph name="braceright" format="1">
  <advance width="305"/>
  <unicode hex="007D"/>
  <outline>
    <contour>
      <point x="144.149" y="-55.7279" type="curve" smooth="yes"/>
      <point x="191.868" y="-31.2059"/>
      <point x="220.968" y="18.3233"/>
      <point x="220.968" y="75.0236" type="curve" smooth="yes"/>
      <point x="220.968" y="131.182"/>
      <point x="187.968" y="174.207"/>
      <point x="187.968" y="218.943" type="curve" smooth="yes"/>
      <point x="187.968" y="252.941"/>
      <point x="206.342" y="282.603"/>
      <point x="247.518" y="315.077" type="curve" smooth="yes"/>
      <point x="258.437" y="323.688"/>
      <point x="264.585" y="335.693"/>
      <point x="264.585" y="348.402" type="curve" smooth="yes"/>
      <point x="264.585" y="361.099"/>
      <point x="258.447" y="373.088"/>
      <point x="247.545" y="381.687" type="curve" smooth="yes"/>
      <point x="206.346" y="414.179"/>
      <point x="187.968" y="443.841"/>
      <point x="187.968" y="477.842" type="curve" smooth="yes"/>
      <point x="187.968" y="522.578"/>
      <point x="220.968" y="565.603"/>
      <point x="220.968" y="624.976" type="curve" smooth="yes"/>
      <point x="220.968" y="681.677"/>
      <point x="191.868" y="731.206"/>
      <point x="144.149" y="755.728" type="curve" smooth="yes"/>
      <point x="127.269" y="764.402"/>
      <point x="109.297" y="768.91"/>
      <point x="91.5974" y="768.91" type="curve" smooth="yes"/>
      <point x="34.2634" y="768.91"/>
      <point x="-4.43943" y="721.581"/>
      <point x="39.9051" y="687.529" type="curve" smooth="yes"/>
      <point x="62.0095" y="670.555"/>
      <point x="67.9675" y="656.067"/>
      <point x="67.9675" y="619.293" type="curve" smooth="yes"/>
      <point x="67.9675" y="575.909"/>
      <point x="37.9675" y="530.41"/>
      <point x="37.9675" y="476.65" type="curve" smooth="yes"/>
      <point x="37.9675" y="420.908"/>
      <point x="69.0575" y="372.862"/>
      <point x="120.968" y="348.382" type="curve"/>
      <point x="69.0575" y="323.899"/>
      <point x="37.9675" y="275.844"/>
      <point x="37.9675" y="220.092" type="curve" smooth="yes"/>
      <point x="37.9675" y="166.323"/>
      <point x="67.9675" y="120.818"/>
      <point x="67.9675" y="77.4255" type="curve" smooth="yes"/>
      <point x="67.9675" y="43.6649"/>
      <point x="61.7321" y="29.2322"/>
      <point x="39.9051" y="12.4712" type="curve" smooth="yes"/>
      <point x="-4.43943" y="-21.5813"/>
      <point x="34.2634" y="-68.9103"/>
      <point x="91.5974" y="-68.9103" type="curve" smooth="yes"/>
      <point x="109.297" y="-68.9103"/>
      <point x="127.269" y="-64.4022"/>
    </contour>
  </outline>
</glyph>
<glyph name="asciitilde" format="1">
  <advance width="525"/>
  <unicode hex="007E"/>
  <outline>
    <contour>
      <point x="480.2" y="250.6" type="curve" smooth="yes"/>
      <point x="489.9" y="262"/>
      <point x="495" y="274.8"/>
      <point x="495" y="288.2" type="curve" smooth="yes"/>
      <point x="495" y="323.432"/>
      <point x="463.729" y="349.684"/>
      <point x="433.222" y="349.684" type="curve" smooth="yes"/>
      <point x="422.253" y="349.684"/>
      <point x="411.383" y="346.29"/>
      <point x="402.1" y="338.7" type="curve" smooth="yes"/>
      <point x="372.6" y="314.5"/>
      <point x="354.8" y="296.6"/>
      <point x="328.7" y="296.6" type="curve" smooth="yes"/>
      <point x="284" y="296.6"/>
      <point x="252.5" y="356"/>
      <point x="178.4" y="356" type="curve" smooth="yes"/>
      <point x="124.3" y="356"/>
      <point x="74.9" y="324.9"/>
      <point x="48.7" y="274.4" type="curve" smooth="yes"/>
      <point x="43.2" y="263.7"/>
      <point x="40.4" y="253.1"/>
      <point x="40.4" y="242.8" type="curve" smooth="yes"/>
      <point x="40.4" y="207.296"/>
      <point x="71.0929" y="184.478"/>
      <point x="101.508" y="184.478" type="curve" smooth="yes"/>
      <point x="118.638" y="184.478"/>
      <point x="135.679" y="191.715"/>
      <point x="147.1" y="208" type="curve" smooth="yes"/>
      <point x="160.9" y="227.8"/>
      <point x="175.6" y="235.8"/>
      <point x="198.2" y="235.8" type="curve" smooth="yes"/>
      <point x="258.8" y="235.8"/>
      <point x="278" y="177"/>
      <point x="345.6" y="177" type="curve" smooth="yes"/>
      <point x="391.5" y="177"/>
      <point x="439.8" y="203.5"/>
    </contour>
  </outline>
</glyph>
<glyph name="exclamdown" format="1">
  <advance width="304"/>
  <unicode hex="00A1"/>
  <outline>
    <contour>
      <point x="163" y="366" type="curve" smooth="yes"/>
      <point x="222" y="366"/>
      <point x="259" y="394"/>
      <point x="259" y="440" type="curve" smooth="yes"/>
      <point x="259" y="486"/>
      <point x="222" y="516"/>
      <point x="163" y="516" type="curve" smooth="yes"/>
      <point x="105" y="516"/>
      <point x="68" y="486"/>
      <point x="68" y="440" type="curve" smooth="yes"/>
      <point x="68" y="395"/>
      <point x="105" y="366"/>
    </contour>
    <contour>
      <point x="234" y="-121" type="curve" smooth="yes"/>
      <point x="225" y="-53"/>
      <point x="221" y="13"/>
      <point x="221" y="79" type="curve" smooth="yes"/>
      <point x="221" y="133"/>
      <point x="224" y="186"/>
      <point x="230" y="240" type="curve" smooth="yes"/>
      <point x="234" y="286"/>
      <point x="192" y="312"/>
      <point x="150" y="312" type="curve" smooth="yes"/>
      <point x="113" y="312"/>
      <point x="77" y="293"/>
      <point x="71" y="250" type="curve" smooth="yes"/>
      <point x="64" y="202"/>
      <point x="61" y="144"/>
      <point x="61" y="83" type="curve" smooth="yes"/>
      <point x="61" y="7"/>
      <point x="66" y="-74"/>
      <point x="76" y="-141" type="curve" smooth="yes"/>
      <point x="82" y="-182"/>
      <point x="117" y="-201"/>
      <point x="152" y="-201" type="curve" smooth="yes"/>
      <point x="196" y="-201"/>
      <point x="240" y="-172"/>
    </contour>
  </outline>
</glyph>
<glyph name="cent" format="1">
  <advance width="526"/>
  <unicode hex="00A2"/>
  <outline>
    <contour>
      <point x="365" y="-73" type="curve" smooth="yes"/>
      <point x="362" y="-3" type="line"/>
      <point x="415" y="9"/>
      <point x="511" y="55"/>
      <point x="511" y="121" type="curve" smooth="yes"/>
      <point x="511" y="176"/>
      <point x="447" y="207"/>
      <point x="409" y="170" type="curve" smooth="yes"/>
      <point x="376" y="138"/>
      <point x="338" y="120"/>
      <point x="303" y="120" type="curve" smooth="yes"/>
      <point x="240" y="120"/>
      <point x="196" y="174"/>
      <point x="196" y="250" type="curve" smooth="yes"/>
      <point x="196" y="326"/>
      <point x="241" y="380"/>
      <point x="306" y="380" type="curve" smooth="yes"/>
      <point x="334" y="380"/>
      <point x="363" y="369"/>
      <point x="387" y="350" type="curve" smooth="yes"/>
      <point x="428" y="316"/>
      <point x="491" y="347"/>
      <point x="491" y="402" type="curve" smooth="yes"/>
      <point x="491" y="462"/>
      <point x="410" y="495"/>
      <point x="362" y="504" type="curve"/>
      <point x="365" y="574" type="line" smooth="yes"/>
      <point x="367" y="607"/>
      <point x="338" y="623"/>
      <point x="310" y="623" type="curve" smooth="yes"/>
      <point x="282" y="623"/>
      <point x="254" y="607"/>
      <point x="255" y="574" type="curve" smooth="yes"/>
      <point x="259" y="508" type="line"/>
      <point x="125" y="491"/>
      <point x="35" y="393"/>
      <point x="35" y="255" type="curve" smooth="yes"/>
      <point x="35" y="116"/>
      <point x="128" y="9"/>
      <point x="259" y="-8" type="curve"/>
      <point x="255" y="-73" type="line" smooth="yes"/>
      <point x="254" y="-106"/>
      <point x="282" y="-122"/>
      <point x="310" y="-122" type="curve" smooth="yes"/>
      <point x="338" y="-122"/>
      <point x="366" y="-106"/>
    </contour>
  </outline>
</glyph>
<glyph name="sterling" format="2">
  <advance width="558"/>
  <unicode hex="00A3"/>
  <outline>
    <contour>
      <point x="391.3" y="296.9" type="curve" smooth="yes"/>
      <point x="423.652" y="302.774"/>
      <point x="444.745" y="325.253"/>
      <point x="444.745" y="353.828" type="curve" smooth="yes"/>
      <point x="444.745" y="390.777"/>
      <point x="411.794" y="413.711"/>
      <point x="371.05" y="405.15" type="curve" smooth="yes"/>
      <point x="335.909" y="397.766"/>
      <point x="300.301" y="391.671"/>
      <point x="262.874" y="386.633" type="curve"/>
      <point x="252.93" y="424.422"/>
      <point x="242.95" y="459.397"/>
      <point x="242.95" y="489.45" type="curve" smooth="yes"/>
      <point x="242.95" y="544.497"/>
      <point x="273.798" y="579.15"/>
      <point x="322.8" y="579.15" type="curve" smooth="yes"/>
      <point x="352.238" y="579.15"/>
      <point x="377.924" y="566.434"/>
      <point x="396.9" y="542.35" type="curve" smooth="yes"/>
      <point x="411.662" y="523.614"/>
      <point x="430.677" y="513.557"/>
      <point x="451.337" y="513.557" type="curve" smooth="yes"/>
      <point x="508.431" y="513.557"/>
      <point x="541.862" y="578.223"/>
      <point x="507.95" y="623.1" type="curve" smooth="yes"/>
      <point x="466.193" y="678.359"/>
      <point x="394.936" y="709.5"/>
      <point x="310.25" y="709.5" type="curve" smooth="yes"/>
      <point x="178.293" y="709.5"/>
      <point x="83.4" y="621.844"/>
      <point x="83.4" y="499.95" type="curve" smooth="yes"/>
      <point x="83.4" y="459.085"/>
      <point x="93.1716" y="422.682"/>
      <point x="117.486" y="372.968" type="curve"/>
      <point x="108.868" y="372.461"/>
      <point x="100.093" y="371.987"/>
      <point x="91.15" y="371.55" type="curve" smooth="yes"/>
      <point x="57.7343" y="369.918"/>
      <point x="35.1547" y="347.969"/>
      <point x="35.1547" y="317.117" type="curve" smooth="yes"/>
      <point x="35.1547" y="285.017"/>
      <point x="59.1794" y="261.319"/>
      <point x="91.15" y="261.85" type="curve" smooth="yes"/>
      <point x="113.515" y="262.221"/>
      <point x="134.738" y="263.086"/>
      <point x="155.943" y="264.49" type="curve"/>
      <point x="156.153" y="261.032"/>
      <point x="156.236" y="257.57"/>
      <point x="156.2" y="254.1" type="curve" smooth="yes"/>
      <point x="155.65" y="200.814"/>
      <point x="127.214" y="145.562"/>
      <point x="77.2499" y="100.7" type="curve" smooth="yes"/>
      <point x="64.2538" y="89.0309"/>
      <point x="57.2594" y="73.6313"/>
      <point x="57.2594" y="56.6866" type="curve" smooth="yes"/>
      <point x="57.2594" y="6.77777"/>
      <point x="108.074" y="-24.1046"/>
      <point x="151.95" y="-0.950133" type="curve" smooth="yes"/>
      <point x="181.768" y="14.7858"/>
      <point x="214.034" y="22.3999"/>
      <point x="250.9" y="22.3999" type="curve" smooth="yes"/>
      <point x="313" y="22.3999"/>
      <point x="373" y="1.39987"/>
      <point x="427.35" y="1.39987" type="curve" smooth="yes"/>
      <point x="461.099" y="1.39987"/>
      <point x="488.126" y="9.75843"/>
      <point x="511.4" y="27.4499" type="curve" smooth="yes"/>
      <point x="569.348" y="71.498"/>
      <point x="552.798" y="153.06"/>
      <point x="485.911" y="153.06" type="curve" smooth="yes"/>
      <point x="471.6" y="153.06"/>
      <point x="456.414" y="148.771"/>
      <point x="441.2" y="140.35" type="curve" smooth="yes"/>
      <point x="410.921" y="123.589"/>
      <point x="384.358" y="115.5"/>
      <point x="359.6" y="115.5" type="curve" smooth="yes"/>
      <point x="323.95" y="115.5"/>
      <point x="300.3" y="131.75"/>
      <point x="269.55" y="131.75" type="curve" smooth="yes"/>
      <point x="253.185" y="131.75"/>
      <point x="236.739" y="127.021"/>
      <point x="218.6" y="117.1" type="curve"/>
      <point x="260.421" y="157.522"/>
      <point x="281.552" y="205.759"/>
      <point x="282.55" y="263.45" type="curve" smooth="yes"/>
      <point x="282.625" y="267.784"/>
      <point x="282.546" y="272.528"/>
      <point x="282.299" y="278.617" type="curve"/>
      <point x="313.71" y="283.303"/>
      <point x="349.12" y="289.242"/>
    </contour>
  </outline>
</glyph>
